<?xml version="1.0" encoding="UTF-8"?>
<svg width="26mm" height="26mm" version="1.1" viewBox="0 0 26 26" xmlns="http://www.w3.org/2000/svg" xmlns:cc="http://creativecommons.org/ns#" xmlns:dc="http://purl.org/dc/elements/1.1/" xmlns:rdf="http://www.w3.org/1999/02/22-rdf-syntax-ns#">
<metadata>
<rdf:RDF>
<cc:Work rdf:about="">
<dc:format>image/svg+xml</dc:format>
<dc:type rdf:resource="http://purl.org/dc/dcmitype/StillImage"/>
<dc:title/>
</cc:Work>
</rdf:RDF>
</metadata>
<g transform="translate(-93.266 -135.39)">
<g transform="matrix(.26458 0 0 .26458 93.036 135.17)">
<ellipse transform="matrix(.9831 -.1832 .1832 .9831 -4.5096 7.0493)" cx="35.9" cy="27.9" rx="5.3" ry="6.8" fill="#f60"/>
<ellipse transform="matrix(.9455 -.3256 .3256 .9455 -11.275 11.211)" cx="27.9" cy="39.3" rx="4.8" ry="6.2" fill="#f60"/>
<ellipse transform="matrix(.1832 -.9831 .9831 .1832 13.075 71.61)" cx="49.6" cy="27.9" rx="6.8" ry="5.3" fill="#f60"/>
<ellipse transform="matrix(.3256 -.9455 .9455 .3256 1.7548 81.032)" cx="57.7" cy="39.3" rx="6.2" ry="4.8" fill="#f60"/>
<path d="m56.8 50-3.7-2.2c-2.4-1.4-4.2-3.5-5.1-6.1l-1.5-4c-0.6-1.5-2.1-2.6-3.7-2.6s-3.1 1-3.7 2.6l-1.5 4c-1 2.5-2.8 4.7-5.1 6.1l-3.8 2.2c-1.4 0.8-2.3 2.4-2.3 4.1 0 3.1 2.9 9.8 5.9 9v0.1c6.9-1.7 14.1-1.8 21-0.1 3 0.7 5.9-6 5.9-9-0.1-1.7-1-3.3-2.4-4.1z" fill="#f60"/>
<path d="m96.3 90.3-22.3-22.2c5.6-6.9 9-15.7 9-25.3 0-22.2-18-40.3-40.2-40.3s-40.3 18.1-40.3 40.3 18.1 40.2 40.3 40.2c9.6 0 18.4-3.4 25.3-9l22.2 22.2c0.8 0.8 1.9 1.2 3 1.2s2.2-0.4 3-1.2c1.6-1.6 1.6-4.2 0-5.9zm-85.4-47.5c0-17.6 14.3-31.8 31.8-31.8s31.8 14.3 31.8 31.8-14.2 31.8-31.7 31.8-31.9-14.3-31.9-31.8z" fill="#242424" stroke="#565351" stroke-width=".75591"/>
</g>
</g>
</svg>
