<?xml version="1.0" encoding="UTF-8" standalone="no"?>
<svg xmlns:inkscape="http://www.inkscape.org/namespaces/inkscape" xmlns:sodipodi="http://sodipodi.sourceforge.net/DTD/sodipodi-0.dtd" xmlns="http://www.w3.org/2000/svg" xmlns:svg="http://www.w3.org/2000/svg" width="861.82751" height="115.709" overflow="hidden" version="1.1" id="svg320" sodipodi:docname="Luminotherapie1.svg" inkscape:version="1.1.2 (b8e25be833, 2022-02-05)">
  <style>
    @import url("/static/opensans/OpenSans.css");
  </style>
  <defs id="defs92">
    <clipPath id="clip0">
      <rect x="0" y="0" width="960" height="720" id="rect2"></rect>
    </clipPath>
    <clipPath id="clip1">
      <rect x="242" y="-40" width="668" height="135" id="rect5"></rect>
    </clipPath>
    <clipPath id="clip2">
      <rect x="242" y="-67" width="668" height="269" id="rect8"></rect>
    </clipPath>
    <clipPath id="clip3">
      <rect x="242" y="-67" width="668" height="269" id="rect11"></rect>
    </clipPath>
    <clipPath id="clip4">
      <rect x="242" y="-17" width="668" height="270" id="rect14"></rect>
    </clipPath>
    <clipPath id="clip5">
      <rect x="242" y="-17" width="668" height="270" id="rect17"></rect>
    </clipPath>
    <clipPath id="clip6">
      <rect x="242" y="-76" width="668" height="538" id="rect20"></rect>
    </clipPath>
    <clipPath id="clip7">
      <rect x="242" y="-76" width="668" height="538" id="rect23"></rect>
    </clipPath>
    <clipPath id="clip8">
      <rect x="242" y="-76" width="668" height="538" id="rect26"></rect>
    </clipPath>
    <clipPath id="clip9">
      <rect x="242" y="-76" width="668" height="538" id="rect29"></rect>
    </clipPath>
    <clipPath id="clip10">
      <rect x="242" y="-76" width="668" height="538" id="rect32"></rect>
    </clipPath>
    <clipPath id="clip11">
      <rect x="244" y="313" width="669" height="673" id="rect35"></rect>
    </clipPath>
    <clipPath id="clip12">
      <rect x="244" y="313" width="669" height="673" id="rect38"></rect>
    </clipPath>
    <clipPath id="clip13">
      <rect x="244" y="313" width="669" height="673" id="rect41"></rect>
    </clipPath>
    <clipPath id="clip14">
      <rect x="244" y="313" width="669" height="673" id="rect44"></rect>
    </clipPath>
    <clipPath id="clip15">
      <rect x="244" y="313" width="669" height="673" id="rect47"></rect>
    </clipPath>
    <clipPath id="clip16">
      <rect x="243" y="211" width="668" height="135" id="rect50"></rect>
    </clipPath>
    <clipPath id="clip17">
      <rect x="49" y="284" width="195" height="136" id="rect53"></rect>
    </clipPath>
    <clipPath id="clip18">
      <rect x="243" y="16" width="668" height="673" id="rect56"></rect>
    </clipPath>
    <clipPath id="clip19">
      <rect x="243" y="16" width="668" height="673" id="rect59"></rect>
    </clipPath>
    <clipPath id="clip20">
      <rect x="243" y="16" width="668" height="673" id="rect62"></rect>
    </clipPath>
    <clipPath id="clip21">
      <rect x="243" y="16" width="668" height="673" id="rect65"></rect>
    </clipPath>
    <clipPath id="clip22">
      <rect x="243" y="16" width="668" height="673" id="rect68"></rect>
    </clipPath>
    <clipPath id="clip23">
      <rect x="243" y="354" width="668" height="136" id="rect71"></rect>
    </clipPath>
    <clipPath id="clip24">
      <rect x="243" y="212" width="668" height="539" id="rect74"></rect>
    </clipPath>
    <clipPath id="clip25">
      <rect x="243" y="212" width="668" height="539" id="rect77"></rect>
    </clipPath>
    <clipPath id="clip26">
      <rect x="243" y="212" width="668" height="539" id="rect80"></rect>
    </clipPath>
    <clipPath id="clip27">
      <rect x="243" y="212" width="668" height="539" id="rect83"></rect>
    </clipPath>
    <clipPath id="clip28">
      <rect x="243" y="415" width="668" height="270" id="rect86"></rect>
    </clipPath>
    <clipPath id="clip29">
      <rect x="243" y="415" width="668" height="270" id="rect89"></rect>
    </clipPath>
  </defs>
  <path d="M 0,0 H 194.3645 V 115.709 H 0 Z" fill="#f8ca00" fill-rule="evenodd" id="path186"></path>
  <path d="m 194.3645,0 h 667.463 v 115.709 h -667.463 z" fill="#f8ca00" fill-rule="evenodd" id="path188"></path>
  <path d="M 194.3645,0 V 115.709" stroke="#fed316" stroke-width="1.33333" stroke-linejoin="round" stroke-miterlimit="10" fill="none" fill-rule="evenodd" id="path190"></path>
  <text fill="#735e04" font-family="'Open Sans', 'Open Sans_MSFontService', sans-serif" font-weight="700" font-size="16px" id="text192" x="24.432301" y="62.953999">Effets secondaires</text>
  <g clip-path="url(#clip11)" id="g196" transform="translate(-50.4855,-592.046)">
    <text fill="#735e04" font-family="'Open Sans', 'Open Sans_MSFontService', sans-serif" font-weight="400" font-size="16px" transform="translate(250.117,617)" id="text194">Virage maniaque</text>
  </g>
  <g clip-path="url(#clip12)" id="g200" transform="translate(-50.4855,-592.046)">
    <text fill="#735e04" font-family="'Open Sans', 'Open Sans_MSFontService', sans-serif" font-weight="400" font-size="16px" transform="translate(250.117,636)" id="text198">Céphalées</text>
  </g>
  <g clip-path="url(#clip13)" id="g204" transform="translate(-50.4855,-592.046)">
    <text fill="#735e04" font-family="'Open Sans', 'Open Sans_MSFontService', sans-serif" font-weight="400" font-size="16px" transform="translate(250.117,655)" id="text202">Fatigue oculaire</text>
  </g>
  <g clip-path="url(#clip14)" id="g208" transform="translate(-50.4855,-592.046)">
    <text fill="#735e04" font-family="'Open Sans', 'Open Sans_MSFontService', sans-serif" font-weight="400" font-size="16px" transform="translate(250.117,675)" id="text206">Nausées</text>
  </g>
  <g clip-path="url(#clip15)" id="g212" transform="translate(-50.4855,-592.046)">
    <text fill="#735e04" font-family="'Open Sans', 'Open Sans_MSFontService', sans-serif" font-weight="400" font-size="16px" transform="translate(250.117,694)" id="text210">Agitation</text>
  </g>
</svg>
