<?xml version="1.0" encoding="UTF-8" standalone="no"?>
<svg
   width="1024px"
   height="1024px"
   viewBox="0 0 1024 1024"
   version="1.1"
   id="svg7"
   sodipodi:docname="goupile.svg"
   inkscape:version="1.2.2 (b0a8486541, 2022-12-01)"
   xmlns:inkscape="http://www.inkscape.org/namespaces/inkscape"
   xmlns:sodipodi="http://sodipodi.sourceforge.net/DTD/sodipodi-0.dtd"
   xmlns="http://www.w3.org/2000/svg"
   xmlns:svg="http://www.w3.org/2000/svg"
   xmlns:rdf="http://www.w3.org/1999/02/22-rdf-syntax-ns#"
   xmlns:cc="http://creativecommons.org/ns#"
   xmlns:dc="http://purl.org/dc/elements/1.1/">
  <metadata
     id="metadata13">
    <rdf:RDF>
      <cc:Work
         rdf:about="">
        <dc:format>image/svg+xml</dc:format>
        <dc:type
           rdf:resource="http://purl.org/dc/dcmitype/StillImage" />
      </cc:Work>
    </rdf:RDF>
  </metadata>
  <defs
     id="defs11" />
  <sodipodi:namedview
     pagecolor="#ffffff"
     bordercolor="#666666"
     borderopacity="1"
     objecttolerance="10"
     gridtolerance="10"
     guidetolerance="10"
     inkscape:pageopacity="0"
     inkscape:pageshadow="2"
     inkscape:window-width="1463"
     inkscape:window-height="921"
     id="namedview9"
     showgrid="false"
     inkscape:zoom="0.32593204"
     inkscape:cx="-559.93268"
     inkscape:cy="788.50794"
     inkscape:window-x="0"
     inkscape:window-y="0"
     inkscape:window-maximized="0"
     inkscape:current-layer="surface1"
     inkscape:showpageshadow="2"
     inkscape:pagecheckerboard="0"
     inkscape:deskcolor="#d1d1d1" />
  <g
     id="surface1">
    <path
       style="stroke:none;fill-rule:nonzero;fill:#2170b9;fill-opacity:1"
       d="M 506.113281 976.917969 C 542.898438 976.917969 873.929688 670.898438 873.929688 333.976562 L 873.929688 35.308594 L 665.011719 230.988281 C 564.964844 201.5625 447.265625 198.621094 347.21875 228.046875 L 138.300781 35.308594 L 138.300781 333.976562 C 138.300781 670.898438 469.332031 976.917969 506.113281 976.917969 Z M 506.113281 976.917969 "
       id="path2" />
    <path
       style="fill:#ffffff;fill-opacity:1;fill-rule:nonzero;stroke:none"
       d="m 506.11328,834.51953 c 16.39844,0 192.34109,-216.29295 192.34109,-366.48045 -40.90678,-7.14151 -79.63979,-16.88308 -105.64321,-30.01851 -28.65552,-14.47513 -83.63376,-71.31949 -87.86679,-71.31949 -4.83385,0 -61.57951,56.74407 -90.62022,72.54632 -24.35817,13.25429 -60.16095,22.86107 -97.47993,29.55872 0,150.1875 172.87453,365.71341 189.26906,365.71341 z"
       id="path4"
       inkscape:connector-curvature="0"
       sodipodi:nodetypes="scssscs" />
  </g>
</svg>
