<?xml version="1.0" encoding="UTF-8" standalone="no"?>
<svg
   zoomAndPan="magnify"
   viewBox="0 0 798.83795 360.13851"
   preserveAspectRatio="xMidYMid meet"
   version="1.0"
   id="svg5675"
   sodipodi:docname="activation1.svg"
   inkscape:version="1.1.2 (0a00cf5339, 2022-02-04)"
   width="798.83795"
   height="360.13852"
   xmlns:inkscape="http://www.inkscape.org/namespaces/inkscape"
   xmlns:sodipodi="http://sodipodi.sourceforge.net/DTD/sodipodi-0.dtd"
   xmlns="http://www.w3.org/2000/svg"
   xmlns:svg="http://www.w3.org/2000/svg">
  <sodipodi:namedview
     id="namedview5677"
     pagecolor="#ffffff"
     bordercolor="#666666"
     borderopacity="1.0"
     inkscape:pageshadow="2"
     inkscape:pageopacity="0.0"
     inkscape:pagecheckerboard="0"
     showgrid="false"
     fit-margin-top="0"
     fit-margin-left="2"
     fit-margin-right="0"
     fit-margin-bottom="0"
     inkscape:zoom="1.2162593"
     inkscape:cx="367.10922"
     inkscape:cy="259.40192"
     inkscape:window-width="1920"
     inkscape:window-height="1025"
     inkscape:window-x="1920"
     inkscape:window-y="0"
     inkscape:window-maximized="1"
     inkscape:current-layer="svg5675" />
  <defs
     id="defs25">
    <g
       id="g2" />
    <clipPath
       id="b875a954da">
      <path
         d="M 221.09375,285 H 323.73047 V 387.44141 H 221.09375 Z m 0,0"
         clip-rule="nonzero"
         id="path4" />
    </clipPath>
    <clipPath
       id="5ed589dad2">
      <path
         d="m 221.09375,285 h 102.63672 v 25 H 221.09375 Z m 0,0"
         clip-rule="nonzero"
         id="path7" />
    </clipPath>
    <clipPath
       id="b316847a52">
      <path
         d="m 234,278.06641 h 7 V 292 h -7 z m 0,0"
         clip-rule="nonzero"
         id="path10" />
    </clipPath>
    <clipPath
       id="15550a02cb">
      <path
         d="m 244,278.06641 h 7 V 292 h -7 z m 0,0"
         clip-rule="nonzero"
         id="path13" />
    </clipPath>
    <clipPath
       id="0dfeb2f02e">
      <path
         d="m 293,278.06641 h 6 V 292 h -6 z m 0,0"
         clip-rule="nonzero"
         id="path16" />
    </clipPath>
    <clipPath
       id="505cc9a227">
      <path
         d="m 303,278.06641 h 6 V 292 h -6 z m 0,0"
         clip-rule="nonzero"
         id="path19" />
    </clipPath>
    <clipPath
       id="dc5f52d407">
      <path
         d="M 511.12109,23.53125 H 834.52734 V 422.69922 H 511.12109 Z m 0,0"
         clip-rule="nonzero"
         id="path22" />
    </clipPath>
  </defs>
  <g
     id="g5621"
     transform="translate(3.1852473,3.9999993)">
    <g
       clip-path="url(#b875a954da)"
       id="g29"
       transform="matrix(0.72817321,0,0,0.72817321,14.231149,39.065732)">
      <path
         fill="#d9d9d9"
         d="m 318.71094,387.44531 h -92.59766 c -2.75391,0 -4.98437,-2.22656 -4.98437,-4.97265 v -92.3711 c 0,-2.74609 2.23046,-4.97265 4.98437,-4.97265 h 92.59375 c 2.75391,0 4.98828,2.22656 4.98828,4.97265 v 92.3711 c 0,2.74609 -2.23047,4.97265 -4.98437,4.97265 z m 0,0"
         fill-opacity="1"
         fill-rule="nonzero"
         id="path27" />
    </g>
    <g
       clip-path="url(#5ed589dad2)"
       id="g33"
       transform="matrix(0.72817321,0,0,0.72817321,14.231149,39.065732)">
      <path
         fill="#ec9d36"
         d="m 323.69531,309.97656 h -102.5664 v -19.875 c 0,-2.74609 2.23437,-4.97265 4.98828,-4.97265 h 92.59375 c 2.7539,0 4.98437,2.22656 4.98437,4.97265 z m 0,0"
         fill-opacity="1"
         fill-rule="nonzero"
         id="path31" />
    </g>
    <g
       clip-path="url(#b316847a52)"
       id="g37"
       transform="matrix(0.72817321,0,0,0.72817321,14.231149,39.065732)">
      <path
         fill="#3d3d3d"
         d="m 238.86719,291.70703 h -2.4961 c -0.83593,0 -1.51953,-0.67969 -1.51953,-1.51953 v -10.60938 c 0,-0.83593 0.6836,-1.51562 1.51953,-1.51562 h 2.4961 c 0.83984,0 1.51953,0.67969 1.51953,1.51562 v 10.60938 c 0,0.83984 -0.67969,1.51953 -1.51953,1.51953 z m 0,0"
         fill-opacity="1"
         fill-rule="nonzero"
         id="path35" />
    </g>
    <g
       clip-path="url(#15550a02cb)"
       id="g41"
       transform="matrix(0.72817321,0,0,0.72817321,14.231149,39.065732)">
      <path
         fill="#3d3d3d"
         d="m 248.61328,291.70703 h -2.49609 c -0.83985,0 -1.51953,-0.67969 -1.51953,-1.51953 v -10.60938 c 0,-0.83593 0.67968,-1.51562 1.51953,-1.51562 h 2.49609 c 0.83594,0 1.51953,0.67969 1.51953,1.51562 v 10.60938 c 0,0.83984 -0.68359,1.51953 -1.51953,1.51953 z m 0,0"
         fill-opacity="1"
         fill-rule="nonzero"
         id="path39" />
    </g>
    <g
       clip-path="url(#0dfeb2f02e)"
       id="g45"
       transform="matrix(0.72817321,0,0,0.72817321,14.231149,39.065732)">
      <path
         fill="#3d3d3d"
         d="m 297.33594,291.70703 h -2.4961 c -0.83593,0 -1.51953,-0.67969 -1.51953,-1.51953 v -10.60938 c 0,-0.83593 0.6836,-1.51562 1.51953,-1.51562 h 2.4961 c 0.83984,0 1.51953,0.67969 1.51953,1.51562 v 10.60938 c 0,0.83984 -0.67969,1.51953 -1.51953,1.51953 z m 0,0"
         fill-opacity="1"
         fill-rule="nonzero"
         id="path43" />
    </g>
    <g
       clip-path="url(#505cc9a227)"
       id="g49"
       transform="matrix(0.72817321,0,0,0.72817321,14.231149,39.065732)">
      <path
         fill="#3d3d3d"
         d="m 307.08203,291.70703 h -2.49609 c -0.83985,0 -1.51953,-0.67969 -1.51953,-1.51953 v -10.60938 c 0,-0.83593 0.67968,-1.51562 1.51953,-1.51562 h 2.49609 c 0.83594,0 1.51953,0.67969 1.51953,1.51562 v 10.60938 c 0,0.83984 -0.67969,1.51953 -1.51953,1.51953 z m 0,0"
         fill-opacity="1"
         fill-rule="nonzero"
         id="path47" />
    </g>
    <path
       fill="#bababa"
       d="m 188.61441,276.7574 h -6.56494 c -0.59448,0 -1.07519,-0.48071 -1.07519,-1.07235 v -6.54787 c 0,-0.59164 0.48071,-1.07519 1.07519,-1.07519 h 6.56494 c 0.59165,0 1.0752,0.4807 1.0752,1.07519 v 6.54787 c 0,0.59164 -0.48071,1.07235 -1.0752,1.07235 z m 0,0"
       fill-opacity="1"
       fill-rule="nonzero"
       id="path51"
       style="stroke-width:0.728173" />
    <path
       fill="#bababa"
       d="m 199.71052,276.7574 h -6.56209 c -0.59449,0 -1.07519,-0.48071 -1.07519,-1.07235 v -6.54787 c 0,-0.59164 0.4807,-1.07519 1.07519,-1.07519 h 6.56209 c 0.59449,0 1.07519,0.4807 1.07519,1.07519 v 6.54787 c 0,0.59164 -0.4807,1.07235 -1.07519,1.07235 z m 0,0"
       fill-opacity="1"
       fill-rule="nonzero"
       id="path53"
       style="stroke-width:0.728173" />
    <path
       fill="#bababa"
       d="m 210.80948,276.7574 h -6.56494 c -0.59164,0 -1.0752,-0.48071 -1.0752,-1.07235 v -6.54787 c 0,-0.59164 0.48072,-1.07519 1.0752,-1.07519 h 6.56494 c 0.59164,0 1.07519,0.4807 1.07519,1.07519 v 6.54787 c -0.003,0.59164 -0.48355,1.07235 -1.07519,1.07235 z m 0,0"
       fill-opacity="1"
       fill-rule="nonzero"
       id="path55"
       style="stroke-width:0.728173" />
    <path
       fill="#bababa"
       d="m 221.90558,276.7574 h -6.56494 c -0.59164,0 -1.07519,-0.48071 -1.07519,-1.07235 v -6.54787 c 0,-0.59164 0.48071,-1.07519 1.07519,-1.07519 h 6.56494 c 0.59448,0 1.0752,0.4807 1.0752,1.07519 v 6.54787 c 0,0.59164 -0.48072,1.07235 -1.0752,1.07235 z m 0,0"
       fill-opacity="1"
       fill-rule="nonzero"
       id="path57"
       style="stroke-width:0.728173" />
    <path
       fill="#bababa"
       d="m 233.00169,276.7574 h -6.56209 c -0.59449,0 -1.07519,-0.48071 -1.07519,-1.07235 v -6.54787 c 0,-0.59164 0.4807,-1.07519 1.07519,-1.07519 h 6.56209 c 0.59449,0 1.07519,0.4807 1.07519,1.07519 v 6.54787 c 0,0.59164 -0.4807,1.07235 -1.07519,1.07235 z m 0,0"
       fill-opacity="1"
       fill-rule="nonzero"
       id="path59"
       style="stroke-width:0.728173" />
    <path
       fill="#bababa"
       d="m 244.10065,276.7574 h -6.56494 c -0.59165,0 -1.0752,-0.48071 -1.0752,-1.07235 v -6.54787 c 0,-0.59164 0.48071,-1.07519 1.0752,-1.07519 h 6.56494 c 0.59164,0 1.07519,0.4807 1.07519,1.07519 v 6.54787 c 0,0.59164 -0.48355,1.07235 -1.07519,1.07235 z m 0,0"
       fill-opacity="1"
       fill-rule="nonzero"
       id="path61"
       style="stroke-width:0.728173" />
    <path
       fill="#bababa"
       d="m 188.61441,287.51787 h -6.56494 c -0.59448,0 -1.07519,-0.47787 -1.07519,-1.07236 v -6.54787 c 0,-0.59164 0.48071,-1.07234 1.07519,-1.07234 h 6.56494 c 0.59165,0 1.0752,0.4807 1.0752,1.07234 v 6.54787 c 0,0.59165 -0.48071,1.07236 -1.0752,1.07236 z m 0,0"
       fill-opacity="1"
       fill-rule="nonzero"
       id="path63"
       style="stroke-width:0.728173" />
    <path
       fill="#bababa"
       d="m 199.71052,287.51787 h -6.56209 c -0.59449,0 -1.07519,-0.47787 -1.07519,-1.07236 v -6.54787 c 0,-0.59164 0.4807,-1.07234 1.07519,-1.07234 h 6.56209 c 0.59449,0 1.07519,0.4807 1.07519,1.07234 v 6.54787 c 0,0.59165 -0.4807,1.07236 -1.07519,1.07236 z m 0,0"
       fill-opacity="1"
       fill-rule="nonzero"
       id="path65"
       style="stroke-width:0.728173" />
    <path
       fill="#bababa"
       d="m 210.80948,287.51787 h -6.56494 c -0.59164,0 -1.0752,-0.47787 -1.0752,-1.07236 v -6.54787 c 0,-0.59164 0.48072,-1.07234 1.0752,-1.07234 h 6.56494 c 0.59164,0 1.07519,0.4807 1.07519,1.07234 v 6.54787 c -0.003,0.59165 -0.48355,1.07236 -1.07519,1.07236 z m 0,0"
       fill-opacity="1"
       fill-rule="nonzero"
       id="path67"
       style="stroke-width:0.728173" />
    <path
       fill="#bababa"
       d="m 221.90558,287.51787 h -6.56494 c -0.59164,0 -1.07519,-0.47787 -1.07519,-1.07236 v -6.54787 c 0,-0.59164 0.48071,-1.07234 1.07519,-1.07234 h 6.56494 c 0.59448,0 1.0752,0.4807 1.0752,1.07234 v 6.54787 c 0,0.59165 -0.48072,1.07236 -1.0752,1.07236 z m 0,0"
       fill-opacity="1"
       fill-rule="nonzero"
       id="path69"
       style="stroke-width:0.728173" />
    <path
       fill="#bababa"
       d="m 233.00169,287.51787 h -6.56209 c -0.59449,0 -1.07519,-0.47787 -1.07519,-1.07236 v -6.54787 c 0,-0.59164 0.4807,-1.07234 1.07519,-1.07234 h 6.56209 c 0.59449,0 1.07519,0.4807 1.07519,1.07234 v 6.54787 c 0,0.59165 -0.4807,1.07236 -1.07519,1.07236 z m 0,0"
       fill-opacity="1"
       fill-rule="nonzero"
       id="path71"
       style="stroke-width:0.728173" />
    <path
       fill="#bababa"
       d="m 244.10065,287.51787 h -6.56494 c -0.59165,0 -1.0752,-0.47787 -1.0752,-1.07236 v -6.54787 c 0,-0.59164 0.48071,-1.07234 1.0752,-1.07234 h 6.56494 c 0.59164,0 1.07519,0.4807 1.07519,1.07234 v 6.54787 c 0,0.59165 -0.48355,1.07236 -1.07519,1.07236 z m 0,0"
       fill-opacity="1"
       fill-rule="nonzero"
       id="path73"
       style="stroke-width:0.728173" />
    <path
       fill="#bababa"
       d="m 188.61441,298.28118 h -6.56494 c -0.59448,0 -1.07519,-0.48071 -1.07519,-1.0752 v -6.54787 c 0,-0.59164 0.48071,-1.07235 1.07519,-1.07235 h 6.56494 c 0.59165,0 1.0752,0.48071 1.0752,1.07235 v 6.54787 c 0,0.59449 -0.48071,1.0752 -1.0752,1.0752 z m 0,0"
       fill-opacity="1"
       fill-rule="nonzero"
       id="path75"
       style="stroke-width:0.728173" />
    <path
       fill="#bababa"
       d="m 199.71052,298.28118 h -6.56209 c -0.59449,0 -1.07519,-0.48071 -1.07519,-1.0752 v -6.54787 c 0,-0.59164 0.4807,-1.07235 1.07519,-1.07235 h 6.56209 c 0.59449,0 1.07519,0.48071 1.07519,1.07235 v 6.54787 c 0,0.59449 -0.4807,1.0752 -1.07519,1.0752 z m 0,0"
       fill-opacity="1"
       fill-rule="nonzero"
       id="path77"
       style="stroke-width:0.728173" />
    <path
       fill="#bababa"
       d="m 210.80948,298.28118 h -6.56494 c -0.59164,0 -1.0752,-0.48071 -1.0752,-1.0752 v -6.54787 c 0,-0.59164 0.48072,-1.07235 1.0752,-1.07235 h 6.56494 c 0.59164,0 1.07519,0.48071 1.07519,1.07235 v 6.54787 c -0.003,0.59449 -0.48355,1.0752 -1.07519,1.0752 z m 0,0"
       fill-opacity="1"
       fill-rule="nonzero"
       id="path79"
       style="stroke-width:0.728173" />
    <path
       fill="#bababa"
       d="m 221.90558,298.28118 h -6.56494 c -0.59164,0 -1.07519,-0.48071 -1.07519,-1.0752 v -6.54787 c 0,-0.59164 0.48071,-1.07235 1.07519,-1.07235 h 6.56494 c 0.59448,0 1.0752,0.48071 1.0752,1.07235 v 6.54787 c 0,0.59449 -0.48072,1.0752 -1.0752,1.0752 z m 0,0"
       fill-opacity="1"
       fill-rule="nonzero"
       id="path81"
       style="stroke-width:0.728173" />
    <path
       fill="#bababa"
       d="m 233.00169,298.28118 h -6.56209 c -0.59449,0 -1.07519,-0.48071 -1.07519,-1.0752 v -6.54787 c 0,-0.59164 0.4807,-1.07235 1.07519,-1.07235 h 6.56209 c 0.59449,0 1.07519,0.48071 1.07519,1.07235 v 6.54787 c 0,0.59449 -0.4807,1.0752 -1.07519,1.0752 z m 0,0"
       fill-opacity="1"
       fill-rule="nonzero"
       id="path83"
       style="stroke-width:0.728173" />
    <path
       fill="#bababa"
       d="m 244.10065,298.28118 h -6.56494 c -0.59165,0 -1.0752,-0.48071 -1.0752,-1.0752 v -6.54787 c 0,-0.59164 0.48071,-1.07235 1.0752,-1.07235 h 6.56494 c 0.59164,0 1.07519,0.48071 1.07519,1.07235 v 6.54787 c 0,0.59449 -0.48355,1.0752 -1.07519,1.0752 z m 0,0"
       fill-opacity="1"
       fill-rule="nonzero"
       id="path85"
       style="stroke-width:0.728173" />
    <path
       fill="#bababa"
       d="m 188.61441,309.63328 h -6.56494 c -0.59448,0 -1.07519,-0.47786 -1.07519,-1.07234 v -6.54788 c 0,-0.59164 0.48071,-1.07235 1.07519,-1.07235 h 6.56494 c 0.59165,0 1.0752,0.47787 1.0752,1.07235 v 6.54788 c 0,0.59448 -0.48071,1.07234 -1.0752,1.07234 z m 0,0"
       fill-opacity="1"
       fill-rule="nonzero"
       id="path87"
       style="stroke-width:0.728173" />
    <path
       fill="#bababa"
       d="m 199.71052,309.63328 h -6.56209 c -0.59449,0 -1.07519,-0.47786 -1.07519,-1.07234 v -6.54788 c 0,-0.59164 0.4807,-1.07235 1.07519,-1.07235 h 6.56209 c 0.59449,0 1.07519,0.47787 1.07519,1.07235 v 6.54788 c 0,0.59448 -0.4807,1.07234 -1.07519,1.07234 z m 0,0"
       fill-opacity="1"
       fill-rule="nonzero"
       id="path89"
       style="stroke-width:0.728173" />
    <path
       fill="#bababa"
       d="m 210.80948,309.63328 h -6.56494 c -0.59164,0 -1.0752,-0.47786 -1.0752,-1.07234 v -6.54788 c 0,-0.59164 0.48072,-1.07235 1.0752,-1.07235 h 6.56494 c 0.59164,0 1.07519,0.47787 1.07519,1.07235 v 6.54788 c -0.003,0.59448 -0.48355,1.07234 -1.07519,1.07234 z m 0,0"
       fill-opacity="1"
       fill-rule="nonzero"
       id="path91"
       style="stroke-width:0.728173" />
    <path
       fill="#bababa"
       d="m 221.90558,309.63328 h -6.56494 c -0.59164,0 -1.07519,-0.47786 -1.07519,-1.07234 v -6.54788 c 0,-0.59164 0.48071,-1.07235 1.07519,-1.07235 h 6.56494 c 0.59448,0 1.0752,0.47787 1.0752,1.07235 v 6.54788 c 0,0.59448 -0.48072,1.07234 -1.0752,1.07234 z m 0,0"
       fill-opacity="1"
       fill-rule="nonzero"
       id="path93"
       style="stroke-width:0.728173" />
    <path
       fill="#bababa"
       d="m 233.00169,309.63328 h -6.56209 c -0.59449,0 -1.07519,-0.47786 -1.07519,-1.07234 v -6.54788 c 0,-0.59164 0.4807,-1.07235 1.07519,-1.07235 h 6.56209 c 0.59449,0 1.07519,0.47787 1.07519,1.07235 v 6.54788 c 0,0.59448 -0.4807,1.07234 -1.07519,1.07234 z m 0,0"
       fill-opacity="1"
       fill-rule="nonzero"
       id="path95"
       style="stroke-width:0.728173" />
    <path
       fill="#bababa"
       d="m 244.10065,309.63328 h -6.56494 c -0.59165,0 -1.0752,-0.47786 -1.0752,-1.07234 v -6.54788 c 0,-0.59164 0.48071,-1.07235 1.0752,-1.07235 h 6.56494 c 0.59164,0 1.07519,0.47787 1.07519,1.07235 v 6.54788 c 0,0.59448 -0.48355,1.07234 -1.07519,1.07234 z m 0,0"
       fill-opacity="1"
       fill-rule="nonzero"
       id="path97"
       style="stroke-width:0.728173" />
  </g>
  <g
     clip-path="url(#dc5f52d407)"
     id="g101"
     transform="matrix(1.1346584,0,0,0.90222302,-147.96357,-21.230435)">
    <path
       fill="#4d9290"
       d="M 511.12109,23.53125 H 834.4375 V 422.79687 H 511.12109 Z m 0,0"
       fill-opacity="1"
       fill-rule="nonzero"
       id="path99" />
  </g>
  <path
     fill="#ffffff"
     d="m 457.49623,75.585938 c 0,0.347656 -0.0664,0.679687 -0.19922,1.003902 -0.13281,0.32032 -0.32031,0.60547 -0.56641,0.84766 -0.24609,0.24609 -0.53125,0.4375 -0.85156,0.57031 -0.32031,0.13282 -0.65625,0.19922 -1.00391,0.19922 -0.34765,0 -0.68359,-0.0664 -1.0039,-0.19922 -0.32032,-0.13281 -0.60547,-0.32422 -0.85157,-0.57031 -0.24609,-0.24219 -0.43359,-0.52734 -0.5664,-0.84766 -0.13281,-0.324215 -0.19922,-0.656246 -0.19922,-1.003902 0,-0.347657 0.0664,-0.683594 0.19922,-1.003907 0.13281,-0.320312 0.32031,-0.605469 0.5664,-0.851562 0.2461,-0.246094 0.53125,-0.433594 0.85157,-0.566407 0.32031,-0.132812 0.65625,-0.199218 1.0039,-0.199218 0.34766,0 0.6836,0.06641 1.00391,0.199218 0.32031,0.132813 0.60547,0.320313 0.85156,0.566407 0.2461,0.246093 0.4336,0.53125 0.56641,0.851562 0.13281,0.320313 0.19922,0.65625 0.19922,1.003907 z m 0,0"
     fill-opacity="1"
     fill-rule="nonzero"
     id="path151" />
  <g
     fill="#ffffff"
     fill-opacity="1"
     id="g213"
     transform="translate(-48.245959,-23.53125)">
    <g
       transform="translate(595.92909,104.06935)"
       id="g211">
      <g
         id="g209" />
    </g>
  </g>
  <g
     fill="#ffffff"
     fill-opacity="1"
     id="g243"
     transform="translate(-48.245959,-23.53125)">
    <g
       transform="translate(620.69402,104.06935)"
       id="g241">
      <g
         id="g239" />
    </g>
  </g>
  <g
     fill="#ffffff"
     fill-opacity="1"
     id="g353"
     transform="translate(-48.245959,-23.53125)">
    <g
       transform="translate(744.36267,104.06935)"
       id="g351">
      <g
         id="g349" />
    </g>
  </g>
  <g
     fill="#ffffff"
     fill-opacity="1"
     id="g375"
     transform="translate(-48.245959,-23.53125)">
    <g
       transform="translate(763.10791,104.06935)"
       id="g373">
      <g
         id="g371" />
    </g>
  </g>
  <g
     fill="#ffffff"
     fill-opacity="1"
     id="g397"
     transform="translate(-48.245959,-23.53125)">
    <g
       transform="translate(780.25467,104.06935)"
       id="g395">
      <g
         id="g393" />
    </g>
  </g>
  <g
     fill="#ffffff"
     fill-opacity="1"
     id="g459"
     transform="translate(-48.245959,-23.53125)">
    <g
       transform="translate(559.59265,126.21154)"
       id="g457">
      <g
         id="g455" />
    </g>
  </g>
  <g
     fill="#ffffff"
     fill-opacity="1"
     id="g489"
     transform="translate(-48.245959,-23.53125)">
    <g
       transform="translate(584.73965,126.21154)"
       id="g487">
      <g
         id="g485" />
    </g>
  </g>
  <g
     fill="#ffffff"
     fill-opacity="1"
     id="g543"
     transform="translate(-48.245959,-23.53125)">
    <g
       transform="translate(633.80945,126.21154)"
       id="g541">
      <g
         id="g539" />
    </g>
  </g>
  <g
     fill="#ffffff"
     fill-opacity="1"
     id="g565"
     transform="translate(-48.245959,-23.53125)">
    <g
       transform="translate(657.5451,126.21154)"
       id="g563">
      <g
         id="g561" />
    </g>
  </g>
  <g
     fill="#ffffff"
     fill-opacity="1"
     id="g627"
     transform="translate(-48.245959,-23.53125)">
    <g
       transform="translate(714.4358,126.21154)"
       id="g625">
      <g
         id="g623" />
    </g>
  </g>
  <g
     fill="#ffffff"
     fill-opacity="1"
     id="g649"
     transform="translate(-48.245959,-23.53125)">
    <g
       transform="translate(733.18104,126.21154)"
       id="g647">
      <g
         id="g645" />
    </g>
  </g>
  <g
     fill="#ffffff"
     fill-opacity="1"
     id="g711"
     transform="translate(-48.245959,-23.53125)">
    <g
       transform="translate(789.28421,126.21154)"
       id="g709">
      <g
         id="g707" />
    </g>
  </g>
  <g
     fill="#ffffff"
     fill-opacity="1"
     id="g837"
     transform="translate(-48.245959,-23.53125)">
    <g
       transform="translate(634.33189,148.35372)"
       id="g835">
      <g
         id="g833" />
    </g>
  </g>
  <g
     fill="#ffffff"
     fill-opacity="1"
     id="g955"
     transform="translate(-48.245959,-23.53125)">
    <g
       transform="translate(746.74097,148.35372)"
       id="g953">
      <g
         id="g951" />
    </g>
  </g>
  <g
     fill="#ffffff"
     fill-opacity="1"
     id="g1137"
     transform="translate(-48.245959,-23.53125)">
    <g
       transform="translate(638.97921,170.49591)"
       id="g1135">
      <g
         id="g1133" />
    </g>
  </g>
  <path
     fill="#ffffff"
     d="m 457.49623,175.47656 c 0,0.34766 -0.0664,0.6836 -0.19922,1.00391 -0.13281,0.32031 -0.32031,0.60547 -0.56641,0.85156 -0.24609,0.24609 -0.53125,0.43359 -0.85156,0.56641 -0.32031,0.13281 -0.65625,0.19922 -1.00391,0.19922 -0.34765,0 -0.68359,-0.0664 -1.0039,-0.19922 -0.32032,-0.13282 -0.60547,-0.32032 -0.85157,-0.56641 -0.24609,-0.24609 -0.43359,-0.53125 -0.5664,-0.85156 -0.13281,-0.32031 -0.19922,-0.65625 -0.19922,-1.00391 0,-0.34765 0.0664,-0.68359 0.19922,-1.0039 0.13281,-0.32032 0.32031,-0.60547 0.5664,-0.85157 0.2461,-0.24218 0.53125,-0.43359 0.85157,-0.5664 0.32031,-0.13282 0.65625,-0.19922 1.0039,-0.19922 0.34766,0 0.6836,0.0664 1.00391,0.19922 0.32031,0.13281 0.60547,0.32422 0.85156,0.5664 0.2461,0.2461 0.4336,0.53125 0.56641,0.85157 0.13281,0.32031 0.19922,0.65625 0.19922,1.0039 z m 0,0"
     fill-opacity="1"
     fill-rule="nonzero"
     id="path1203" />
  <g
     fill="#ffffff"
     fill-opacity="1"
     id="g1273"
     transform="translate(-48.245959,-23.53125)">
    <g
       transform="translate(609.64493,201.96112)"
       id="g1271">
      <g
         id="g1269" />
    </g>
  </g>
  <g
     fill="#ffffff"
     fill-opacity="1"
     id="g1295"
     transform="translate(-48.245959,-23.53125)">
    <g
       transform="translate(626.79168,201.96112)"
       id="g1293">
      <g
         id="g1291" />
    </g>
  </g>
  <g
     fill="#ffffff"
     fill-opacity="1"
     id="g1341"
     transform="translate(-48.245959,-23.53125)">
    <g
       transform="translate(673.9121,201.96112)"
       id="g1339">
      <g
         id="g1337" />
    </g>
  </g>
  <g
     fill="#ffffff"
     fill-opacity="1"
     id="g1531"
     transform="translate(-48.245959,-23.53125)">
    <g
       transform="translate(608.03864,224.10331)"
       id="g1529">
      <g
         id="g1527" />
    </g>
  </g>
  <g
     fill="#ffffff"
     fill-opacity="1"
     id="g1561"
     transform="translate(-48.245959,-23.53125)">
    <g
       transform="translate(632.80357,224.10331)"
       id="g1559">
      <g
         id="g1557" />
    </g>
  </g>
  <path
     fill="#ffffff"
     d="m 457.49623,235.22656 c 0,0.34766 -0.0664,0.6836 -0.19922,1.00391 -0.13281,0.32031 -0.32031,0.60547 -0.56641,0.85156 -0.24609,0.24609 -0.53125,0.43359 -0.85156,0.56641 -0.32031,0.13281 -0.65625,0.19922 -1.00391,0.19922 -0.34765,0 -0.68359,-0.0664 -1.0039,-0.19922 -0.32032,-0.13282 -0.60547,-0.32032 -0.85157,-0.56641 -0.24609,-0.24609 -0.43359,-0.53125 -0.5664,-0.85156 -0.13281,-0.32031 -0.19922,-0.65625 -0.19922,-1.00391 0,-0.34765 0.0664,-0.68359 0.19922,-1.0039 0.13281,-0.32032 0.32031,-0.60547 0.5664,-0.85157 0.2461,-0.24609 0.53125,-0.43359 0.85157,-0.5664 0.32031,-0.13282 0.65625,-0.19922 1.0039,-0.19922 0.34766,0 0.6836,0.0664 1.00391,0.19922 0.32031,0.13281 0.60547,0.32031 0.85156,0.5664 0.2461,0.2461 0.4336,0.53125 0.56641,0.85157 0.13281,0.32031 0.19922,0.65625 0.19922,1.0039 z m 0,0"
     fill-opacity="1"
     fill-rule="nonzero"
     id="path1755" />
  <g
     fill="#ffffff"
     fill-opacity="1"
     id="g1825"
     transform="translate(-48.245959,-23.53125)">
    <g
       transform="translate(593.32472,277.7107)"
       id="g1823">
      <g
         id="g1821" />
    </g>
  </g>
  <g
     fill="#ffffff"
     fill-opacity="1"
     id="g1855"
     transform="translate(-48.245959,-23.53125)">
    <g
       transform="translate(626.03532,277.7107)"
       id="g1853">
      <g
         id="g1851" />
    </g>
  </g>
  <g
     fill="#ffffff"
     fill-opacity="1"
     id="g1909"
     transform="translate(-48.245959,-23.53125)">
    <g
       transform="translate(666.52785,277.7107)"
       id="g1907">
      <g
         id="g1905" />
    </g>
  </g>
  <g
     fill="#ffffff"
     fill-opacity="1"
     id="g2083"
     transform="translate(-48.245959,-23.53125)">
    <g
       transform="translate(567.21082,299.85289)"
       id="g2081">
      <g
         id="g2079" />
    </g>
  </g>
  <g
     fill="#ffffff"
     fill-opacity="1"
     id="g2161"
     transform="translate(-48.245959,-23.53125)">
    <g
       transform="translate(631.7743,299.85289)"
       id="g2159">
      <g
         id="g2157" />
    </g>
  </g>
  <g
     fill="#ffffff"
     fill-opacity="1"
     id="g2263"
     transform="translate(-48.245959,-23.53125)">
    <g
       transform="translate(733.79702,299.85289)"
       id="g2261">
      <g
         id="g2259" />
    </g>
  </g>
  <g
     fill="#ffffff"
     fill-opacity="1"
     id="g2317"
     transform="translate(-48.245959,-23.53125)">
    <g
       transform="translate(786.71098,299.85289)"
       id="g2315">
      <g
         id="g2313" />
    </g>
  </g>
  <g
     fill="#ffffff"
     fill-opacity="1"
     id="g2395"
     transform="translate(-48.245959,-23.53125)">
    <g
       transform="translate(589.6131,321.99507)"
       id="g2393">
      <g
         id="g2391" />
    </g>
  </g>
  <g
     fill="#ffffff"
     fill-opacity="1"
     id="g2409"
     transform="translate(-48.245959,-23.53125)">
    <g
       transform="translate(602.64276,321.99507)"
       id="g2407">
      <g
         id="g2405" />
    </g>
  </g>
  <g
     fill="#ffffff"
     fill-opacity="1"
     id="g2471"
     transform="translate(-48.245959,-23.53125)">
    <g
       transform="translate(661.50625,321.99507)"
       id="g2469">
      <g
         id="g2467" />
    </g>
  </g>
  <g
     fill="#ffffff"
     fill-opacity="1"
     id="g2509"
     transform="translate(-48.245959,-23.53125)">
    <g
       transform="translate(700.33788,321.99507)"
       id="g2507">
      <g
         id="g2505" />
    </g>
  </g>
  <g
     fill="#ffffff"
     fill-opacity="1"
     id="g2555"
     transform="translate(-48.245959,-23.53125)">
    <g
       transform="translate(749.87553,321.99507)"
       id="g2553">
      <g
         id="g2551" />
    </g>
  </g>
  <path
     fill="#ffffff"
     d="m 457.49623,314.76946 c 0,0.34765 -0.0664,0.68359 -0.19922,1.0039 -0.13281,0.32032 -0.32031,0.60547 -0.56641,0.85157 -0.24609,0.24609 -0.53125,0.43359 -0.85156,0.5664 -0.32031,0.13672 -0.65625,0.20313 -1.00391,0.20313 -0.34765,0 -0.68359,-0.0664 -1.0039,-0.20313 -0.32032,-0.13281 -0.60547,-0.32031 -0.85157,-0.5664 -0.24609,-0.2461 -0.43359,-0.53125 -0.5664,-0.85157 -0.13281,-0.32031 -0.19922,-0.65625 -0.19922,-1.0039 0,-0.34766 0.0664,-0.67969 0.19922,-1.00391 0.13281,-0.32031 0.32031,-0.60156 0.5664,-0.84766 0.2461,-0.24609 0.53125,-0.4375 0.85157,-0.57031 0.32031,-0.13281 0.65625,-0.19922 1.0039,-0.19922 0.34766,0 0.6836,0.0664 1.00391,0.19922 0.32031,0.13281 0.60547,0.32422 0.85156,0.57031 0.2461,0.2461 0.4336,0.52735 0.56641,0.84766 0.13281,0.32422 0.19922,0.65625 0.19922,1.00391 z m 0,0"
     fill-opacity="1"
     fill-rule="nonzero"
     id="path2645" />
  <g
     fill="#ffffff"
     fill-opacity="1"
     id="g2715"
     transform="translate(-48.245959,-23.53125)">
    <g
       transform="translate(599.73428,375.60247)"
       id="g2713">
      <g
         id="g2711" />
    </g>
  </g>
  <g
     fill="#ffffff"
     fill-opacity="1"
     id="g2793"
     transform="translate(-48.245959,-23.53125)">
    <g
       transform="translate(667.68188,375.60247)"
       id="g2791">
      <g
         id="g2789" />
    </g>
  </g>
  <g
     fill="#ffffff"
     fill-opacity="1"
     id="g2903"
     transform="translate(-48.245959,-23.53125)">
    <g
       transform="translate(769.21338,375.60247)"
       id="g2901">
      <g
         id="g2899" />
    </g>
  </g>
  <g
     fill="#ffffff"
     fill-opacity="1"
     id="g2965"
     transform="translate(-48.245959,-23.53125)">
    <g
       transform="translate(582.22885,397.74466)"
       id="g2963">
      <g
         id="g2961" />
    </g>
  </g>
  <g
     fill="#ffffff"
     fill-opacity="1"
     id="g2987"
     transform="translate(-48.245959,-23.53125)">
    <g
       transform="translate(605.12237,397.74466)"
       id="g2985">
      <g
         id="g2983" />
    </g>
  </g>
  <g
     fill="#ffffff"
     fill-opacity="1"
     id="g3017"
     transform="translate(-48.245959,-23.53125)">
    <g
       transform="translate(633.45077,397.74466)"
       id="g3015">
      <g
         id="g3013" />
    </g>
  </g>
  <path
     fill="#383838"
     d="m 8.742187,24.392512 c 0,0.449219 -0.08594,0.878906 -0.257812,1.292969 -0.171875,0.410156 -0.414063,0.777343 -0.730469,1.09375 -0.316406,0.3125 -0.679687,0.558593 -1.09375,0.730469 -0.414063,0.167968 -0.84375,0.253906 -1.289063,0.253906 -0.449218,0 -0.878906,-0.08594 -1.292968,-0.253906 C 3.667969,27.337824 3.300781,27.091731 2.984375,26.779231 2.667969,26.462824 2.425781,26.095637 2.253906,25.685481 2.082031,25.271418 2,24.841731 2,24.392512 2,23.9472 2.08203,23.517512 2.253906,23.10345 2.425781,22.689387 2.667969,22.326106 2.984375,22.0097 c 0.316406,-0.316407 0.683594,-0.558594 1.09375,-0.730469 0.414062,-0.171875 0.84375,-0.257813 1.292968,-0.257813 0.445313,0 0.875,0.08594 1.289063,0.257813 0.414063,0.171875 0.777344,0.414062 1.09375,0.730469 0.316406,0.316406 0.558594,0.679687 0.730469,1.09375 0.171875,0.414062 0.257812,0.84375 0.257812,1.289062 z m 0,0"
     fill-opacity="1"
     fill-rule="nonzero"
     id="path3075" />
  <g
     fill="#383838"
     fill-opacity="1"
     id="g3113"
     transform="translate(-48.245959,-23.53125)">
    <g
       transform="translate(110.95166,53.493886)"
       id="g3111">
      <g
         id="g3109" />
    </g>
  </g>
  <g
     fill="#383838"
     fill-opacity="1"
     id="g3127"
     transform="translate(-48.245959,-23.53125)">
    <g
       transform="translate(126.43332,53.493886)"
       id="g3125">
      <g
         id="g3123" />
    </g>
  </g>
  <g
     fill="#383838"
     fill-opacity="1"
     id="g3205"
     transform="translate(-48.245959,-23.53125)">
    <g
       transform="translate(221.80627,53.493886)"
       id="g3203">
      <g
         id="g3201" />
    </g>
  </g>
  <g
     fill="#383838"
     fill-opacity="1"
     id="g3235"
     transform="translate(-48.245959,-23.53125)">
    <g
       transform="translate(251.23161,53.493886)"
       id="g3233">
      <g
         id="g3231" />
    </g>
  </g>
  <g
     fill="#383838"
     fill-opacity="1"
     id="g3321"
     transform="translate(-48.245959,-23.53125)">
    <g
       transform="translate(350.49541,53.493886)"
       id="g3319">
      <g
         id="g3317" />
    </g>
  </g>
  <g
     fill="#383838"
     fill-opacity="1"
     id="g3439"
     transform="translate(-48.245959,-23.53125)">
    <g
       transform="translate(105.08697,76.717483)"
       id="g3437">
      <g
         id="g3435" />
    </g>
  </g>
  <g
     fill="#383838"
     fill-opacity="1"
     id="g3469"
     transform="translate(-48.245959,-23.53125)">
    <g
       transform="translate(141.34056,76.717483)"
       id="g3467">
      <g
         id="g3465" />
    </g>
  </g>
  <g
     fill="#383838"
     fill-opacity="1"
     id="g3555"
     transform="translate(-48.245959,-23.53125)">
    <g
       transform="translate(232.55357,76.717483)"
       id="g3553">
      <g
         id="g3551" />
    </g>
  </g>
  <g
     fill="#383838"
     fill-opacity="1"
     id="g3593"
     transform="translate(-48.245959,-23.53125)">
    <g
       transform="translate(274.60697,76.717483)"
       id="g3591">
      <g
         id="g3589" />
    </g>
  </g>
  <g
     fill="#383838"
     fill-opacity="1"
     id="g3687"
     transform="translate(-48.245959,-23.53125)">
    <g
       transform="translate(382.9508,76.717483)"
       id="g3685">
      <g
         id="g3683" />
    </g>
  </g>
  <g
     fill="#383838"
     fill-opacity="1"
     id="g3829"
     transform="translate(-48.245959,-23.53125)">
    <g
       transform="translate(219.0574,99.94108)"
       id="g3827">
      <g
         id="g3825" />
    </g>
  </g>
  <g
     fill="#383838"
     fill-opacity="1"
     id="g3851"
     transform="translate(-48.245959,-23.53125)">
    <g
       transform="translate(247.20417,99.94108)"
       id="g3849">
      <g
         id="g3847" />
    </g>
  </g>
  <g
     fill="#383838"
     fill-opacity="1"
     id="g3873"
     transform="translate(-48.245959,-23.53125)">
    <g
       transform="translate(269.38436,99.94108)"
       id="g3871">
      <g
         id="g3869" />
    </g>
  </g>
  <g
     fill="#383838"
     fill-opacity="1"
     id="g3983"
     transform="translate(-48.245959,-23.53125)">
    <g
       transform="translate(397.6848,99.94108)"
       id="g3981">
      <g
         id="g3979" />
    </g>
  </g>
  <g
     fill="#383838"
     fill-opacity="1"
     id="g3997"
     transform="translate(-48.245959,-23.53125)">
    <g
       transform="translate(414.07443,99.94108)"
       id="g3995">
      <g
         id="g3993" />
    </g>
  </g>
  <g
     fill="#383838"
     fill-opacity="1"
     id="g4099"
     transform="translate(-48.245959,-23.53125)">
    <g
       transform="translate(155.86794,123.16468)"
       id="g4097">
      <g
         id="g4095" />
    </g>
  </g>
  <g
     fill="#383838"
     fill-opacity="1"
     id="g4169"
     transform="translate(-48.245959,-23.53125)">
    <g
       transform="translate(235.41642,123.16468)"
       id="g4167">
      <g
         id="g4165" />
    </g>
  </g>
  <g
     fill="#383838"
     fill-opacity="1"
     id="g4191"
     transform="translate(-48.245959,-23.53125)">
    <g
       transform="translate(259.79238,123.16468)"
       id="g4189">
      <g
         id="g4187" />
    </g>
  </g>
  <g
     fill="#383838"
     fill-opacity="1"
     id="g4293"
     transform="translate(-48.245959,-23.53125)">
    <g
       transform="translate(386.11004,123.16468)"
       id="g4291">
      <g
         id="g4289" />
    </g>
  </g>
  <g
     fill="#383838"
     fill-opacity="1"
     id="g4387"
     transform="translate(-48.245959,-23.53125)">
    <g
       transform="translate(493.73623,123.16468)"
       id="g4385">
      <g
         id="g4383" />
    </g>
  </g>
  <path
     fill="#383838"
     d="m 8.7691602,132.91753 c 0,0.44922 -0.08594,0.8789 -0.257812,1.29297 -0.171875,0.41015 -0.414063,0.77734 -0.730469,1.09375 -0.316406,0.3164 -0.679687,0.55859 -1.09375,0.73046 -0.414063,0.17188 -0.84375,0.25782 -1.289063,0.25782 -0.449218,0 -0.878906,-0.0859 -1.292968,-0.25782 -0.410156,-0.17187 -0.777344,-0.41406 -1.09375,-0.73046 -0.316406,-0.31641 -0.558594,-0.6836 -0.730469,-1.09375 -0.171875,-0.41407 -0.253906,-0.84375 -0.253906,-1.29297 0,-0.44532 0.08203,-0.875 0.253906,-1.28907 0.171875,-0.41406 0.414063,-0.77734 0.730469,-1.09375 0.316406,-0.3164 0.683594,-0.55859 1.09375,-0.73046 0.414062,-0.17188 0.84375,-0.25782 1.292968,-0.25782 0.445313,0 0.875,0.0859 1.289063,0.25782 0.414063,0.17187 0.777344,0.41406 1.09375,0.73046 0.316406,0.31641 0.558594,0.67969 0.730469,1.09375 0.171875,0.41407 0.257812,0.84375 0.257812,1.28907 z m 0,0"
     fill-opacity="1"
     fill-rule="nonzero"
     id="path4389" />
  <g
     fill="#383838"
     fill-opacity="1"
     id="g4507"
     transform="translate(-48.245959,-23.53125)">
    <g
       transform="translate(213.59758,169.61187)"
       id="g4505">
      <g
         id="g4503" />
    </g>
  </g>
  <g
     fill="#383838"
     fill-opacity="1"
     id="g4601"
     transform="translate(-48.245959,-23.53125)">
    <g
       transform="translate(306.13549,169.61187)"
       id="g4599">
      <g
         id="g4597" />
    </g>
  </g>
  <g
     fill="#383838"
     fill-opacity="1"
     id="g4671"
     transform="translate(-48.245959,-23.53125)">
    <g
       transform="translate(396.06067,169.61187)"
       id="g4669">
      <g
         id="g4667" />
    </g>
  </g>
  <g
     fill="#383838"
     fill-opacity="1"
     id="g4765"
     transform="translate(-48.245959,-23.53125)">
    <g
       transform="translate(158.57329,192.83547)"
       id="g4763">
      <g
         id="g4761" />
    </g>
  </g>
  <g
     fill="#383838"
     fill-opacity="1"
     id="g4843"
     transform="translate(-48.245959,-23.53125)">
    <g
       transform="translate(241.14214,192.83547)"
       id="g4841">
      <g
         id="g4839" />
    </g>
  </g>
  <g
     fill="#383838"
     fill-opacity="1"
     id="g4865"
     transform="translate(-48.245959,-23.53125)">
    <g
       transform="translate(265.74973,192.83547)"
       id="g4863">
      <g
         id="g4861" />
    </g>
  </g>
  <g
     fill="#383838"
     fill-opacity="1"
     id="g4895"
     transform="translate(-48.245959,-23.53125)">
    <g
       transform="translate(298.75132,192.83547)"
       id="g4893">
      <g
         id="g4891" />
    </g>
  </g>
  <g
     fill="#383838"
     fill-opacity="1"
     id="g4989"
     transform="translate(-48.245959,-23.53125)">
    <g
       transform="translate(405.18653,192.83547)"
       id="g4987">
      <g
         id="g4985" />
    </g>
  </g>
  <g
     fill="#383838"
     fill-opacity="1"
     id="g5067"
     transform="translate(-48.245959,-23.53125)">
    <g
       transform="translate(140.01567,216.05907)"
       id="g5065">
      <g
         id="g5063" />
    </g>
  </g>
  <g
     fill="#383838"
     fill-opacity="1"
     id="g5097"
     transform="translate(-48.245959,-23.53125)">
    <g
       transform="translate(169.44101,216.05907)"
       id="g5095">
      <g
         id="g5093" />
    </g>
  </g>
  <g
     fill="#383838"
     fill-opacity="1"
     id="g5175"
     transform="translate(-48.245959,-23.53125)">
    <g
       transform="translate(277.7663,216.05907)"
       id="g5173">
      <g
         id="g5171" />
    </g>
  </g>
  <g
     fill="#383838"
     fill-opacity="1"
     id="g5197"
     transform="translate(-48.245959,-23.53125)">
    <g
       transform="translate(304.96805,216.05907)"
       id="g5195">
      <g
         id="g5193" />
    </g>
  </g>
  <g
     fill="#383838"
     fill-opacity="1"
     id="g5219"
     transform="translate(-48.245959,-23.53125)">
    <g
       transform="translate(325.24892,216.05907)"
       id="g5217">
      <g
         id="g5215" />
    </g>
  </g>
  <g
     fill="#383838"
     fill-opacity="1"
     id="g5305"
     transform="translate(-48.245959,-23.53125)">
    <g
       transform="translate(428.47853,216.05907)"
       id="g5303">
      <g
         id="g5301" />
    </g>
  </g>
  <g
     fill="#383838"
     fill-opacity="1"
     id="g5415"
     transform="translate(-48.245959,-23.53125)">
    <g
       transform="translate(188.61012,239.28266)"
       id="g5413">
      <g
         id="g5411" />
    </g>
  </g>
  <g
     fill="#383838"
     fill-opacity="1"
     id="g5445"
     transform="translate(-48.245959,-23.53125)">
    <g
       transform="translate(218.03546,239.28266)"
       id="g5443">
      <g
         id="g5441" />
    </g>
  </g>
  <g
     fill="#383838"
     fill-opacity="1"
     id="g5507"
     transform="translate(-48.245959,-23.53125)">
    <g
       transform="translate(281.80582,239.28266)"
       id="g5505">
      <g
         id="g5503" />
    </g>
  </g>
  <g
     fill="#383838"
     fill-opacity="1"
     id="g5577"
     transform="translate(-48.245959,-23.53125)">
    <g
       transform="translate(350.65339,239.28266)"
       id="g5575">
      <g
         id="g5573" />
    </g>
  </g>
  <g
     id="g26151"
     transform="translate(-99.62206,-439.14816)">
    <text
       xml:space="preserve"
       style="font-style:normal;font-variant:normal;font-weight:normal;font-stretch:normal;font-size:17.3333px;line-height:1.25;font-family:'Open Sans';-inkscape-font-specification:'Open Sans';white-space:pre;inline-size:386.587;fill:#383838;fill-opacity:1;stroke:none"
       x="132.18379"
       y="468.34464"
       id="text5597"
       transform="translate(-7.1604737,-0.24614775)"><tspan
         x="132.18379"
         y="468.34464"
         id="tspan7535">Vise à remplacer les <tspan
   style="font-weight:bold;-inkscape-font-specification:'Open Sans Bold'"
   id="tspan7533">stratégies d'évitement</tspan> </tspan><tspan
         x="132.18379"
         y="490.01126"
         id="tspan7537">par des stratégies plus bénéfiques, par </tspan><tspan
         x="132.18379"
         y="511.67789"
         id="tspan7545">l'<tspan
   style="font-weight:bold;-inkscape-font-specification:'Open Sans Bold'"
   id="tspan7539">augmentation </tspan><tspan
   style="font-weight:bold;-inkscape-font-specification:'Open Sans Bold'"
   id="tspan7541">de la </tspan><tspan
   style="font-weight:bold;-inkscape-font-specification:'Open Sans Bold'"
   id="tspan7543">participation à des </tspan></tspan><tspan
         x="132.18379"
         y="533.34448"
         id="tspan7553"><tspan
   style="font-weight:bold;-inkscape-font-specification:'Open Sans Bold'"
   id="tspan7547">activités sociales et </tspan><tspan
   style="font-weight:bold;-inkscape-font-specification:'Open Sans Bold'"
   id="tspan7549">personnelles </tspan><tspan
   style="font-weight:bold;-inkscape-font-specification:'Open Sans Bold'"
   id="tspan7551">plaisantes</tspan>.
</tspan><tspan
         x="132.18379"
         y="555.01111"
         id="tspan7555">
</tspan><tspan
         x="132.18379"
         y="576.67773"
         id="tspan7557">L'augmentation des activités engendre des </tspan><tspan
         x="132.18379"
         y="598.34436"
         id="tspan7559">émotions positives ce qui permettrait de </tspan><tspan
         x="132.18379"
         y="620.01099"
         id="tspan7561">réduire les symptômes de la dépression et </tspan><tspan
         x="132.18379"
         y="641.67761"
         id="tspan7563">d'augmenter les affects positifs subséquents.</tspan></text>
  </g>
  <text
     xml:space="preserve"
     style="font-style:normal;font-variant:normal;font-weight:normal;font-stretch:normal;font-size:16px;line-height:1.25;font-family:'Open Sans';-inkscape-font-specification:'Open Sans';white-space:pre;inline-size:304.781;fill:#ffffff;fill-opacity:1"
     x="317.59634"
     y="-106.08351"
     id="text72692"
     transform="translate(158.35893,186.07598)"><tspan
       x="317.59634"
       y="-106.08351"
       id="tspan7565">Évaluer les comportements et le style
</tspan><tspan
       x="317.59634"
       y="-86.083515"
       id="tspan7567">de vie actuel du patient et relever les </tspan><tspan
       x="317.59634"
       y="-66.083515"
       id="tspan7569">perspectives d'amélioration (hygiène, </tspan><tspan
       x="317.59634"
       y="-46.083515"
       id="tspan7571">alimentation, sommeil).
</tspan><tspan
       x="317.59634"
       y="-26.083515"
       id="tspan7573">
</tspan><tspan
       x="317.59634"
       y="-6.0835148"
       id="tspan7575">Observer le degré d'inactivité, identifier </tspan><tspan
       x="317.59634"
       y="13.916485"
       id="tspan7577">les comportements d'évitement.
</tspan><tspan
       x="317.59634"
       y="33.916485"
       id="tspan7579">
</tspan><tspan
       x="317.59634"
       y="53.916485"
       id="tspan7581">Utiliser une grille d'auto-observation des </tspan><tspan
       x="317.59634"
       y="73.916485"
       id="tspan7583">activités quotidiennes (heure par heure) </tspan><tspan
       x="317.59634"
       y="93.916485"
       id="tspan7585">à remplir sous forme de semainier.
</tspan><tspan
       x="317.59634"
       y="113.91649"
       id="tspan7587">
</tspan><tspan
       x="317.59634"
       y="133.91649"
       id="tspan7589">Réaliser l'analyse fonctionnelle à partir </tspan><tspan
       x="317.59634"
       y="153.91649"
       id="tspan7591">de ces données.</tspan></text>
  <text
     xml:space="preserve"
     style="font-style:normal;font-variant:normal;font-weight:bold;font-stretch:normal;font-size:18.6667px;line-height:1.25;font-family:'Open Sans';-inkscape-font-specification:'Open Sans Bold';fill:#ffffff;fill-opacity:1"
     x="589.11401"
     y="35.291126"
     id="text117098"><tspan
       sodipodi:role="line"
       id="tspan117096"
       x="589.11401"
       y="35.291126">PHASES</tspan></text>
</svg>
