<?xml version="1.0" encoding="UTF-8" standalone="no"?>
<svg
   zoomAndPan="magnify"
   viewBox="0 0 753.49202 368.28349"
   preserveAspectRatio="xMidYMid meet"
   version="1.0"
   id="svg4442"
   sodipodi:docname="depression.svg"
   inkscape:version="1.1.2 (0a00cf5339, 2022-02-04)"
   xmlns:inkscape="http://www.inkscape.org/namespaces/inkscape"
   xmlns:sodipodi="http://sodipodi.sourceforge.net/DTD/sodipodi-0.dtd"
   xmlns="http://www.w3.org/2000/svg"
   xmlns:svg="http://www.w3.org/2000/svg">
  <sodipodi:namedview
     id="namedview4444"
     pagecolor="#ffffff"
     bordercolor="#666666"
     borderopacity="1.0"
     inkscape:pageshadow="2"
     inkscape:pageopacity="0.0"
     inkscape:pagecheckerboard="0"
     showgrid="false"
     fit-margin-top="0"
     fit-margin-left="0"
     fit-margin-right="0"
     fit-margin-bottom="0"
     inkscape:zoom="0.70386742"
     inkscape:cx="471.67974"
     inkscape:cy="237.26059"
     inkscape:window-width="1345"
     inkscape:window-height="890"
     inkscape:window-x="2175"
     inkscape:window-y="88"
     inkscape:window-maximized="0"
     inkscape:current-layer="svg4442" />
  <defs
     id="defs34">
    <g
       id="g2" />
    <clipPath
       id="7c289c0ff7">
      <path
         d="m 371,191.57031 h 58.48437 v 16.5 H 371 Z m 0,0"
         clip-rule="nonzero"
         id="path4" />
    </clipPath>
    <clipPath
       id="b0a480fc2b">
      <path
         d="m 370.22656,265.16797 h 58.5 v 16.5 h -58.5 z m 0,0"
         clip-rule="nonzero"
         id="path7" />
    </clipPath>
    <clipPath
       id="84c7fada6c">
      <path
         d="m 585.60547,191.57031 h 58.5 v 16.5 h -58.5 z m 0,0"
         clip-rule="nonzero"
         id="path10" />
    </clipPath>
    <clipPath
       id="a0b0a46239">
      <path
         d="m 580.84375,265.16797 h 58.5 v 16.5 h -58.5 z m 0,0"
         clip-rule="nonzero"
         id="path13" />
    </clipPath>
    <clipPath
       id="2ac208d5a7">
      <path
         d="m 512.21484,108.23828 h 58.5 v 16.5 h -58.5 z m 0,0"
         clip-rule="nonzero"
         id="path16" />
    </clipPath>
    <clipPath
       id="0da7fb18c2">
      <path
         d="m 450.02344,350 h 58.5 v 16.5 h -58.5 z m 0,0"
         clip-rule="nonzero"
         id="path19" />
    </clipPath>
    <clipPath
       id="389cab0a83">
      <path
         d="m 450.02344,388.83594 h 58.5 v 16.5 h -58.5 z m 0,0"
         clip-rule="nonzero"
         id="path22" />
    </clipPath>
    <clipPath
       id="3e45d8a867">
      <path
         d="m 450.02344,430.23828 h 58.5 v 16.5 h -58.5 z m 0,0"
         clip-rule="nonzero"
         id="path25" />
    </clipPath>
    <clipPath
       id="ff41574527">
      <path
         d="m 450.02344,474.32422 h 58.5 v 16.5 h -58.5 z m 0,0"
         clip-rule="nonzero"
         id="path28" />
    </clipPath>
    <clipPath
       id="9a74d52294">
      <path
         d="M 21.117188,99.238281 H 258.92578 V 518.39844 H 21.117188 Z m 0,0"
         clip-rule="nonzero"
         id="path31" />
    </clipPath>
  </defs>
  <g
     clip-path="url(#7c289c0ff7)"
     id="g494"
     transform="translate(-17.274518,-121.23828)">
    <path
       fill="#e78404"
       d="m 410.63281,207.10937 c 0.46094,-1.05468 0.85938,-2.17968 1.09375,-3.09375 0.1875,-0.71875 0.44141,-2.19531 0.44141,-2.53125 v -0.24609 h -41.14063 v -2.83594 h 41.14063 v -0.24609 c 0,-0.33594 -0.25391,-1.80859 -0.44141,-2.53125 -0.23437,-0.91406 -0.63281,-2.03906 -1.09375,-3.08984 -0.23437,-0.53125 -0.41797,-0.96485 -0.41015,-0.96485 0.0937,0 19.19921,8.19531 19.21093,8.24219 0.0156,0.043 -19.09375,8.25781 -19.21093,8.25781 -0.008,0 0.17578,-0.43359 0.41015,-0.96094 z m 0,0"
       fill-opacity="1"
       fill-rule="nonzero"
       id="path492" />
  </g>
  <g
     clip-path="url(#b0a480fc2b)"
     id="g498"
     transform="translate(-16.512798,-121.23828)">
    <path
       fill="#e78404"
       d="m 409.87109,280.70703 c 0.46094,-1.05078 0.85938,-2.17578 1.09766,-3.09375 0.18359,-0.71875 0.44141,-2.19141 0.44141,-2.53125 v -0.24609 h -41.14454 v -2.83203 h 41.14454 v -0.25 c 0,-0.33594 -0.25782,-1.8086 -0.44141,-2.52735 -0.23828,-0.91797 -0.63672,-2.04297 -1.09766,-3.09375 -0.23437,-0.53125 -0.41797,-0.96484 -0.41015,-0.96484 0.0937,0 19.19922,8.19531 19.21484,8.24219 0.0117,0.0469 -19.09375,8.25781 -19.21484,8.25781 -0.008,0 0.17578,-0.4336 0.41015,-0.96094 z m 0,0"
       fill-opacity="1"
       fill-rule="nonzero"
       id="path496" />
  </g>
  <g
     clip-path="url(#84c7fada6c)"
     id="g502"
     transform="translate(-21.117188,-121.23828)">
    <path
       fill="#e78404"
       d="m 625.25,207.10937 c 0.46484,-1.05468 0.86328,-2.17968 1.09766,-3.09375 0.18359,-0.71875 0.4414,-2.19531 0.4414,-2.53125 v -0.24609 h -41.14453 v -2.83594 h 41.14453 v -0.24609 c 0,-0.33594 -0.25781,-1.80859 -0.4414,-2.53125 -0.23438,-0.91406 -0.63282,-2.03906 -1.09766,-3.08984 -0.23047,-0.53125 -0.41797,-0.96485 -0.41016,-0.96485 0.0937,0 19.20313,8.19531 19.21485,8.24219 0.0117,0.043 -19.09375,8.25781 -19.21485,8.25781 -0.008,0 0.17969,-0.43359 0.41016,-0.96094 z m 0,0"
       fill-opacity="1"
       fill-rule="nonzero"
       id="path500" />
  </g>
  <g
     clip-path="url(#a0b0a46239)"
     id="g506"
     transform="translate(-16.355468,-121.23828)">
    <path
       fill="#e78404"
       d="m 620.48828,280.70703 c 0.46484,-1.05078 0.86328,-2.17578 1.09766,-3.09375 0.18359,-0.71875 0.4414,-2.19141 0.4414,-2.53125 v -0.24609 h -41.14453 v -2.83203 h 41.14453 v -0.25 c 0,-0.33594 -0.25781,-1.8086 -0.4414,-2.52735 -0.23438,-0.91797 -0.63282,-2.04297 -1.09766,-3.09375 -0.23047,-0.53125 -0.41797,-0.96484 -0.41016,-0.96484 0.0977,0 19.20313,8.19531 19.21485,8.24219 0.0117,0.0469 -19.09375,8.25781 -19.21094,8.25781 -0.008,0 0.17578,-0.4336 0.40625,-0.96094 z m 0,0"
       fill-opacity="1"
       fill-rule="nonzero"
       id="path504" />
  </g>
  <g
     fill="#383838"
     fill-opacity="1"
     id="g674"
     transform="translate(-21.117188,-105.23828)">
    <g
       transform="translate(305.45612,121.06917)"
       id="g512">
      <g
         id="g510">
        <path
           d="M -0.09375,2.8125 C -0.550781,2.8125 -0.910156,2.75 -1.171875,2.625 V 1.5625 c 0.34375,0.09375 0.703125,0.140625 1.078125,0.140625 0.488281,0 0.859375,-0.148437 1.109375,-0.4375 0.25,-0.292969 0.375,-0.714844 0.375,-1.265625 v -10.703125 h 1.25 v 10.59375 c 0,0.9375 -0.234375,1.65625 -0.703125,2.15625 C 1.46875,2.554688 0.789062,2.8125 -0.09375,2.8125 Z m 0,0"
           id="path508" />
      </g>
    </g>
    <g
       transform="translate(309.46247,121.06917)"
       id="g518">
      <g
         id="g516">
        <path
           d="M 4.6875,0.140625 C 3.5,0.140625 2.5625,-0.21875 1.875,-0.9375 1.1875,-1.65625 0.84375,-2.660156 0.84375,-3.953125 c 0,-1.289063 0.316406,-2.316406 0.953125,-3.078125 0.632813,-0.757812 1.488281,-1.140625 2.5625,-1.140625 1.007813,0 1.804687,0.335937 2.390625,1 0.582031,0.65625 0.875,1.527344 0.875,2.609375 v 0.765625 H 2.109375 c 0.019531,0.949219 0.253906,1.667969 0.703125,2.15625 0.457031,0.480469 1.09375,0.71875 1.90625,0.71875 0.863281,0 1.71875,-0.175781 2.5625,-0.53125 V -0.375 c -0.429688,0.1875 -0.835938,0.3203125 -1.21875,0.390625 -0.375,0.0820312 -0.835938,0.125 -1.375,0.125 z M 4.34375,-7.15625 c -0.636719,0 -1.148438,0.214844 -1.53125,0.640625 C 2.425781,-6.097656 2.195312,-5.519531 2.125,-4.78125 H 6.328125 C 6.328125,-5.550781 6.15625,-6.140625 5.8125,-6.546875 5.46875,-6.953125 4.976562,-7.15625 4.34375,-7.15625 Z m 0,0"
           id="path514" />
      </g>
    </g>
    <g
       transform="translate(317.87799,121.06917)"
       id="g522">
      <g
         id="g520" />
    </g>
    <g
       transform="translate(321.77448,121.06917)"
       id="g528">
      <g
         id="g526">
        <path
           d="M 4.90625,-7.078125 H 2.859375 V 0 H 1.640625 V -7.078125 H 0.21875 V -7.625 l 1.421875,-0.453125 v -0.4375 c 0,-1.976563 0.863281,-2.96875 2.59375,-2.96875 0.425781,0 0.925781,0.08984 1.5,0.265625 L 5.40625,-10.25 c -0.46875,-0.144531 -0.867188,-0.21875 -1.1875,-0.21875 -0.46875,0 -0.8125,0.152344 -1.03125,0.453125 -0.21875,0.304687 -0.328125,0.792969 -0.328125,1.46875 V -8.03125 H 4.90625 Z m 0,0"
           id="path524" />
      </g>
    </g>
    <g
       transform="translate(326.85748,121.06917)"
       id="g534">
      <g
         id="g532">
        <path
           d="M 6.21875,0 5.984375,-1.140625 h -0.0625 C 5.523438,-0.640625 5.125,-0.300781 4.71875,-0.125 4.320312,0.0507812 3.828125,0.140625 3.234375,0.140625 2.441406,0.140625 1.816406,-0.0625 1.359375,-0.46875 0.910156,-0.875 0.6875,-1.457031 0.6875,-2.21875 c 0,-1.625 1.296875,-2.472656 3.890625,-2.546875 L 5.9375,-4.8125 v -0.5 c 0,-0.625 -0.136719,-1.085938 -0.40625,-1.390625 C 5.257812,-7.003906 4.828125,-7.15625 4.234375,-7.15625 c -0.667969,0 -1.421875,0.203125 -2.265625,0.609375 l -0.375,-0.921875 c 0.394531,-0.21875 0.828125,-0.382812 1.296875,-0.5 0.46875,-0.125 0.941406,-0.1875 1.421875,-0.1875 0.957031,0 1.664062,0.214844 2.125,0.640625 0.457031,0.417969 0.6875,1.09375 0.6875,2.03125 V 0 Z M 3.484375,-0.859375 c 0.75,0 1.335937,-0.207031 1.765625,-0.625 0.4375,-0.414063 0.65625,-0.992187 0.65625,-1.734375 v -0.734375 l -1.21875,0.0625 C 3.726562,-3.859375 3.035156,-3.707031 2.609375,-3.4375 2.179688,-3.175781 1.96875,-2.765625 1.96875,-2.203125 c 0,0.4375 0.128906,0.773437 0.390625,1 0.269531,0.230469 0.644531,0.34375 1.125,0.34375 z m 0,0"
           id="path530" />
      </g>
    </g>
    <g
       transform="translate(335.19977,121.06917)"
       id="g540">
      <g
         id="g538">
        <path
           d="M 2.5,0 H 1.296875 V -8.03125 H 2.5 Z M 1.1875,-10.203125 c 0,-0.28125 0.066406,-0.484375 0.203125,-0.609375 0.132813,-0.132812 0.304687,-0.203125 0.515625,-0.203125 0.195312,0 0.363281,0.07031 0.5,0.203125 0.144531,0.136719 0.21875,0.339844 0.21875,0.609375 0,0.273437 -0.074219,0.476563 -0.21875,0.609375 -0.136719,0.136719 -0.304688,0.203125 -0.5,0.203125 -0.210938,0 -0.382812,-0.066406 -0.515625,-0.203125 C 1.253906,-9.726562 1.1875,-9.929688 1.1875,-10.203125 Z m 0,0"
           id="path536" />
      </g>
    </g>
    <g
       transform="translate(338.99371,121.06917)"
       id="g546">
      <g
         id="g544">
        <path
           d="m 6.46875,-2.1875 c 0,0.75 -0.28125,1.328125 -0.84375,1.734375 -0.554688,0.3984375 -1.335938,0.59375 -2.34375,0.59375 -1.0625,0 -1.890625,-0.1640625 -2.484375,-0.5 v -1.125 c 0.382813,0.199219 0.796875,0.355469 1.234375,0.46875 0.445312,0.105469 0.875,0.15625 1.28125,0.15625 0.632812,0 1.125,-0.097656 1.46875,-0.296875 0.34375,-0.207031 0.515625,-0.519531 0.515625,-0.9375 0,-0.3125 -0.136719,-0.578125 -0.40625,-0.796875 C 4.617188,-3.109375 4.085938,-3.367188 3.296875,-3.671875 2.554688,-3.953125 2.023438,-4.195312 1.703125,-4.40625 1.390625,-4.613281 1.15625,-4.847656 1,-5.109375 0.851562,-5.378906 0.78125,-5.695312 0.78125,-6.0625 c 0,-0.644531 0.265625,-1.15625 0.796875,-1.53125 0.53125,-0.382812 1.257813,-0.578125 2.1875,-0.578125 0.863281,0 1.707031,0.179687 2.53125,0.53125 l -0.4375,0.984375 c -0.804687,-0.332031 -1.53125,-0.5 -2.1875,-0.5 -0.574219,0 -1.007813,0.09375 -1.296875,0.28125 -0.292969,0.179688 -0.4375,0.421875 -0.4375,0.734375 0,0.21875 0.050781,0.40625 0.15625,0.5625 0.113281,0.148437 0.289062,0.289063 0.53125,0.421875 0.25,0.136719 0.71875,0.335938 1.40625,0.59375 0.957031,0.34375 1.601562,0.695312 1.9375,1.046875 0.332031,0.355469 0.5,0.796875 0.5,1.328125 z m 0,0"
           id="path542" />
      </g>
    </g>
    <g
       transform="translate(346.14948,121.06917)"
       id="g550">
      <g
         id="g548" />
    </g>
    <g
       transform="translate(350.04596,121.06917)"
       id="g556">
      <g
         id="g554">
        <path
           d="m 2.4375,-8.03125 v 5.21875 c 0,0.648438 0.144531,1.132812 0.4375,1.453125 0.300781,0.324219 0.769531,0.484375 1.40625,0.484375 0.832031,0 1.441406,-0.226562 1.828125,-0.6875 0.394531,-0.457031 0.59375,-1.207031 0.59375,-2.25 v -4.21875 h 1.21875 V 0 h -1 l -0.1875,-1.078125 h -0.0625 c -0.25,0.398437 -0.601563,0.699219 -1.046875,0.90625 -0.4375,0.2070312 -0.9375,0.3125 -1.5,0.3125 -0.980469,0 -1.714844,-0.2265625 -2.203125,-0.6875 -0.480469,-0.46875 -0.71875,-1.210937 -0.71875,-2.234375 v -5.25 z m 0,0"
           id="path552" />
      </g>
    </g>
    <g
       transform="translate(359.2525,121.06917)"
       id="g562">
      <g
         id="g560">
        <path
           d="m 6.78125,0 v -5.1875 c 0,-0.65625 -0.152344,-1.144531 -0.453125,-1.46875 C 6.035156,-6.976562 5.570312,-7.140625 4.9375,-7.140625 c -0.84375,0 -1.464844,0.230469 -1.859375,0.6875 C 2.691406,-6.003906 2.5,-5.257812 2.5,-4.21875 V 0 H 1.296875 V -8.03125 H 2.28125 l 0.1875,1.109375 h 0.0625 c 0.25,-0.394531 0.597656,-0.703125 1.046875,-0.921875 0.445313,-0.21875 0.945313,-0.328125 1.5,-0.328125 0.96875,0 1.695313,0.234375 2.1875,0.703125 C 7.753906,-7.007812 8,-6.265625 8,-5.234375 V 0 Z m 0,0"
           id="path558" />
      </g>
    </g>
    <g
       transform="translate(368.45905,121.06917)"
       id="g568">
      <g
         id="g566">
        <path
           d="M 4.6875,0.140625 C 3.5,0.140625 2.5625,-0.21875 1.875,-0.9375 1.1875,-1.65625 0.84375,-2.660156 0.84375,-3.953125 c 0,-1.289063 0.316406,-2.316406 0.953125,-3.078125 0.632813,-0.757812 1.488281,-1.140625 2.5625,-1.140625 1.007813,0 1.804687,0.335937 2.390625,1 0.582031,0.65625 0.875,1.527344 0.875,2.609375 v 0.765625 H 2.109375 c 0.019531,0.949219 0.253906,1.667969 0.703125,2.15625 0.457031,0.480469 1.09375,0.71875 1.90625,0.71875 0.863281,0 1.71875,-0.175781 2.5625,-0.53125 V -0.375 c -0.429688,0.1875 -0.835938,0.3203125 -1.21875,0.390625 -0.375,0.0820312 -0.835938,0.125 -1.375,0.125 z M 4.34375,-7.15625 c -0.636719,0 -1.148438,0.214844 -1.53125,0.640625 C 2.425781,-6.097656 2.195312,-5.519531 2.125,-4.78125 H 6.328125 C 6.328125,-5.550781 6.15625,-6.140625 5.8125,-6.546875 5.46875,-6.953125 4.976562,-7.15625 4.34375,-7.15625 Z m 0,0"
           id="path564" />
      </g>
    </g>
    <g
       transform="translate(376.87457,121.06917)"
       id="g572">
      <g
         id="g570" />
    </g>
    <g
       transform="translate(380.77106,121.06917)"
       id="g578">
      <g
         id="g576">
        <path
           d="M 6.21875,0 5.984375,-1.140625 h -0.0625 C 5.523438,-0.640625 5.125,-0.300781 4.71875,-0.125 4.320312,0.0507812 3.828125,0.140625 3.234375,0.140625 2.441406,0.140625 1.816406,-0.0625 1.359375,-0.46875 0.910156,-0.875 0.6875,-1.457031 0.6875,-2.21875 c 0,-1.625 1.296875,-2.472656 3.890625,-2.546875 L 5.9375,-4.8125 v -0.5 c 0,-0.625 -0.136719,-1.085938 -0.40625,-1.390625 C 5.257812,-7.003906 4.828125,-7.15625 4.234375,-7.15625 c -0.667969,0 -1.421875,0.203125 -2.265625,0.609375 l -0.375,-0.921875 c 0.394531,-0.21875 0.828125,-0.382812 1.296875,-0.5 0.46875,-0.125 0.941406,-0.1875 1.421875,-0.1875 0.957031,0 1.664062,0.214844 2.125,0.640625 0.457031,0.417969 0.6875,1.09375 0.6875,2.03125 V 0 Z M 3.484375,-0.859375 c 0.75,0 1.335937,-0.207031 1.765625,-0.625 0.4375,-0.414063 0.65625,-0.992187 0.65625,-1.734375 v -0.734375 l -1.21875,0.0625 C 3.726562,-3.859375 3.035156,-3.707031 2.609375,-3.4375 2.179688,-3.175781 1.96875,-2.765625 1.96875,-2.203125 c 0,0.4375 0.128906,0.773437 0.390625,1 0.269531,0.230469 0.644531,0.34375 1.125,0.34375 z m 0,0"
           id="path574" />
      </g>
    </g>
    <g
       transform="translate(389.11334,121.06917)"
       id="g584">
      <g
         id="g582">
        <path
           d="m 4.5,0.140625 c -1.167969,0 -2.070312,-0.351563 -2.703125,-1.0625 C 1.160156,-1.640625 0.84375,-2.65625 0.84375,-3.96875 c 0,-1.34375 0.320312,-2.378906 0.96875,-3.109375 0.644531,-0.726563 1.566406,-1.09375 2.765625,-1.09375 0.382813,0 0.769531,0.042969 1.15625,0.125 0.382813,0.085937 0.6875,0.183594 0.90625,0.296875 l -0.375,1.03125 c -0.273437,-0.113281 -0.5625,-0.203125 -0.875,-0.265625 -0.3125,-0.070313 -0.59375,-0.109375 -0.84375,-0.109375 -1.625,0 -2.4375,1.039062 -2.4375,3.109375 0,0.992187 0.195313,1.75 0.59375,2.28125 0.394531,0.523437 0.984375,0.78125 1.765625,0.78125 0.664062,0 1.351562,-0.140625 2.0625,-0.421875 v 1.078125 C 5.988281,0.00390625 5.3125,0.140625 4.5,0.140625 Z m 0,0"
           id="path580" />
      </g>
    </g>
    <g
       transform="translate(396.25445,121.06917)"
       id="g590">
      <g
         id="g588">
        <path
           d="M 3.875,-0.859375 C 4.09375,-0.859375 4.300781,-0.875 4.5,-0.90625 4.707031,-0.9375 4.867188,-0.96875 4.984375,-1 v 0.921875 c -0.136719,0.0625 -0.335937,0.1132812 -0.59375,0.15625 -0.25,0.039063 -0.480469,0.0625 -0.6875,0.0625 C 2.148438,0.140625 1.375,-0.675781 1.375,-2.3125 V -7.078125 H 0.234375 v -0.59375 l 1.140625,-0.5 0.515625,-1.71875 H 2.59375 v 1.859375 h 2.328125 v 0.953125 H 2.59375 v 4.71875 c 0,0.480469 0.113281,0.851563 0.34375,1.109375 0.226562,0.261719 0.539062,0.390625 0.9375,0.390625 z m 0,0"
           id="path586" />
      </g>
    </g>
    <g
       transform="translate(401.54986,121.06917)"
       id="g596">
      <g
         id="g594">
        <path
           d="M 2.5,0 H 1.296875 V -8.03125 H 2.5 Z M 1.1875,-10.203125 c 0,-0.28125 0.066406,-0.484375 0.203125,-0.609375 0.132813,-0.132812 0.304687,-0.203125 0.515625,-0.203125 0.195312,0 0.363281,0.07031 0.5,0.203125 0.144531,0.136719 0.21875,0.339844 0.21875,0.609375 0,0.273437 -0.074219,0.476563 -0.21875,0.609375 -0.136719,0.136719 -0.304688,0.203125 -0.5,0.203125 -0.210938,0 -0.382812,-0.066406 -0.515625,-0.203125 C 1.253906,-9.726562 1.1875,-9.929688 1.1875,-10.203125 Z m 0,0"
           id="path592" />
      </g>
    </g>
    <g
       transform="translate(405.34381,121.06917)"
       id="g602">
      <g
         id="g600">
        <path
           d="M 3.046875,0 0,-8.03125 h 1.296875 l 1.734375,4.765625 c 0.394531,1.117187 0.625,1.839844 0.6875,2.171875 h 0.0625 c 0.050781,-0.257812 0.21875,-0.796875 0.5,-1.609375 0.289062,-0.8125 0.9375,-2.585937 1.9375,-5.328125 H 7.515625 L 4.46875,0 Z m 0,0"
           id="path598" />
      </g>
    </g>
    <g
       transform="translate(412.85846,121.06917)"
       id="g608">
      <g
         id="g606">
        <path
           d="M 2.5,0 H 1.296875 V -8.03125 H 2.5 Z M 1.1875,-10.203125 c 0,-0.28125 0.066406,-0.484375 0.203125,-0.609375 0.132813,-0.132812 0.304687,-0.203125 0.515625,-0.203125 0.195312,0 0.363281,0.07031 0.5,0.203125 0.144531,0.136719 0.21875,0.339844 0.21875,0.609375 0,0.273437 -0.074219,0.476563 -0.21875,0.609375 -0.136719,0.136719 -0.304688,0.203125 -0.5,0.203125 -0.210938,0 -0.382812,-0.066406 -0.515625,-0.203125 C 1.253906,-9.726562 1.1875,-9.929688 1.1875,-10.203125 Z m 0,0"
           id="path604" />
      </g>
    </g>
    <g
       transform="translate(416.6524,121.06917)"
       id="g614">
      <g
         id="g612">
        <path
           d="M 3.875,-0.859375 C 4.09375,-0.859375 4.300781,-0.875 4.5,-0.90625 4.707031,-0.9375 4.867188,-0.96875 4.984375,-1 v 0.921875 c -0.136719,0.0625 -0.335937,0.1132812 -0.59375,0.15625 -0.25,0.039063 -0.480469,0.0625 -0.6875,0.0625 C 2.148438,0.140625 1.375,-0.675781 1.375,-2.3125 V -7.078125 H 0.234375 v -0.59375 l 1.140625,-0.5 0.515625,-1.71875 H 2.59375 v 1.859375 h 2.328125 v 0.953125 H 2.59375 v 4.71875 c 0,0.480469 0.113281,0.851563 0.34375,1.109375 0.226562,0.261719 0.539062,0.390625 0.9375,0.390625 z m 0,0"
           id="path610" />
      </g>
    </g>
    <g
       transform="translate(421.94781,121.06917)"
       id="g620">
      <g
         id="g618">
        <path
           d="M 4.6875,0.140625 C 3.5,0.140625 2.5625,-0.21875 1.875,-0.9375 1.1875,-1.65625 0.84375,-2.660156 0.84375,-3.953125 c 0,-1.289063 0.316406,-2.316406 0.953125,-3.078125 0.632813,-0.757812 1.488281,-1.140625 2.5625,-1.140625 1.007813,0 1.804687,0.335937 2.390625,1 0.582031,0.65625 0.875,1.527344 0.875,2.609375 v 0.765625 H 2.109375 c 0.019531,0.949219 0.253906,1.667969 0.703125,2.15625 0.457031,0.480469 1.09375,0.71875 1.90625,0.71875 0.863281,0 1.71875,-0.175781 2.5625,-0.53125 V -0.375 c -0.429688,0.1875 -0.835938,0.3203125 -1.21875,0.390625 -0.375,0.0820312 -0.835938,0.125 -1.375,0.125 z M 4.34375,-7.15625 c -0.636719,0 -1.148438,0.214844 -1.53125,0.640625 C 2.425781,-6.097656 2.195312,-5.519531 2.125,-4.78125 H 6.328125 C 6.328125,-5.550781 6.15625,-6.140625 5.8125,-6.546875 5.46875,-6.953125 4.976562,-7.15625 4.34375,-7.15625 Z M 3.453125,-9.265625 c 0.238281,-0.3125 0.492187,-0.679687 0.765625,-1.109375 0.269531,-0.425781 0.484375,-0.796875 0.640625,-1.109375 h 1.46875 v 0.140625 c -0.210937,0.324219 -0.527344,0.71875 -0.953125,1.1875 -0.429688,0.460938 -0.796875,0.8125 -1.109375,1.0625 h -0.8125 z m 0,0"
           id="path616" />
      </g>
    </g>
    <g
       transform="translate(430.36334,121.06917)"
       id="g624">
      <g
         id="g622" />
    </g>
    <g
       transform="translate(434.25982,121.06917)"
       id="g630">
      <g
         id="g628">
        <path
           d="M 6.21875,0 5.984375,-1.140625 h -0.0625 C 5.523438,-0.640625 5.125,-0.300781 4.71875,-0.125 4.320312,0.0507812 3.828125,0.140625 3.234375,0.140625 2.441406,0.140625 1.816406,-0.0625 1.359375,-0.46875 0.910156,-0.875 0.6875,-1.457031 0.6875,-2.21875 c 0,-1.625 1.296875,-2.472656 3.890625,-2.546875 L 5.9375,-4.8125 v -0.5 c 0,-0.625 -0.136719,-1.085938 -0.40625,-1.390625 C 5.257812,-7.003906 4.828125,-7.15625 4.234375,-7.15625 c -0.667969,0 -1.421875,0.203125 -2.265625,0.609375 l -0.375,-0.921875 c 0.394531,-0.21875 0.828125,-0.382812 1.296875,-0.5 0.46875,-0.125 0.941406,-0.1875 1.421875,-0.1875 0.957031,0 1.664062,0.214844 2.125,0.640625 0.457031,0.417969 0.6875,1.09375 0.6875,2.03125 V 0 Z M 3.484375,-0.859375 c 0.75,0 1.335937,-0.207031 1.765625,-0.625 0.4375,-0.414063 0.65625,-0.992187 0.65625,-1.734375 v -0.734375 l -1.21875,0.0625 C 3.726562,-3.859375 3.035156,-3.707031 2.609375,-3.4375 2.179688,-3.175781 1.96875,-2.765625 1.96875,-2.203125 c 0,0.4375 0.128906,0.773437 0.390625,1 0.269531,0.230469 0.644531,0.34375 1.125,0.34375 z m 0,0"
           id="path626" />
      </g>
    </g>
    <g
       transform="translate(442.60211,121.06917)"
       id="g636">
      <g
         id="g634">
        <path
           d="m 7.859375,-8.03125 v 0.765625 L 6.375,-7.078125 c 0.132812,0.167969 0.253906,0.390625 0.359375,0.671875 0.113281,0.273438 0.171875,0.578125 0.171875,0.921875 0,0.792969 -0.273438,1.421875 -0.8125,1.890625 C 5.550781,-3.125 4.8125,-2.890625 3.875,-2.890625 c -0.242188,0 -0.464844,-0.019531 -0.671875,-0.0625 -0.511719,0.273437 -0.765625,0.617187 -0.765625,1.03125 0,0.21875 0.085938,0.382813 0.265625,0.484375 0.175781,0.105469 0.488281,0.15625 0.9375,0.15625 h 1.40625 c 0.875,0 1.539063,0.1875 2,0.5625 C 7.515625,-0.351562 7.75,0.175781 7.75,0.875 7.75,1.757812 7.394531,2.4375 6.6875,2.90625 5.976562,3.375 4.9375,3.609375 3.5625,3.609375 2.519531,3.609375 1.710938,3.410156 1.140625,3.015625 0.566406,2.628906 0.28125,2.078125 0.28125,1.359375 0.28125,0.867188 0.4375,0.445312 0.75,0.09375 1.0625,-0.257812 1.503906,-0.5 2.078125,-0.625 1.867188,-0.71875 1.691406,-0.863281 1.546875,-1.0625 1.410156,-1.257812 1.34375,-1.488281 1.34375,-1.75 c 0,-0.289062 0.078125,-0.546875 0.234375,-0.765625 0.15625,-0.21875 0.40625,-0.429687 0.75,-0.640625 C 1.910156,-3.320312 1.570312,-3.609375 1.3125,-4.015625 1.050781,-4.429688 0.921875,-4.898438 0.921875,-5.421875 c 0,-0.882813 0.257813,-1.5625 0.78125,-2.03125 0.53125,-0.476563 1.28125,-0.71875 2.25,-0.71875 0.414063,0 0.789063,0.046875 1.125,0.140625 z m -6.40625,9.375 c 0,0.4375 0.179687,0.765625 0.546875,0.984375 0.375,0.226563 0.898438,0.34375 1.578125,0.34375 1.019531,0 1.773437,-0.152344 2.265625,-0.453125 0.488281,-0.304688 0.734375,-0.71875 0.734375,-1.25 0,-0.429688 -0.136719,-0.730469 -0.40625,-0.90625 -0.261719,-0.164062 -0.761719,-0.25 -1.5,-0.25 H 3.203125 C 2.648438,-0.1875 2.21875,-0.0546875 1.90625,0.203125 1.601562,0.472656 1.453125,0.851562 1.453125,1.34375 Z m 0.65625,-6.796875 c 0,0.5625 0.15625,0.992187 0.46875,1.28125 0.320313,0.28125 0.769531,0.421875 1.34375,0.421875 1.1875,0 1.78125,-0.578125 1.78125,-1.734375 0,-1.195313 -0.605469,-1.796875 -1.8125,-1.796875 -0.5625,0 -1,0.15625 -1.3125,0.46875 -0.3125,0.304688 -0.46875,0.757812 -0.46875,1.359375 z m 0,0"
           id="path632" />
      </g>
    </g>
    <g
       transform="translate(450.81988,121.06917)"
       id="g642">
      <g
         id="g640">
        <path
           d="m 4.953125,-8.171875 c 0.351563,0 0.671875,0.027344 0.953125,0.078125 L 5.75,-6.953125 C 5.414062,-7.023438 5.117188,-7.0625 4.859375,-7.0625 4.210938,-7.0625 3.65625,-6.796875 3.1875,-6.265625 2.726562,-5.742188 2.5,-5.09375 2.5,-4.3125 V 0 H 1.296875 v -8.03125 h 1 L 2.4375,-6.546875 H 2.484375 C 2.785156,-7.066406 3.144531,-7.46875 3.5625,-7.75 3.988281,-8.03125 4.453125,-8.171875 4.953125,-8.171875 Z m 0,0"
           id="path638" />
      </g>
    </g>
    <g
       transform="translate(456.94293,121.06917)"
       id="g648">
      <g
         id="g646">
        <path
           d="M 4.6875,0.140625 C 3.5,0.140625 2.5625,-0.21875 1.875,-0.9375 1.1875,-1.65625 0.84375,-2.660156 0.84375,-3.953125 c 0,-1.289063 0.316406,-2.316406 0.953125,-3.078125 0.632813,-0.757812 1.488281,-1.140625 2.5625,-1.140625 1.007813,0 1.804687,0.335937 2.390625,1 0.582031,0.65625 0.875,1.527344 0.875,2.609375 v 0.765625 H 2.109375 c 0.019531,0.949219 0.253906,1.667969 0.703125,2.15625 0.457031,0.480469 1.09375,0.71875 1.90625,0.71875 0.863281,0 1.71875,-0.175781 2.5625,-0.53125 V -0.375 c -0.429688,0.1875 -0.835938,0.3203125 -1.21875,0.390625 -0.375,0.0820312 -0.835938,0.125 -1.375,0.125 z M 4.34375,-7.15625 c -0.636719,0 -1.148438,0.214844 -1.53125,0.640625 C 2.425781,-6.097656 2.195312,-5.519531 2.125,-4.78125 H 6.328125 C 6.328125,-5.550781 6.15625,-6.140625 5.8125,-6.546875 5.46875,-6.953125 4.976562,-7.15625 4.34375,-7.15625 Z M 3.453125,-9.265625 c 0.238281,-0.3125 0.492187,-0.679687 0.765625,-1.109375 0.269531,-0.425781 0.484375,-0.796875 0.640625,-1.109375 h 1.46875 v 0.140625 c -0.210937,0.324219 -0.527344,0.71875 -0.953125,1.1875 -0.429688,0.460938 -0.796875,0.8125 -1.109375,1.0625 h -0.8125 z m 0,0"
           id="path644" />
      </g>
    </g>
    <g
       transform="translate(465.35846,121.06917)"
       id="g654">
      <g
         id="g652">
        <path
           d="M 6.21875,0 5.984375,-1.140625 h -0.0625 C 5.523438,-0.640625 5.125,-0.300781 4.71875,-0.125 4.320312,0.0507812 3.828125,0.140625 3.234375,0.140625 2.441406,0.140625 1.816406,-0.0625 1.359375,-0.46875 0.910156,-0.875 0.6875,-1.457031 0.6875,-2.21875 c 0,-1.625 1.296875,-2.472656 3.890625,-2.546875 L 5.9375,-4.8125 v -0.5 c 0,-0.625 -0.136719,-1.085938 -0.40625,-1.390625 C 5.257812,-7.003906 4.828125,-7.15625 4.234375,-7.15625 c -0.667969,0 -1.421875,0.203125 -2.265625,0.609375 l -0.375,-0.921875 c 0.394531,-0.21875 0.828125,-0.382812 1.296875,-0.5 0.46875,-0.125 0.941406,-0.1875 1.421875,-0.1875 0.957031,0 1.664062,0.214844 2.125,0.640625 0.457031,0.417969 0.6875,1.09375 0.6875,2.03125 V 0 Z M 3.484375,-0.859375 c 0.75,0 1.335937,-0.207031 1.765625,-0.625 0.4375,-0.414063 0.65625,-0.992187 0.65625,-1.734375 v -0.734375 l -1.21875,0.0625 C 3.726562,-3.859375 3.035156,-3.707031 2.609375,-3.4375 2.179688,-3.175781 1.96875,-2.765625 1.96875,-2.203125 c 0,0.4375 0.128906,0.773437 0.390625,1 0.269531,0.230469 0.644531,0.34375 1.125,0.34375 z m 0,0"
           id="path650" />
      </g>
    </g>
    <g
       transform="translate(473.70074,121.06917)"
       id="g660">
      <g
         id="g658">
        <path
           d="m 5.03125,-8.15625 c 1.050781,0 1.867188,0.359375 2.453125,1.078125 0.582031,0.71875 0.875,1.742187 0.875,3.0625 0,1.3125 -0.296875,2.335937 -0.890625,3.0625 -0.585938,0.730469 -1.398438,1.09375 -2.4375,1.09375 -0.53125,0 -1.015625,-0.09375 -1.453125,-0.28125 C 3.148438,-0.335938 2.789062,-0.632812 2.5,-1.03125 H 2.421875 L 2.15625,0 H 1.296875 V -11.390625 H 2.5 V -8.625 c 0,0.617188 -0.015625,1.171875 -0.046875,1.671875 H 2.5 C 3.070312,-7.753906 3.914062,-8.15625 5.03125,-8.15625 Z m -0.1875,1.015625 c -0.824219,0 -1.421875,0.242187 -1.796875,0.71875 C 2.679688,-5.953125 2.5,-5.148438 2.5,-4.015625 c 0,1.125 0.1875,1.933594 0.5625,2.421875 0.382812,0.480469 0.988281,0.71875 1.8125,0.71875 0.75,0 1.304688,-0.269531 1.671875,-0.8125 C 6.910156,-2.226562 7.09375,-3.007812 7.09375,-4.03125 7.09375,-5.082031 6.910156,-5.863281 6.546875,-6.375 6.179688,-6.882812 5.613281,-7.140625 4.84375,-7.140625 Z m 0,0"
           id="path656" />
      </g>
    </g>
    <g
       transform="translate(482.89263,121.06917)"
       id="g666">
      <g
         id="g664">
        <path
           d="M 2.5,0 H 1.296875 V -11.390625 H 2.5 Z m 0,0"
           id="path662" />
      </g>
    </g>
    <g
       transform="translate(486.68658,121.06917)"
       id="g672">
      <g
         id="g670">
        <path
           d="M 4.6875,0.140625 C 3.5,0.140625 2.5625,-0.21875 1.875,-0.9375 1.1875,-1.65625 0.84375,-2.660156 0.84375,-3.953125 c 0,-1.289063 0.316406,-2.316406 0.953125,-3.078125 0.632813,-0.757812 1.488281,-1.140625 2.5625,-1.140625 1.007813,0 1.804687,0.335937 2.390625,1 0.582031,0.65625 0.875,1.527344 0.875,2.609375 v 0.765625 H 2.109375 c 0.019531,0.949219 0.253906,1.667969 0.703125,2.15625 0.457031,0.480469 1.09375,0.71875 1.90625,0.71875 0.863281,0 1.71875,-0.175781 2.5625,-0.53125 V -0.375 c -0.429688,0.1875 -0.835938,0.3203125 -1.21875,0.390625 -0.375,0.0820312 -0.835938,0.125 -1.375,0.125 z M 4.34375,-7.15625 c -0.636719,0 -1.148438,0.214844 -1.53125,0.640625 C 2.425781,-6.097656 2.195312,-5.519531 2.125,-4.78125 H 6.328125 C 6.328125,-5.550781 6.15625,-6.140625 5.8125,-6.546875 5.46875,-6.953125 4.976562,-7.15625 4.34375,-7.15625 Z m 0,0"
           id="path668" />
      </g>
    </g>
  </g>
  <g
     fill="#383838"
     fill-opacity="1"
     id="g796"
     transform="translate(-21.117188,-105.23828)">
    <g
       transform="translate(586.75192,121.06917)"
       id="g680">
      <g
         id="g678">
        <path
           d="M -0.09375,2.8125 C -0.550781,2.8125 -0.910156,2.75 -1.171875,2.625 V 1.5625 c 0.34375,0.09375 0.703125,0.140625 1.078125,0.140625 0.488281,0 0.859375,-0.148437 1.109375,-0.4375 0.25,-0.292969 0.375,-0.714844 0.375,-1.265625 v -10.703125 h 1.25 v 10.59375 c 0,0.9375 -0.234375,1.65625 -0.703125,2.15625 C 1.46875,2.554688 0.789062,2.8125 -0.09375,2.8125 Z m 0,0"
           id="path676" />
      </g>
    </g>
    <g
       transform="translate(590.75827,121.06917)"
       id="g686">
      <g
         id="g684">
        <path
           d="M 4.6875,0.140625 C 3.5,0.140625 2.5625,-0.21875 1.875,-0.9375 1.1875,-1.65625 0.84375,-2.660156 0.84375,-3.953125 c 0,-1.289063 0.316406,-2.316406 0.953125,-3.078125 0.632813,-0.757812 1.488281,-1.140625 2.5625,-1.140625 1.007813,0 1.804687,0.335937 2.390625,1 0.582031,0.65625 0.875,1.527344 0.875,2.609375 v 0.765625 H 2.109375 c 0.019531,0.949219 0.253906,1.667969 0.703125,2.15625 0.457031,0.480469 1.09375,0.71875 1.90625,0.71875 0.863281,0 1.71875,-0.175781 2.5625,-0.53125 V -0.375 c -0.429688,0.1875 -0.835938,0.3203125 -1.21875,0.390625 -0.375,0.0820312 -0.835938,0.125 -1.375,0.125 z M 4.34375,-7.15625 c -0.636719,0 -1.148438,0.214844 -1.53125,0.640625 C 2.425781,-6.097656 2.195312,-5.519531 2.125,-4.78125 H 6.328125 C 6.328125,-5.550781 6.15625,-6.140625 5.8125,-6.546875 5.46875,-6.953125 4.976562,-7.15625 4.34375,-7.15625 Z m 0,0"
           id="path682" />
      </g>
    </g>
    <g
       transform="translate(599.1738,121.06917)"
       id="g690">
      <g
         id="g688" />
    </g>
    <g
       transform="translate(603.07028,121.06917)"
       id="g696">
      <g
         id="g694">
        <path
           d="m 4.953125,-8.171875 c 0.351563,0 0.671875,0.027344 0.953125,0.078125 L 5.75,-6.953125 C 5.414062,-7.023438 5.117188,-7.0625 4.859375,-7.0625 4.210938,-7.0625 3.65625,-6.796875 3.1875,-6.265625 2.726562,-5.742188 2.5,-5.09375 2.5,-4.3125 V 0 H 1.296875 v -8.03125 h 1 L 2.4375,-6.546875 H 2.484375 C 2.785156,-7.066406 3.144531,-7.46875 3.5625,-7.75 3.988281,-8.03125 4.453125,-8.171875 4.953125,-8.171875 Z m 0,0"
           id="path692" />
      </g>
    </g>
    <g
       transform="translate(609.19333,121.06917)"
       id="g702">
      <g
         id="g700">
        <path
           d="M 4.6875,0.140625 C 3.5,0.140625 2.5625,-0.21875 1.875,-0.9375 1.1875,-1.65625 0.84375,-2.660156 0.84375,-3.953125 c 0,-1.289063 0.316406,-2.316406 0.953125,-3.078125 0.632813,-0.757812 1.488281,-1.140625 2.5625,-1.140625 1.007813,0 1.804687,0.335937 2.390625,1 0.582031,0.65625 0.875,1.527344 0.875,2.609375 v 0.765625 H 2.109375 c 0.019531,0.949219 0.253906,1.667969 0.703125,2.15625 0.457031,0.480469 1.09375,0.71875 1.90625,0.71875 0.863281,0 1.71875,-0.175781 2.5625,-0.53125 V -0.375 c -0.429688,0.1875 -0.835938,0.3203125 -1.21875,0.390625 -0.375,0.0820312 -0.835938,0.125 -1.375,0.125 z M 4.34375,-7.15625 c -0.636719,0 -1.148438,0.214844 -1.53125,0.640625 C 2.425781,-6.097656 2.195312,-5.519531 2.125,-4.78125 H 6.328125 C 6.328125,-5.550781 6.15625,-6.140625 5.8125,-6.546875 5.46875,-6.953125 4.976562,-7.15625 4.34375,-7.15625 Z m 0,0"
           id="path698" />
      </g>
    </g>
    <g
       transform="translate(617.60886,121.06917)"
       id="g708">
      <g
         id="g706">
        <path
           d="m 6.46875,-2.1875 c 0,0.75 -0.28125,1.328125 -0.84375,1.734375 -0.554688,0.3984375 -1.335938,0.59375 -2.34375,0.59375 -1.0625,0 -1.890625,-0.1640625 -2.484375,-0.5 v -1.125 c 0.382813,0.199219 0.796875,0.355469 1.234375,0.46875 0.445312,0.105469 0.875,0.15625 1.28125,0.15625 0.632812,0 1.125,-0.097656 1.46875,-0.296875 0.34375,-0.207031 0.515625,-0.519531 0.515625,-0.9375 0,-0.3125 -0.136719,-0.578125 -0.40625,-0.796875 C 4.617188,-3.109375 4.085938,-3.367188 3.296875,-3.671875 2.554688,-3.953125 2.023438,-4.195312 1.703125,-4.40625 1.390625,-4.613281 1.15625,-4.847656 1,-5.109375 0.851562,-5.378906 0.78125,-5.695312 0.78125,-6.0625 c 0,-0.644531 0.265625,-1.15625 0.796875,-1.53125 0.53125,-0.382812 1.257813,-0.578125 2.1875,-0.578125 0.863281,0 1.707031,0.179687 2.53125,0.53125 l -0.4375,0.984375 c -0.804687,-0.332031 -1.53125,-0.5 -2.1875,-0.5 -0.574219,0 -1.007813,0.09375 -1.296875,0.28125 -0.292969,0.179688 -0.4375,0.421875 -0.4375,0.734375 0,0.21875 0.050781,0.40625 0.15625,0.5625 0.113281,0.148437 0.289062,0.289063 0.53125,0.421875 0.25,0.136719 0.71875,0.335938 1.40625,0.59375 0.957031,0.34375 1.601562,0.695312 1.9375,1.046875 0.332031,0.355469 0.5,0.796875 0.5,1.328125 z m 0,0"
           id="path704" />
      </g>
    </g>
    <g
       transform="translate(624.76462,121.06917)"
       id="g714">
      <g
         id="g712">
        <path
           d="m 6.46875,-2.1875 c 0,0.75 -0.28125,1.328125 -0.84375,1.734375 -0.554688,0.3984375 -1.335938,0.59375 -2.34375,0.59375 -1.0625,0 -1.890625,-0.1640625 -2.484375,-0.5 v -1.125 c 0.382813,0.199219 0.796875,0.355469 1.234375,0.46875 0.445312,0.105469 0.875,0.15625 1.28125,0.15625 0.632812,0 1.125,-0.097656 1.46875,-0.296875 0.34375,-0.207031 0.515625,-0.519531 0.515625,-0.9375 0,-0.3125 -0.136719,-0.578125 -0.40625,-0.796875 C 4.617188,-3.109375 4.085938,-3.367188 3.296875,-3.671875 2.554688,-3.953125 2.023438,-4.195312 1.703125,-4.40625 1.390625,-4.613281 1.15625,-4.847656 1,-5.109375 0.851562,-5.378906 0.78125,-5.695312 0.78125,-6.0625 c 0,-0.644531 0.265625,-1.15625 0.796875,-1.53125 0.53125,-0.382812 1.257813,-0.578125 2.1875,-0.578125 0.863281,0 1.707031,0.179687 2.53125,0.53125 l -0.4375,0.984375 c -0.804687,-0.332031 -1.53125,-0.5 -2.1875,-0.5 -0.574219,0 -1.007813,0.09375 -1.296875,0.28125 -0.292969,0.179688 -0.4375,0.421875 -0.4375,0.734375 0,0.21875 0.050781,0.40625 0.15625,0.5625 0.113281,0.148437 0.289062,0.289063 0.53125,0.421875 0.25,0.136719 0.71875,0.335938 1.40625,0.59375 0.957031,0.34375 1.601562,0.695312 1.9375,1.046875 0.332031,0.355469 0.5,0.796875 0.5,1.328125 z m 0,0"
           id="path710" />
      </g>
    </g>
    <g
       transform="translate(631.92038,121.06917)"
       id="g720">
      <g
         id="g718">
        <path
           d="M 4.6875,0.140625 C 3.5,0.140625 2.5625,-0.21875 1.875,-0.9375 1.1875,-1.65625 0.84375,-2.660156 0.84375,-3.953125 c 0,-1.289063 0.316406,-2.316406 0.953125,-3.078125 0.632813,-0.757812 1.488281,-1.140625 2.5625,-1.140625 1.007813,0 1.804687,0.335937 2.390625,1 0.582031,0.65625 0.875,1.527344 0.875,2.609375 v 0.765625 H 2.109375 c 0.019531,0.949219 0.253906,1.667969 0.703125,2.15625 0.457031,0.480469 1.09375,0.71875 1.90625,0.71875 0.863281,0 1.71875,-0.175781 2.5625,-0.53125 V -0.375 c -0.429688,0.1875 -0.835938,0.3203125 -1.21875,0.390625 -0.375,0.0820312 -0.835938,0.125 -1.375,0.125 z M 4.34375,-7.15625 c -0.636719,0 -1.148438,0.214844 -1.53125,0.640625 C 2.425781,-6.097656 2.195312,-5.519531 2.125,-4.78125 H 6.328125 C 6.328125,-5.550781 6.15625,-6.140625 5.8125,-6.546875 5.46875,-6.953125 4.976562,-7.15625 4.34375,-7.15625 Z m 0,0"
           id="path716" />
      </g>
    </g>
    <g
       transform="translate(640.33591,121.06917)"
       id="g726">
      <g
         id="g724">
        <path
           d="m 6.78125,0 v -5.1875 c 0,-0.65625 -0.152344,-1.144531 -0.453125,-1.46875 C 6.035156,-6.976562 5.570312,-7.140625 4.9375,-7.140625 c -0.84375,0 -1.464844,0.230469 -1.859375,0.6875 C 2.691406,-6.003906 2.5,-5.257812 2.5,-4.21875 V 0 H 1.296875 V -8.03125 H 2.28125 l 0.1875,1.109375 h 0.0625 c 0.25,-0.394531 0.597656,-0.703125 1.046875,-0.921875 0.445313,-0.21875 0.945313,-0.328125 1.5,-0.328125 0.96875,0 1.695313,0.234375 2.1875,0.703125 C 7.753906,-7.007812 8,-6.265625 8,-5.234375 V 0 Z m 0,0"
           id="path722" />
      </g>
    </g>
    <g
       transform="translate(649.54245,121.06917)"
       id="g732">
      <g
         id="g730">
        <path
           d="m 6.46875,-2.1875 c 0,0.75 -0.28125,1.328125 -0.84375,1.734375 -0.554688,0.3984375 -1.335938,0.59375 -2.34375,0.59375 -1.0625,0 -1.890625,-0.1640625 -2.484375,-0.5 v -1.125 c 0.382813,0.199219 0.796875,0.355469 1.234375,0.46875 0.445312,0.105469 0.875,0.15625 1.28125,0.15625 0.632812,0 1.125,-0.097656 1.46875,-0.296875 0.34375,-0.207031 0.515625,-0.519531 0.515625,-0.9375 0,-0.3125 -0.136719,-0.578125 -0.40625,-0.796875 C 4.617188,-3.109375 4.085938,-3.367188 3.296875,-3.671875 2.554688,-3.953125 2.023438,-4.195312 1.703125,-4.40625 1.390625,-4.613281 1.15625,-4.847656 1,-5.109375 0.851562,-5.378906 0.78125,-5.695312 0.78125,-6.0625 c 0,-0.644531 0.265625,-1.15625 0.796875,-1.53125 0.53125,-0.382812 1.257813,-0.578125 2.1875,-0.578125 0.863281,0 1.707031,0.179687 2.53125,0.53125 l -0.4375,0.984375 c -0.804687,-0.332031 -1.53125,-0.5 -2.1875,-0.5 -0.574219,0 -1.007813,0.09375 -1.296875,0.28125 -0.292969,0.179688 -0.4375,0.421875 -0.4375,0.734375 0,0.21875 0.050781,0.40625 0.15625,0.5625 0.113281,0.148437 0.289062,0.289063 0.53125,0.421875 0.25,0.136719 0.71875,0.335938 1.40625,0.59375 0.957031,0.34375 1.601562,0.695312 1.9375,1.046875 0.332031,0.355469 0.5,0.796875 0.5,1.328125 z m 0,0"
           id="path728" />
      </g>
    </g>
    <g
       transform="translate(656.69821,121.06917)"
       id="g736">
      <g
         id="g734" />
    </g>
    <g
       transform="translate(660.59469,121.06917)"
       id="g742">
      <g
         id="g740">
        <path
           d="M 6.75,-1.078125 H 6.6875 c -0.5625,0.8125 -1.402344,1.21875 -2.515625,1.21875 -1.054687,0 -1.871094,-0.351563 -2.453125,-1.0625 -0.585938,-0.71875 -0.875,-1.738281 -0.875,-3.0625 0,-1.332031 0.289062,-2.363281 0.875,-3.09375 0.582031,-0.726563 1.398438,-1.09375 2.453125,-1.09375 1.082031,0 1.914063,0.398437 2.5,1.1875 h 0.09375 L 6.71875,-7.5625 6.6875,-8.125 v -3.265625 H 7.90625 V 0 H 6.921875 Z M 4.328125,-0.875 c 0.820313,0 1.421875,-0.222656 1.796875,-0.671875 0.375,-0.457031 0.5625,-1.1875 0.5625,-2.1875 v -0.25 c 0,-1.144531 -0.195312,-1.957031 -0.578125,-2.4375 -0.375,-0.488281 -0.976563,-0.734375 -1.796875,-0.734375 -0.71875,0 -1.265625,0.277344 -1.640625,0.828125 -0.375,0.554687 -0.5625,1.335937 -0.5625,2.34375 0,1.03125 0.1875,1.808594 0.5625,2.328125 0.375,0.523438 0.925781,0.78125 1.65625,0.78125 z m 0,0"
           id="path738" />
      </g>
    </g>
    <g
       transform="translate(669.78659,121.06917)"
       id="g748">
      <g
         id="g746">
        <path
           d="m 2.4375,-8.03125 v 5.21875 c 0,0.648438 0.144531,1.132812 0.4375,1.453125 0.300781,0.324219 0.769531,0.484375 1.40625,0.484375 0.832031,0 1.441406,-0.226562 1.828125,-0.6875 0.394531,-0.457031 0.59375,-1.207031 0.59375,-2.25 v -4.21875 h 1.21875 V 0 h -1 l -0.1875,-1.078125 h -0.0625 c -0.25,0.398437 -0.601563,0.699219 -1.046875,0.90625 -0.4375,0.2070312 -0.9375,0.3125 -1.5,0.3125 -0.980469,0 -1.714844,-0.2265625 -2.203125,-0.6875 -0.480469,-0.46875 -0.71875,-1.210937 -0.71875,-2.234375 v -5.25 z m 0,0"
           id="path744" />
      </g>
    </g>
    <g
       transform="translate(678.99313,121.06917)"
       id="g752">
      <g
         id="g750" />
    </g>
    <g
       transform="translate(682.88962,121.06917)"
       id="g758">
      <g
         id="g756">
        <path
           d="M 5.03125,0.140625 C 4.5,0.140625 4.015625,0.046875 3.578125,-0.140625 3.148438,-0.335938 2.789062,-0.632812 2.5,-1.03125 H 2.421875 C 2.472656,-0.5625 2.5,-0.117188 2.5,0.296875 v 3.3125 H 1.296875 V -8.03125 H 2.28125 l 0.171875,1.109375 H 2.5 C 2.8125,-7.367188 3.175781,-7.6875 3.59375,-7.875 c 0.414062,-0.195312 0.894531,-0.296875 1.4375,-0.296875 1.0625,0 1.878906,0.367187 2.453125,1.09375 0.582031,0.730469 0.875,1.75 0.875,3.0625 0,1.3125 -0.296875,2.335937 -0.890625,3.0625 -0.585938,0.730469 -1.398438,1.09375 -2.4375,1.09375 z m -0.1875,-7.28125 c -0.8125,0 -1.40625,0.230469 -1.78125,0.6875 -0.367188,0.449219 -0.554688,1.167969 -0.5625,2.15625 v 0.28125 c 0,1.125 0.1875,1.933594 0.5625,2.421875 0.382812,0.480469 0.988281,0.71875 1.8125,0.71875 0.695312,0 1.238281,-0.28125 1.625,-0.84375 0.394531,-0.5625 0.59375,-1.332031 0.59375,-2.3125 0,-1 -0.199219,-1.765625 -0.59375,-2.296875 -0.386719,-0.539063 -0.9375,-0.8125 -1.65625,-0.8125 z m 0,0"
           id="path754" />
      </g>
    </g>
    <g
       transform="translate(692.08151,121.06917)"
       id="g764">
      <g
         id="g762">
        <path
           d="M 2.5,0 H 1.296875 V -11.390625 H 2.5 Z m 0,0"
           id="path760" />
      </g>
    </g>
    <g
       transform="translate(695.87545,121.06917)"
       id="g770">
      <g
         id="g768">
        <path
           d="M 6.21875,0 5.984375,-1.140625 h -0.0625 C 5.523438,-0.640625 5.125,-0.300781 4.71875,-0.125 4.320312,0.0507812 3.828125,0.140625 3.234375,0.140625 2.441406,0.140625 1.816406,-0.0625 1.359375,-0.46875 0.910156,-0.875 0.6875,-1.457031 0.6875,-2.21875 c 0,-1.625 1.296875,-2.472656 3.890625,-2.546875 L 5.9375,-4.8125 v -0.5 c 0,-0.625 -0.136719,-1.085938 -0.40625,-1.390625 C 5.257812,-7.003906 4.828125,-7.15625 4.234375,-7.15625 c -0.667969,0 -1.421875,0.203125 -2.265625,0.609375 l -0.375,-0.921875 c 0.394531,-0.21875 0.828125,-0.382812 1.296875,-0.5 0.46875,-0.125 0.941406,-0.1875 1.421875,-0.1875 0.957031,0 1.664062,0.214844 2.125,0.640625 0.457031,0.417969 0.6875,1.09375 0.6875,2.03125 V 0 Z M 3.484375,-0.859375 c 0.75,0 1.335937,-0.207031 1.765625,-0.625 0.4375,-0.414063 0.65625,-0.992187 0.65625,-1.734375 v -0.734375 l -1.21875,0.0625 C 3.726562,-3.859375 3.035156,-3.707031 2.609375,-3.4375 2.179688,-3.175781 1.96875,-2.765625 1.96875,-2.203125 c 0,0.4375 0.128906,0.773437 0.390625,1 0.269531,0.230469 0.644531,0.34375 1.125,0.34375 z m 0,0"
           id="path766" />
      </g>
    </g>
    <g
       transform="translate(704.21774,121.06917)"
       id="g776">
      <g
         id="g774">
        <path
           d="M 2.5,0 H 1.296875 V -8.03125 H 2.5 Z M 1.1875,-10.203125 c 0,-0.28125 0.066406,-0.484375 0.203125,-0.609375 0.132813,-0.132812 0.304687,-0.203125 0.515625,-0.203125 0.195312,0 0.363281,0.07031 0.5,0.203125 0.144531,0.136719 0.21875,0.339844 0.21875,0.609375 0,0.273437 -0.074219,0.476563 -0.21875,0.609375 -0.136719,0.136719 -0.304688,0.203125 -0.5,0.203125 -0.210938,0 -0.382812,-0.066406 -0.515625,-0.203125 C 1.253906,-9.726562 1.1875,-9.929688 1.1875,-10.203125 Z m 0,0"
           id="path772" />
      </g>
    </g>
    <g
       transform="translate(708.01169,121.06917)"
       id="g782">
      <g
         id="g780">
        <path
           d="m 6.46875,-2.1875 c 0,0.75 -0.28125,1.328125 -0.84375,1.734375 -0.554688,0.3984375 -1.335938,0.59375 -2.34375,0.59375 -1.0625,0 -1.890625,-0.1640625 -2.484375,-0.5 v -1.125 c 0.382813,0.199219 0.796875,0.355469 1.234375,0.46875 0.445312,0.105469 0.875,0.15625 1.28125,0.15625 0.632812,0 1.125,-0.097656 1.46875,-0.296875 0.34375,-0.207031 0.515625,-0.519531 0.515625,-0.9375 0,-0.3125 -0.136719,-0.578125 -0.40625,-0.796875 C 4.617188,-3.109375 4.085938,-3.367188 3.296875,-3.671875 2.554688,-3.953125 2.023438,-4.195312 1.703125,-4.40625 1.390625,-4.613281 1.15625,-4.847656 1,-5.109375 0.851562,-5.378906 0.78125,-5.695312 0.78125,-6.0625 c 0,-0.644531 0.265625,-1.15625 0.796875,-1.53125 0.53125,-0.382812 1.257813,-0.578125 2.1875,-0.578125 0.863281,0 1.707031,0.179687 2.53125,0.53125 l -0.4375,0.984375 c -0.804687,-0.332031 -1.53125,-0.5 -2.1875,-0.5 -0.574219,0 -1.007813,0.09375 -1.296875,0.28125 -0.292969,0.179688 -0.4375,0.421875 -0.4375,0.734375 0,0.21875 0.050781,0.40625 0.15625,0.5625 0.113281,0.148437 0.289062,0.289063 0.53125,0.421875 0.25,0.136719 0.71875,0.335938 1.40625,0.59375 0.957031,0.34375 1.601562,0.695312 1.9375,1.046875 0.332031,0.355469 0.5,0.796875 0.5,1.328125 z m 0,0"
           id="path778" />
      </g>
    </g>
    <g
       transform="translate(715.16745,121.06917)"
       id="g788">
      <g
         id="g786">
        <path
           d="M 2.5,0 H 1.296875 V -8.03125 H 2.5 Z M 1.1875,-10.203125 c 0,-0.28125 0.066406,-0.484375 0.203125,-0.609375 0.132813,-0.132812 0.304687,-0.203125 0.515625,-0.203125 0.195312,0 0.363281,0.07031 0.5,0.203125 0.144531,0.136719 0.21875,0.339844 0.21875,0.609375 0,0.273437 -0.074219,0.476563 -0.21875,0.609375 -0.136719,0.136719 -0.304688,0.203125 -0.5,0.203125 -0.210938,0 -0.382812,-0.066406 -0.515625,-0.203125 C 1.253906,-9.726562 1.1875,-9.929688 1.1875,-10.203125 Z m 0,0"
           id="path784" />
      </g>
    </g>
    <g
       transform="translate(718.96139,121.06917)"
       id="g794">
      <g
         id="g792">
        <path
           d="m 4.953125,-8.171875 c 0.351563,0 0.671875,0.027344 0.953125,0.078125 L 5.75,-6.953125 C 5.414062,-7.023438 5.117188,-7.0625 4.859375,-7.0625 4.210938,-7.0625 3.65625,-6.796875 3.1875,-6.265625 2.726562,-5.742188 2.5,-5.09375 2.5,-4.3125 V 0 H 1.296875 v -8.03125 h 1 L 2.4375,-6.546875 H 2.484375 C 2.785156,-7.066406 3.144531,-7.46875 3.5625,-7.75 3.988281,-8.03125 4.453125,-8.171875 4.953125,-8.171875 Z m 0,0"
           id="path790" />
      </g>
    </g>
  </g>
  <g
     clip-path="url(#2ac208d5a7)"
     id="g800"
     transform="translate(-21.117188,-105.23828)">
    <path
       fill="#383838"
       d="m 551.85937,123.77734 c 0.46094,-1.05468 0.85938,-2.17968 1.09766,-3.09375 0.18359,-0.71875 0.44141,-2.1914 0.44141,-2.53125 v -0.24609 h -41.14453 v -2.83594 h 41.14453 v -0.24609 c 0,-0.33594 -0.25782,-1.80859 -0.44141,-2.52734 -0.23828,-0.91797 -0.63672,-2.04297 -1.09766,-3.09375 -0.23437,-0.53125 -0.41796,-0.96485 -0.41015,-0.96485 0.0937,0 19.19922,8.19531 19.21484,8.24219 0.0117,0.0469 -19.09375,8.25781 -19.21484,8.25781 -0.008,0 0.17578,-0.43359 0.41015,-0.96094 z m 0,0"
       fill-opacity="1"
       fill-rule="nonzero"
       id="path798" />
  </g>
  <g
     clip-path="url(#0da7fb18c2)"
     id="g804"
     transform="translate(-21.117188,-139.23828)">
    <path
       fill="#383838"
       d="m 489.66797,365.53906 c 0.46484,-1.05469 0.86328,-2.17969 1.09765,-3.09375 0.1836,-0.71875 0.44141,-2.1914 0.44141,-2.53125 v -0.24609 H 450.0625 v -2.83594 h 41.14453 v -0.24609 c 0,-0.33594 -0.25781,-1.8086 -0.44141,-2.52735 -0.23437,-0.91797 -0.63281,-2.04297 -1.09765,-3.09375 C 489.43359,350.43359 489.25,350 489.25781,350 c 0.0937,0 19.20313,8.19531 19.21485,8.24219 0.0117,0.0469 -19.09375,8.25781 -19.21485,8.25781 -0.008,0 0.17969,-0.43359 0.41016,-0.96094 z m 0,0"
       fill-opacity="1"
       fill-rule="nonzero"
       id="path802" />
  </g>
  <g
     clip-path="url(#389cab0a83)"
     id="g808"
     transform="translate(-21.117188,-139.23828)">
    <path
       fill="#383838"
       d="m 489.66797,404.375 c 0.46484,-1.05078 0.86328,-2.17578 1.09765,-3.09375 0.1836,-0.71875 0.44141,-2.19141 0.44141,-2.52734 v -0.25 H 450.0625 v -2.83204 h 41.14453 v -0.25 c 0,-0.33593 -0.25781,-1.80859 -0.44141,-2.52734 -0.23437,-0.91797 -0.63281,-2.04297 -1.09765,-3.09375 -0.23438,-0.53125 -0.41797,-0.96094 -0.41016,-0.96094 0.0937,0 19.20313,8.19532 19.21485,8.23828 0.0117,0.0469 -19.09375,8.26172 -19.21485,8.26172 -0.008,0 0.17969,-0.43359 0.41016,-0.96484 z m 0,0"
       fill-opacity="1"
       fill-rule="nonzero"
       id="path806" />
  </g>
  <g
     clip-path="url(#3e45d8a867)"
     id="g812"
     transform="translate(-21.117188,-139.23828)">
    <path
       fill="#383838"
       d="m 489.66797,445.77734 c 0.46484,-1.05468 0.86328,-2.17968 1.09765,-3.09375 0.1836,-0.71875 0.44141,-2.1914 0.44141,-2.53125 v -0.24609 H 450.0625 v -2.83594 h 41.14453 v -0.24609 c 0,-0.33594 -0.25781,-1.8086 -0.44141,-2.52735 -0.23437,-0.91796 -0.63281,-2.04296 -1.09765,-3.09375 -0.23438,-0.53125 -0.41797,-0.96484 -0.41016,-0.96484 0.0937,0 19.20313,8.19531 19.21485,8.24219 0.0117,0.0469 -19.09375,8.25781 -19.21485,8.25781 -0.008,0 0.17969,-0.43359 0.41016,-0.96094 z m 0,0"
       fill-opacity="1"
       fill-rule="nonzero"
       id="path810" />
  </g>
  <g
     clip-path="url(#ff41574527)"
     id="g816"
     transform="translate(-21.117188,-139.23828)">
    <path
       fill="#383838"
       d="m 489.66797,489.86328 c 0.46484,-1.05078 0.86328,-2.17578 1.09765,-3.09375 0.1836,-0.71875 0.44141,-2.19141 0.44141,-2.52734 v -0.25 H 450.0625 v -2.83203 h 41.14453 v -0.25 c 0,-0.33594 -0.25781,-1.8086 -0.44141,-2.52735 -0.23437,-0.91797 -0.63281,-2.04297 -1.09765,-3.09375 -0.23438,-0.53125 -0.41797,-0.96094 -0.41016,-0.96094 0.0937,0 19.20313,8.19532 19.21485,8.23829 0.0117,0.0469 -19.09375,8.26171 -19.21485,8.26171 -0.008,0 0.17969,-0.43359 0.41016,-0.96484 z m 0,0"
       fill-opacity="1"
       fill-rule="nonzero"
       id="path814" />
  </g>
  <g
     clip-path="url(#9a74d52294)"
     id="g820"
     transform="matrix(1.0669568,0,0,0.8786223,-22.531127,-87.192967)">
    <path
       fill="#3c8ebb"
       d="M 21.117188,99.238281 H 258.71484 V 518.41406 H 21.117188 Z m 0,0"
       fill-opacity="1"
       fill-rule="nonzero"
       id="path818" />
  </g>
  <path
     fill="#ffffff"
     d="m 23.171874,26.343819 c 0,0.34766 -0.06641,0.67969 -0.199218,1.00391 -0.132813,0.32031 -0.324219,0.60547 -0.570313,0.85156 -0.246093,0.2461 -0.53125,0.4336 -0.851562,0.56641 -0.320313,0.13281 -0.65625,0.20312 -1.003907,0.20312 -0.347656,0 -0.683593,-0.0703 -1.003906,-0.20312 -0.324218,-0.13281 -0.605468,-0.32031 -0.851562,-0.56641 -0.246094,-0.24609 -0.4375,-0.53125 -0.570313,-0.85156 -0.132812,-0.32422 -0.199219,-0.65625 -0.199219,-1.00391 0,-0.35156 0.06641,-0.68359 0.199219,-1.00781 0.132813,-0.32031 0.324219,-0.60547 0.570313,-0.85156 0.246094,-0.24609 0.527344,-0.43359 0.851562,-0.56641 0.320313,-0.13281 0.65625,-0.19922 1.003906,-0.19922 0.347657,0 0.683594,0.0664 1.003907,0.19922 0.320312,0.13282 0.605469,0.32032 0.851562,0.56641 0.246094,0.24609 0.4375,0.53125 0.570313,0.85156 0.132812,0.32422 0.199218,0.65625 0.199218,1.00781 z m 0,0"
     fill-opacity="1"
     fill-rule="nonzero"
     id="path1980" />
  <g
     fill="#ffffff"
     fill-opacity="1"
     id="g2066"
     transform="translate(-21.117188,-99.238281)">
    <g
       transform="translate(132.96082,130.36919)"
       id="g2064">
      <g
         id="g2062" />
    </g>
  </g>
  <g
     fill="#ffffff"
     fill-opacity="1"
     id="g2088"
     transform="translate(-21.117188,-99.238281)">
    <g
       transform="translate(155.23833,130.36919)"
       id="g2086">
      <g
         id="g2084" />
    </g>
  </g>
  <path
     fill="#ffffff"
     d="m 23.171874,48.133871 c 0,0.34766 -0.06641,0.67969 -0.199218,1.00391 -0.132813,0.32031 -0.324219,0.60547 -0.570313,0.85156 -0.246093,0.2461 -0.53125,0.4336 -0.851562,0.56641 -0.320313,0.13281 -0.65625,0.20312 -1.003907,0.20312 -0.347656,0 -0.683593,-0.0703 -1.003906,-0.20312 -0.324218,-0.13281 -0.605468,-0.32031 -0.851562,-0.56641 -0.246094,-0.24609 -0.4375,-0.53125 -0.570313,-0.85156 -0.132812,-0.32422 -0.199219,-0.65625 -0.199219,-1.00391 0,-0.35156 0.06641,-0.68359 0.199219,-1.00781 0.132813,-0.32031 0.324219,-0.60547 0.570313,-0.85156 0.246094,-0.2461 0.527344,-0.4336 0.851562,-0.56641 0.320313,-0.13281 0.65625,-0.19922 1.003906,-0.19922 0.347657,0 0.683594,0.0664 1.003907,0.19922 0.320312,0.13281 0.605469,0.32031 0.851562,0.56641 0.246094,0.24609 0.4375,0.53125 0.570313,0.85156 0.132812,0.32422 0.199218,0.65625 0.199218,1.00781 z m 0,0"
     fill-opacity="1"
     fill-rule="nonzero"
     id="path2146" />
  <g
     fill="#ffffff"
     fill-opacity="1"
     id="g2192"
     transform="translate(-21.117188,-99.238281)">
    <g
       transform="translate(92.028454,155.11919)"
       id="g2190">
      <g
         id="g2188" />
    </g>
  </g>
  <g
     fill="#ffffff"
     fill-opacity="1"
     id="g2214"
     transform="translate(-21.117188,-99.238281)">
    <g
       transform="translate(114.17423,155.11919)"
       id="g2212">
      <g
         id="g2210" />
    </g>
  </g>
  <g
     fill="#ffffff"
     fill-opacity="1"
     id="g2260"
     transform="translate(-21.117188,-99.238281)">
    <g
       transform="translate(152.72077,155.11919)"
       id="g2258">
      <g
         id="g2256" />
    </g>
  </g>
  <g
     fill="#ffffff"
     fill-opacity="1"
     id="g2282"
     transform="translate(-21.117188,-99.238281)">
    <g
       transform="translate(174.20789,155.11919)"
       id="g2280">
      <g
         id="g2278" />
    </g>
  </g>
  <path
     fill="#ffffff"
     d="m 23.171874,91.024061 c 0,0.347661 -0.06641,0.679691 -0.199218,1.003911 -0.132813,0.32031 -0.324219,0.60547 -0.570313,0.85156 -0.246093,0.2461 -0.53125,0.4336 -0.851562,0.56641 -0.320313,0.13281 -0.65625,0.20312 -1.003907,0.20312 -0.347656,0 -0.683593,-0.0703 -1.003906,-0.20312 -0.324218,-0.13281 -0.605468,-0.32031 -0.851562,-0.56641 -0.246094,-0.24609 -0.4375,-0.53125 -0.570313,-0.85156 -0.132812,-0.32422 -0.199219,-0.65625 -0.199219,-1.003911 0,-0.35156 0.06641,-0.68359 0.199219,-1.00781 0.132813,-0.32031 0.324219,-0.60547 0.570313,-0.85156 0.246094,-0.2461 0.527344,-0.4336 0.851562,-0.56641 0.320313,-0.13281 0.65625,-0.19922 1.003906,-0.19922 0.347657,0 0.683594,0.0664 1.003907,0.19922 0.320312,0.13281 0.605469,0.32031 0.851562,0.56641 0.246094,0.24609 0.4375,0.53125 0.570313,0.85156 0.132812,0.32422 0.199218,0.65625 0.199218,1.00781 z m 0,0"
     fill-opacity="1"
     fill-rule="nonzero"
     id="path2404" />
  <g
     fill="#ffffff"
     fill-opacity="1"
     id="g2490"
     transform="translate(-21.117188,-99.238281)">
    <g
       transform="translate(132.96082,204.61919)"
       id="g2488">
      <g
         id="g2486" />
    </g>
  </g>
  <g
     fill="#ffffff"
     fill-opacity="1"
     id="g2608"
     transform="translate(-21.117188,-99.238281)">
    <g
       transform="translate(153.03547,229.36919)"
       id="g2606">
      <g
         id="g2604" />
    </g>
  </g>
  <g
     fill="#ffffff"
     fill-opacity="1"
     id="g2630"
     transform="translate(-21.117188,-99.238281)">
    <g
       transform="translate(174.52259,229.36919)"
       id="g2628">
      <g
         id="g2626" />
    </g>
  </g>
  <path
     fill="#ffffff"
     d="m 23.222176,154.34706 c 0,0.34766 -0.06641,0.67969 -0.199218,1.00391 -0.132813,0.32031 -0.324219,0.60547 -0.570313,0.85156 -0.246093,0.2461 -0.53125,0.4336 -0.851562,0.56641 -0.320313,0.13281 -0.65625,0.20312 -1.003907,0.20312 -0.347656,0 -0.683593,-0.0703 -1.003906,-0.20312 -0.324218,-0.13281 -0.605468,-0.32031 -0.851562,-0.56641 -0.246094,-0.24609 -0.4375,-0.53125 -0.570313,-0.85156 -0.132812,-0.32422 -0.199219,-0.65625 -0.199219,-1.00391 0,-0.35156 0.06641,-0.68359 0.199219,-1.00781 0.132813,-0.32031 0.324219,-0.60547 0.570313,-0.85156 0.246094,-0.2461 0.527344,-0.4336 0.851562,-0.56641 0.320313,-0.13281 0.65625,-0.19922 1.003906,-0.19922 0.347657,0 0.683594,0.0664 1.003907,0.19922 0.320312,0.13281 0.605469,0.32031 0.851562,0.56641 0.246094,0.24609 0.4375,0.53125 0.570313,0.85156 0.132812,0.32422 0.199218,0.65625 0.199218,1.00781 z m 0,0"
     fill-opacity="1"
     fill-rule="nonzero"
     id="path2704" />
  <g
     fill="#ffffff"
     fill-opacity="1"
     id="g2774"
     transform="translate(-21.117188,-99.238281)">
    <g
       transform="translate(119.6997,254.11918)"
       id="g2772">
      <g
         id="g2770" />
    </g>
  </g>
  <g
     fill="#ffffff"
     fill-opacity="1"
     id="g2796"
     transform="translate(-21.117188,-99.238281)">
    <g
       transform="translate(141.84549,254.11918)"
       id="g2794">
      <g
         id="g2792" />
    </g>
  </g>
  <path
     fill="#ffffff"
     d="m 23.410649,133.38089 c 0,0.34766 -0.06641,0.67969 -0.199218,1.00391 -0.132813,0.32031 -0.324219,0.60547 -0.570313,0.85156 -0.246093,0.2461 -0.53125,0.4336 -0.851562,0.56641 -0.320313,0.13281 -0.65625,0.20312 -1.003907,0.20312 -0.347656,0 -0.683593,-0.0703 -1.003906,-0.20312 -0.324218,-0.13281 -0.605468,-0.32031 -0.851562,-0.56641 -0.246094,-0.24609 -0.4375,-0.53125 -0.570313,-0.85156 -0.132812,-0.32422 -0.199219,-0.65625 -0.199219,-1.00391 0,-0.35156 0.06641,-0.68359 0.199219,-1.00781 0.132813,-0.32031 0.324219,-0.60547 0.570313,-0.85156 0.246094,-0.2461 0.527344,-0.4336 0.851562,-0.56641 0.320313,-0.13281 0.65625,-0.19922 1.003906,-0.19922 0.347657,0 0.683594,0.0664 1.003907,0.19922 0.320312,0.13281 0.605469,0.32031 0.851562,0.56641 0.246094,0.24609 0.4375,0.53125 0.570313,0.85156 0.132812,0.32422 0.199218,0.65625 0.199218,1.00781 z m 0,0"
     fill-opacity="1"
     fill-rule="nonzero"
     id="path2886" />
  <g
     fill="#ffffff"
     fill-opacity="1"
     id="g2964"
     transform="translate(-21.117188,-99.238281)">
    <g
       transform="translate(117.22604,278.86918)"
       id="g2962">
      <g
         id="g2960" />
    </g>
  </g>
  <g
     fill="#ffffff"
     fill-opacity="1"
     id="g2986"
     transform="translate(-21.117188,-99.238281)">
    <g
       transform="translate(139.37182,278.86918)"
       id="g2984">
      <g
         id="g2982" />
    </g>
  </g>
  <path
     fill="#ffffff"
     d="m 23.272769,218.2927 c 0,0.34766 -0.06641,0.67969 -0.199218,1.00391 -0.132813,0.32031 -0.324219,0.60547 -0.570313,0.85156 -0.246093,0.2461 -0.53125,0.4336 -0.851562,0.56641 -0.320313,0.13281 -0.65625,0.20312 -1.003907,0.20312 -0.347656,0 -0.683593,-0.0703 -1.003906,-0.20312 -0.324218,-0.13281 -0.605468,-0.32031 -0.851562,-0.56641 -0.246094,-0.24609 -0.4375,-0.53125 -0.570313,-0.85156 -0.132812,-0.32422 -0.199219,-0.65625 -0.199219,-1.00391 0,-0.35156 0.06641,-0.68359 0.199219,-1.00781 0.132813,-0.32031 0.324219,-0.60547 0.570313,-0.85156 0.246094,-0.2461 0.527344,-0.4336 0.851562,-0.56641 0.320313,-0.13281 0.65625,-0.19922 1.003906,-0.19922 0.347657,0 0.683594,0.0664 1.003907,0.19922 0.320312,0.13281 0.605469,0.32031 0.851562,0.56641 0.246094,0.24609 0.4375,0.53125 0.570313,0.85156 0.132812,0.32422 0.199218,0.65625 0.199218,1.00781 z m 0,0"
     fill-opacity="1"
     fill-rule="nonzero"
     id="path3196" />
  <g
     fill="#ffffff"
     fill-opacity="1"
     id="g3258"
     transform="translate(-21.117188,-99.238281)">
    <g
       transform="translate(105.75064,328.36918)"
       id="g3256">
      <g
         id="g3254" />
    </g>
  </g>
  <g
     fill="#ffffff"
     fill-opacity="1"
     id="g3280"
     transform="translate(-21.117188,-99.238281)">
    <g
       transform="translate(123.34432,328.36918)"
       id="g3278">
      <g
         id="g3276" />
    </g>
  </g>
  <g
     fill="#ffffff"
     fill-opacity="1"
     id="g3326"
     transform="translate(-21.117188,-99.238281)">
    <g
       transform="translate(164.64993,328.36918)"
       id="g3324">
      <g
         id="g3322" />
    </g>
  </g>
  <path
     fill="#ffffff"
     d="m 23.171874,260.25781 c 0,0.34766 -0.06641,0.67969 -0.199218,1.00391 -0.132813,0.32031 -0.324219,0.60547 -0.570313,0.85156 -0.246093,0.2461 -0.53125,0.4336 -0.851562,0.56641 -0.320313,0.13281 -0.65625,0.20312 -1.003907,0.20312 -0.347656,0 -0.683593,-0.0703 -1.003906,-0.20312 -0.324218,-0.13281 -0.605468,-0.32031 -0.851562,-0.56641 -0.246094,-0.24609 -0.4375,-0.53125 -0.570313,-0.85156 -0.132812,-0.32422 -0.199219,-0.65625 -0.199219,-1.00391 0,-0.35156 0.06641,-0.68359 0.199219,-1.00781 0.132813,-0.32031 0.324219,-0.60547 0.570313,-0.85156 0.246094,-0.2461 0.527344,-0.4336 0.851562,-0.56641 0.320313,-0.13281 0.65625,-0.19922 1.003906,-0.19922 0.347657,0 0.683594,0.0664 1.003907,0.19922 0.320312,0.13281 0.605469,0.32031 0.851562,0.56641 0.246094,0.24609 0.4375,0.53125 0.570313,0.85156 0.132812,0.32422 0.199218,0.65625 0.199218,1.00781 z m 0,0"
     fill-opacity="1"
     fill-rule="nonzero"
     id="path3400" />
  <g
     fill="#ffffff"
     fill-opacity="1"
     id="g3518"
     transform="translate(-21.117188,-99.238281)">
    <g
       transform="translate(155.53107,353.11918)"
       id="g3516">
      <g
         id="g3514" />
    </g>
  </g>
  <g
     fill="#ffffff"
     fill-opacity="1"
     id="g3540"
     transform="translate(-21.117188,-99.238281)">
    <g
       transform="translate(173.12475,353.11918)"
       id="g3538">
      <g
         id="g3536" />
    </g>
  </g>
  <path
     fill="#ffffff"
     d="m 23.241325,303.26384 c 0,0.34766 -0.06641,0.67969 -0.199218,1.00391 -0.132813,0.32031 -0.324219,0.60547 -0.570313,0.85156 -0.246093,0.2461 -0.53125,0.4336 -0.851562,0.56641 -0.320313,0.13281 -0.65625,0.20312 -1.003907,0.20312 -0.347656,0 -0.683593,-0.0703 -1.003906,-0.20312 -0.324218,-0.13281 -0.605468,-0.32031 -0.851562,-0.56641 -0.246094,-0.24609 -0.4375,-0.53125 -0.570313,-0.85156 -0.132812,-0.32422 -0.199219,-0.65625 -0.199219,-1.00391 0,-0.35156 0.06641,-0.68359 0.199219,-1.00781 0.132813,-0.32031 0.324219,-0.60547 0.570313,-0.85156 0.246094,-0.2461 0.527344,-0.4336 0.851562,-0.56641 0.320313,-0.13281 0.65625,-0.19922 1.003906,-0.19922 0.347657,0 0.683594,0.0664 1.003907,0.19922 0.320312,0.13281 0.605469,0.32031 0.851562,0.56641 0.246094,0.24609 0.4375,0.53125 0.570313,0.85156 0.132812,0.32422 0.199218,0.65625 0.199218,1.00781 z m 0,0"
     fill-opacity="1"
     fill-rule="nonzero"
     id="path3710" />
  <g
     fill="#ffffff"
     fill-opacity="1"
     id="g3804"
     transform="translate(-21.117188,-99.238281)">
    <g
       transform="translate(124.42013,402.61918)"
       id="g3802">
      <g
         id="g3800" />
    </g>
  </g>
  <g
     fill="#ffffff"
     fill-opacity="1"
     id="g3826"
     transform="translate(-21.117188,-99.238281)">
    <g
       transform="translate(145.90725,402.61918)"
       id="g3824">
      <g
         id="g3822" />
    </g>
  </g>
  <g
     fill="#ffffff"
     fill-opacity="1"
     id="g3952"
     transform="translate(-21.117188,-99.238281)">
    <g
       transform="translate(73.029625,427.36918)"
       id="g3950">
      <g
         id="g3948" />
    </g>
  </g>
  <path
     fill="#ffffff"
     d="m 23.431024,196.82327 c 0,0.34766 -0.06641,0.67969 -0.199218,1.00391 -0.132813,0.32031 -0.324219,0.60547 -0.570313,0.85156 -0.246093,0.2461 -0.53125,0.4336 -0.851562,0.56641 -0.320313,0.13281 -0.65625,0.20312 -1.003907,0.20312 -0.347656,0 -0.683593,-0.0703 -1.003906,-0.20312 -0.324218,-0.13281 -0.605468,-0.32031 -0.851562,-0.56641 -0.246094,-0.24609 -0.4375,-0.53125 -0.570313,-0.85156 -0.132812,-0.32422 -0.199219,-0.65625 -0.199219,-1.00391 0,-0.35156 0.06641,-0.68359 0.199219,-1.00781 0.132813,-0.32031 0.324219,-0.60547 0.570313,-0.85156 0.246094,-0.2461 0.527344,-0.4336 0.851562,-0.56641 0.320313,-0.13281 0.65625,-0.19922 1.003906,-0.19922 0.347657,0 0.683594,0.0664 1.003907,0.19922 0.320312,0.13281 0.605469,0.32031 0.851562,0.56641 0.246094,0.24609 0.4375,0.53125 0.570313,0.85156 0.132812,0.32422 0.199218,0.65625 0.199218,1.00781 z m 0,0"
     fill-opacity="1"
     fill-rule="nonzero"
     id="path4034" />
  <g
     fill="#ffffff"
     fill-opacity="1"
     id="g4096"
     transform="translate(-21.117188,-99.238281)">
    <g
       transform="translate(112.52758,452.11918)"
       id="g4094">
      <g
         id="g4092" />
    </g>
  </g>
  <g
     fill="#ffffff"
     fill-opacity="1"
     id="g4118"
     transform="translate(-21.117188,-99.238281)">
    <g
       transform="translate(134.0147,452.11918)"
       id="g4116">
      <g
         id="g4114" />
    </g>
  </g>
  <g
     fill="#ffffff"
     fill-opacity="1"
     id="g4164"
     transform="translate(-21.117188,-99.238281)">
    <g
       transform="translate(175.98629,452.11918)"
       id="g4162">
      <g
         id="g4160" />
    </g>
  </g>
  <g
     fill="#ffffff"
     fill-opacity="1"
     id="g4258"
     transform="translate(-21.117188,-99.238281)">
    <g
       transform="translate(98.498004,476.86918)"
       id="g4256">
      <g
         id="g4254" />
    </g>
  </g>
  <g
     fill="#ffffff"
     fill-opacity="1"
     id="g4280"
     transform="translate(-21.117188,-99.238281)">
    <g
       transform="translate(120.64379,476.86918)"
       id="g4278">
      <g
         id="g4276" />
    </g>
  </g>
  <text
     xml:space="preserve"
     style="font-style:normal;font-weight:normal;font-size:14.6667px;line-height:0;font-family:sans-serif;white-space:pre;inline-size:209.25;fill:#ffffff;fill-opacity:1;stroke:none"
     x="21.073778"
     y="20.662054"
     id="text5790"
     transform="translate(12.815501,10.136143)"><tspan
       x="21.073778"
       y="20.662054"
       id="tspan165317"><tspan
         style="line-height:1.45"
         id="tspan165315">Diminution du plaisir
</tspan></tspan><tspan
       x="21.073778"
       y="41.928771"
       id="tspan165321"><tspan
         style="line-height:1.45"
         id="tspan165319">Perte ou prise de poids </tspan></tspan><tspan
       x="21.073778"
       y="63.195487"
       id="tspan165325"><tspan
         style="line-height:1.45"
         id="tspan165323">importante
</tspan></tspan><tspan
       x="21.073778"
       y="84.462199"
       id="tspan165331"><tspan
         style="line-height:1.45"
         id="tspan165327">Diminution ou</tspan><tspan
         style="line-height:1.45"
         id="tspan165329"> </tspan></tspan><tspan
       x="21.073778"
       y="105.72891"
       id="tspan165335"><tspan
         style="line-height:1.45"
         id="tspan165333">augmentation de l'apptit
</tspan></tspan><tspan
       x="21.073778"
       y="126.99563"
       id="tspan165339"><tspan
         style="line-height:1.45"
         id="tspan165337">Insomnie ou hypersomnie
</tspan></tspan><tspan
       x="21.073778"
       y="148.26235"
       id="tspan165343"><tspan
         style="line-height:1.45"
         id="tspan165341">Agitation ou ralentissement </tspan></tspan><tspan
       x="21.073778"
       y="169.52908"
       id="tspan165347"><tspan
         style="line-height:1.45"
         id="tspan165345">psychomoteur
</tspan></tspan><tspan
       x="21.073778"
       y="190.7958"
       id="tspan165351"><tspan
         style="line-height:1.45"
         id="tspan165349">Fatigue et perte d'nergie
</tspan></tspan><tspan
       x="21.073778"
       y="212.06253"
       id="tspan165355"><tspan
         style="line-height:1.45"
         id="tspan165353">Dvalorisation et culpabilit </tspan></tspan><tspan
       x="21.073778"
       y="233.32925"
       id="tspan165359"><tspan
         style="line-height:1.45"
         id="tspan165357">excessives
</tspan></tspan><tspan
       x="21.073778"
       y="254.59597"
       id="tspan165363"><tspan
         style="line-height:1.45"
         id="tspan165361">Difficults de concentration </tspan></tspan><tspan
       x="21.073778"
       y="275.8627"
       id="tspan165367"><tspan
         style="line-height:1.45"
         id="tspan165365">ou indcision
</tspan></tspan><tspan
       x="21.073778"
       y="297.12942"
       id="tspan165371"><tspan
         style="line-height:1.45"
         id="tspan165369">Penses de mort, ides </tspan></tspan><tspan
       x="21.073778"
       y="318.39614"
       id="tspan165375"><tspan
         style="line-height:1.45"
         id="tspan165373">noires ou idations </tspan></tspan><tspan
       x="21.073778"
       y="339.66287"
       id="tspan165379"><tspan
         style="line-height:1.45"
         id="tspan165377">suicidaires</tspan></tspan></text>
  <text
     xml:space="preserve"
     style="font-style:normal;font-weight:normal;font-size:13.3333px;line-height:1.25;font-family:sans-serif;fill:#383838;fill-opacity:1;stroke:none"
     x="500.95999"
     y="222.70013"
     id="text30915"><tspan
       sodipodi:role="line"
       id="tspan30913"
       x="500.95999"
       y="222.70013">Augmentation du plaisir</tspan></text>
  <text
     xml:space="preserve"
     style="font-style:normal;font-weight:normal;font-size:13.3333px;line-height:1.25;font-family:sans-serif;fill:#383838;fill-opacity:1;stroke:none"
     x="499.70108"
     y="262.20206"
     id="text31941"><tspan
       sodipodi:role="line"
       id="tspan31939"
       x="499.70108"
       y="262.20206">Diminution de la tristesse</tspan></text>
  <text
     xml:space="preserve"
     style="font-style:normal;font-weight:normal;font-size:13.3333px;line-height:1.25;font-family:sans-serif;fill:#383838;fill-opacity:1;stroke:none"
     x="499.58444"
     y="304.05176"
     id="text32473"><tspan
       sodipodi:role="line"
       id="tspan32471"
       x="499.58444"
       y="304.05176">Diminution de l'ennui</tspan></text>
  <text
     xml:space="preserve"
     style="font-style:normal;font-weight:normal;font-size:13.3333px;line-height:1.25;font-family:sans-serif;fill:#383838;fill-opacity:1;stroke:none"
     x="499.71661"
     y="346.87219"
     id="text33357"><tspan
       sodipodi:role="line"
       id="tspan33355"
       x="499.71661"
       y="346.87219">Diminution des ruminations ngatives</tspan></text>
  <text
     xml:space="preserve"
     style="font-style:normal;font-weight:normal;font-size:13.3333px;line-height:1.25;font-family:sans-serif;text-align:center;text-anchor:middle;white-space:pre;inline-size:135.007;fill:#383838;fill-opacity:1;stroke:none"
     x="300.55139"
     y="349.7504"
     id="text68845"
     transform="translate(48.223973,-75.559498)"><tspan
       x="300.55139"
       y="349.7504"
       id="tspan165381">Augmentation des<tspan
   y="349.7504"
   id="tspan165383"> </tspan></tspan><tspan
       x="300.55139"
       y="366.41702"
       id="tspan165385">activits plaisantes</tspan></text>
  <text
     xml:space="preserve"
     style="font-style:normal;font-weight:normal;font-size:13.3333px;line-height:1.25;font-family:sans-serif;fill:#e78404;fill-opacity:1;stroke:none"
     x="267.38562"
     y="156.43385"
     id="text76653"><tspan
       sodipodi:role="line"
       id="tspan76651"
       x="267.38562"
       y="156.43385">Dpression</tspan></text>
  <text
     xml:space="preserve"
     style="font-style:normal;font-weight:normal;font-size:13.3333px;line-height:1.25;font-family:sans-serif;fill:#e78404;fill-opacity:1;stroke:none"
     x="267.38562"
     y="82.29171"
     id="text76653-3"><tspan
       sodipodi:role="line"
       id="tspan76651-6"
       x="267.38562"
       y="82.29171">Dpression</tspan></text>
  <text
     xml:space="preserve"
     style="font-style:normal;font-weight:normal;font-size:13.3333px;line-height:1.25;font-family:sans-serif;text-align:center;text-anchor:middle;white-space:pre;inline-size:159.017;fill:#e78404;fill-opacity:1;stroke:none"
     x="909.64984"
     y="141.09779"
     id="text83677"
     transform="translate(-424.58265,7.2270477)"><tspan
       x="909.64984"
       y="141.09779"
       id="tspan165387">Diminution des<tspan
   y="141.09779"
   id="tspan165389"> </tspan></tspan><tspan
       x="909.64984"
       y="157.76442"
       id="tspan165391">activits agrables</tspan></text>
  <text
     xml:space="preserve"
     style="font-style:normal;font-weight:normal;font-size:13.3333px;line-height:1.25;font-family:sans-serif;text-align:center;text-anchor:middle;white-space:pre;inline-size:159.017;fill:#e78404;fill-opacity:1;stroke:none"
     x="909.64984"
     y="141.09779"
     id="text83677-5"
     transform="translate(-424.44512,-67.09708)"><tspan
       x="909.64984"
       y="141.09779"
       id="tspan165393">Diminution des<tspan
   y="141.09779"
   id="tspan165395"> </tspan></tspan><tspan
       x="909.64984"
       y="157.76442"
       id="tspan165397">activits agrables</tspan></text>
  <text
     xml:space="preserve"
     style="font-style:normal;font-weight:normal;font-size:13.3333px;line-height:1.25;font-family:sans-serif;text-align:center;text-anchor:middle;white-space:pre;inline-size:125.481;fill:#e78404;fill-opacity:1;stroke:none"
     x="909.64984"
     y="141.09779"
     id="text83677-7"
     transform="translate(-226.03097,-67.09708)"><tspan
       x="909.64984"
       y="141.09779"
       id="tspan165399">Diminution du<tspan
   y="141.09779"
   id="tspan165401"> </tspan></tspan><tspan
       x="909.64984"
       y="157.76442"
       id="tspan165403">plaisir</tspan></text>
  <text
     xml:space="preserve"
     style="font-style:normal;font-weight:normal;font-size:13.3333px;line-height:1.25;font-family:sans-serif;text-align:center;text-anchor:middle;white-space:pre;inline-size:113.078;fill:#e78404;fill-opacity:1;stroke:none"
     x="679.64069"
     y="80.75219"
     id="text85067"
     transform="translate(4.5810047,67.572651)"><tspan
       x="679.64069"
       y="80.75219"
       id="tspan165405">Augmentation<tspan
   y="80.75219"
   id="tspan165407"> </tspan></tspan><tspan
       x="679.64069"
       y="97.418816"
       id="tspan165409">de l'ennui</tspan></text>
</svg>
