<?xml version="1.0" encoding="UTF-8" standalone="no"?>
<svg
   zoomAndPan="magnify"
   viewBox="0 0 753.49202 368.28349"
   preserveAspectRatio="xMidYMid meet"
   version="1.0"
   id="svg4442"
   sodipodi:docname="depression.svg"
   inkscape:version="1.1.2 (0a00cf5339, 2022-02-04)"
   xmlns:inkscape="http://www.inkscape.org/namespaces/inkscape"
   xmlns:sodipodi="http://sodipodi.sourceforge.net/DTD/sodipodi-0.dtd"
   xmlns="http://www.w3.org/2000/svg"
   xmlns:svg="http://www.w3.org/2000/svg">
  <sodipodi:namedview
     id="namedview4444"
     pagecolor="#ffffff"
     bordercolor="#666666"
     borderopacity="1.0"
     inkscape:pageshadow="2"
     inkscape:pageopacity="0.0"
     inkscape:pagecheckerboard="0"
     showgrid="false"
     fit-margin-top="0"
     fit-margin-left="0"
     fit-margin-right="0"
     fit-margin-bottom="0"
     inkscape:zoom="0.99541885"
     inkscape:cx="502.80342"
     inkscape:cy="28.631164"
     inkscape:window-width="1920"
     inkscape:window-height="1025"
     inkscape:window-x="1920"
     inkscape:window-y="0"
     inkscape:window-maximized="1"
     inkscape:current-layer="svg4442" />
  <defs
     id="defs34">
    <g
       id="g2" />
    <clipPath
       id="7c289c0ff7">
      <path
         d="m 371,191.57031 h 58.48437 v 16.5 H 371 Z m 0,0"
         clip-rule="nonzero"
         id="path4" />
    </clipPath>
    <clipPath
       id="b0a480fc2b">
      <path
         d="m 370.22656,265.16797 h 58.5 v 16.5 h -58.5 z m 0,0"
         clip-rule="nonzero"
         id="path7" />
    </clipPath>
    <clipPath
       id="84c7fada6c">
      <path
         d="m 585.60547,191.57031 h 58.5 v 16.5 h -58.5 z m 0,0"
         clip-rule="nonzero"
         id="path10" />
    </clipPath>
    <clipPath
       id="a0b0a46239">
      <path
         d="m 580.84375,265.16797 h 58.5 v 16.5 h -58.5 z m 0,0"
         clip-rule="nonzero"
         id="path13" />
    </clipPath>
    <clipPath
       id="2ac208d5a7">
      <path
         d="m 512.21484,108.23828 h 58.5 v 16.5 h -58.5 z m 0,0"
         clip-rule="nonzero"
         id="path16" />
    </clipPath>
    <clipPath
       id="0da7fb18c2">
      <path
         d="m 450.02344,350 h 58.5 v 16.5 h -58.5 z m 0,0"
         clip-rule="nonzero"
         id="path19" />
    </clipPath>
    <clipPath
       id="389cab0a83">
      <path
         d="m 450.02344,388.83594 h 58.5 v 16.5 h -58.5 z m 0,0"
         clip-rule="nonzero"
         id="path22" />
    </clipPath>
    <clipPath
       id="3e45d8a867">
      <path
         d="m 450.02344,430.23828 h 58.5 v 16.5 h -58.5 z m 0,0"
         clip-rule="nonzero"
         id="path25" />
    </clipPath>
    <clipPath
       id="ff41574527">
      <path
         d="m 450.02344,474.32422 h 58.5 v 16.5 h -58.5 z m 0,0"
         clip-rule="nonzero"
         id="path28" />
    </clipPath>
    <clipPath
       id="9a74d52294">
      <path
         d="M 21.117188,99.238281 H 258.92578 V 518.39844 H 21.117188 Z m 0,0"
         clip-rule="nonzero"
         id="path31" />
    </clipPath>
  </defs>
  <g
     clip-path="url(#7c289c0ff7)"
     id="g494"
     transform="translate(-17.274518,-115.23828)">
    <path
       fill="#e78404"
       d="m 410.63281,207.10937 c 0.46094,-1.05468 0.85938,-2.17968 1.09375,-3.09375 0.1875,-0.71875 0.44141,-2.19531 0.44141,-2.53125 v -0.24609 h -41.14063 v -2.83594 h 41.14063 v -0.24609 c 0,-0.33594 -0.25391,-1.80859 -0.44141,-2.53125 -0.23437,-0.91406 -0.63281,-2.03906 -1.09375,-3.08984 -0.23437,-0.53125 -0.41797,-0.96485 -0.41015,-0.96485 0.0937,0 19.19921,8.19531 19.21093,8.24219 0.0156,0.043 -19.09375,8.25781 -19.21093,8.25781 -0.008,0 0.17578,-0.43359 0.41015,-0.96094 z m 0,0"
       fill-opacity="1"
       fill-rule="nonzero"
       id="path492" />
  </g>
  <g
     clip-path="url(#b0a480fc2b)"
     id="g498"
     transform="translate(-16.512798,-115.23828)">
    <path
       fill="#e78404"
       d="m 409.87109,280.70703 c 0.46094,-1.05078 0.85938,-2.17578 1.09766,-3.09375 0.18359,-0.71875 0.44141,-2.19141 0.44141,-2.53125 v -0.24609 h -41.14454 v -2.83203 h 41.14454 v -0.25 c 0,-0.33594 -0.25782,-1.8086 -0.44141,-2.52735 -0.23828,-0.91797 -0.63672,-2.04297 -1.09766,-3.09375 -0.23437,-0.53125 -0.41797,-0.96484 -0.41015,-0.96484 0.0937,0 19.19922,8.19531 19.21484,8.24219 0.0117,0.0469 -19.09375,8.25781 -19.21484,8.25781 -0.008,0 0.17578,-0.4336 0.41015,-0.96094 z m 0,0"
       fill-opacity="1"
       fill-rule="nonzero"
       id="path496" />
  </g>
  <g
     clip-path="url(#84c7fada6c)"
     id="g502"
     transform="translate(-21.117188,-115.23828)">
    <path
       fill="#e78404"
       d="m 625.25,207.10937 c 0.46484,-1.05468 0.86328,-2.17968 1.09766,-3.09375 0.18359,-0.71875 0.4414,-2.19531 0.4414,-2.53125 v -0.24609 h -41.14453 v -2.83594 h 41.14453 v -0.24609 c 0,-0.33594 -0.25781,-1.80859 -0.4414,-2.53125 -0.23438,-0.91406 -0.63282,-2.03906 -1.09766,-3.08984 -0.23047,-0.53125 -0.41797,-0.96485 -0.41016,-0.96485 0.0937,0 19.20313,8.19531 19.21485,8.24219 0.0117,0.043 -19.09375,8.25781 -19.21485,8.25781 -0.008,0 0.17969,-0.43359 0.41016,-0.96094 z m 0,0"
       fill-opacity="1"
       fill-rule="nonzero"
       id="path500" />
  </g>
  <g
     clip-path="url(#a0b0a46239)"
     id="g506"
     transform="translate(-16.355468,-115.23828)">
    <path
       fill="#e78404"
       d="m 620.48828,280.70703 c 0.46484,-1.05078 0.86328,-2.17578 1.09766,-3.09375 0.18359,-0.71875 0.4414,-2.19141 0.4414,-2.53125 v -0.24609 h -41.14453 v -2.83203 h 41.14453 v -0.25 c 0,-0.33594 -0.25781,-1.8086 -0.4414,-2.52735 -0.23438,-0.91797 -0.63282,-2.04297 -1.09766,-3.09375 -0.23047,-0.53125 -0.41797,-0.96484 -0.41016,-0.96484 0.0977,0 19.20313,8.19531 19.21485,8.24219 0.0117,0.0469 -19.09375,8.25781 -19.21094,8.25781 -0.008,0 0.17578,-0.4336 0.40625,-0.96094 z m 0,0"
       fill-opacity="1"
       fill-rule="nonzero"
       id="path504" />
  </g>
  <g
     clip-path="url(#2ac208d5a7)"
     id="g800"
     transform="translate(-21.117188,-95.23828)">
    <path
       fill="#383838"
       d="m 551.85937,123.77734 c 0.46094,-1.05468 0.85938,-2.17968 1.09766,-3.09375 0.18359,-0.71875 0.44141,-2.1914 0.44141,-2.53125 v -0.24609 h -41.14453 v -2.83594 h 41.14453 v -0.24609 c 0,-0.33594 -0.25782,-1.80859 -0.44141,-2.52734 -0.23828,-0.91797 -0.63672,-2.04297 -1.09766,-3.09375 -0.23437,-0.53125 -0.41796,-0.96485 -0.41015,-0.96485 0.0937,0 19.19922,8.19531 19.21484,8.24219 0.0117,0.0469 -19.09375,8.25781 -19.21484,8.25781 -0.008,0 0.17578,-0.43359 0.41015,-0.96094 z m 0,0"
       fill-opacity="1"
       fill-rule="nonzero"
       id="path798" />
  </g>
  <g
     clip-path="url(#0da7fb18c2)"
     id="g804"
     transform="translate(-21.117188,-135.23828)">
    <path
       fill="#383838"
       d="m 489.66797,365.53906 c 0.46484,-1.05469 0.86328,-2.17969 1.09765,-3.09375 0.1836,-0.71875 0.44141,-2.1914 0.44141,-2.53125 v -0.24609 H 450.0625 v -2.83594 h 41.14453 v -0.24609 c 0,-0.33594 -0.25781,-1.8086 -0.44141,-2.52735 -0.23437,-0.91797 -0.63281,-2.04297 -1.09765,-3.09375 C 489.43359,350.43359 489.25,350 489.25781,350 c 0.0937,0 19.20313,8.19531 19.21485,8.24219 0.0117,0.0469 -19.09375,8.25781 -19.21485,8.25781 -0.008,0 0.17969,-0.43359 0.41016,-0.96094 z m 0,0"
       fill-opacity="1"
       fill-rule="nonzero"
       id="path802" />
  </g>
  <g
     clip-path="url(#389cab0a83)"
     id="g808"
     transform="translate(-21.117188,-135.23828)">
    <path
       fill="#383838"
       d="m 489.66797,404.375 c 0.46484,-1.05078 0.86328,-2.17578 1.09765,-3.09375 0.1836,-0.71875 0.44141,-2.19141 0.44141,-2.52734 v -0.25 H 450.0625 v -2.83204 h 41.14453 v -0.25 c 0,-0.33593 -0.25781,-1.80859 -0.44141,-2.52734 -0.23437,-0.91797 -0.63281,-2.04297 -1.09765,-3.09375 -0.23438,-0.53125 -0.41797,-0.96094 -0.41016,-0.96094 0.0937,0 19.20313,8.19532 19.21485,8.23828 0.0117,0.0469 -19.09375,8.26172 -19.21485,8.26172 -0.008,0 0.17969,-0.43359 0.41016,-0.96484 z m 0,0"
       fill-opacity="1"
       fill-rule="nonzero"
       id="path806" />
  </g>
  <g
     clip-path="url(#3e45d8a867)"
     id="g812"
     transform="translate(-21.117188,-135.23828)">
    <path
       fill="#383838"
       d="m 489.66797,445.77734 c 0.46484,-1.05468 0.86328,-2.17968 1.09765,-3.09375 0.1836,-0.71875 0.44141,-2.1914 0.44141,-2.53125 v -0.24609 H 450.0625 v -2.83594 h 41.14453 v -0.24609 c 0,-0.33594 -0.25781,-1.8086 -0.44141,-2.52735 -0.23437,-0.91796 -0.63281,-2.04296 -1.09765,-3.09375 -0.23438,-0.53125 -0.41797,-0.96484 -0.41016,-0.96484 0.0937,0 19.20313,8.19531 19.21485,8.24219 0.0117,0.0469 -19.09375,8.25781 -19.21485,8.25781 -0.008,0 0.17969,-0.43359 0.41016,-0.96094 z m 0,0"
       fill-opacity="1"
       fill-rule="nonzero"
       id="path810" />
  </g>
  <g
     clip-path="url(#ff41574527)"
     id="g816"
     transform="translate(-21.117188,-135.23828)">
    <path
       fill="#383838"
       d="m 489.66797,489.86328 c 0.46484,-1.05078 0.86328,-2.17578 1.09765,-3.09375 0.1836,-0.71875 0.44141,-2.19141 0.44141,-2.52734 v -0.25 H 450.0625 v -2.83203 h 41.14453 v -0.25 c 0,-0.33594 -0.25781,-1.8086 -0.44141,-2.52735 -0.23437,-0.91797 -0.63281,-2.04297 -1.09765,-3.09375 -0.23438,-0.53125 -0.41797,-0.96094 -0.41016,-0.96094 0.0937,0 19.20313,8.19532 19.21485,8.23829 0.0117,0.0469 -19.09375,8.26171 -19.21485,8.26171 -0.008,0 0.17969,-0.43359 0.41016,-0.96484 z m 0,0"
       fill-opacity="1"
       fill-rule="nonzero"
       id="path814" />
  </g>
  <g
     clip-path="url(#9a74d52294)"
     id="g820"
     transform="matrix(1.0669568,0,0,0.8786223,-22.531127,-87.192967)">
    <path
       fill="#3c8ebb"
       d="M 21.117188,99.238281 H 258.71484 V 518.41406 H 21.117188 Z m 0,0"
       fill-opacity="1"
       fill-rule="nonzero"
       id="path818" />
  </g>
  <path
     fill="#ffffff"
     d="m 23.171874,26.343819 c 0,0.34766 -0.06641,0.67969 -0.199218,1.00391 -0.132813,0.32031 -0.324219,0.60547 -0.570313,0.85156 -0.246093,0.2461 -0.53125,0.4336 -0.851562,0.56641 -0.320313,0.13281 -0.65625,0.20312 -1.003907,0.20312 -0.347656,0 -0.683593,-0.0703 -1.003906,-0.20312 -0.324218,-0.13281 -0.605468,-0.32031 -0.851562,-0.56641 -0.246094,-0.24609 -0.4375,-0.53125 -0.570313,-0.85156 -0.132812,-0.32422 -0.199219,-0.65625 -0.199219,-1.00391 0,-0.35156 0.06641,-0.68359 0.199219,-1.00781 0.132813,-0.32031 0.324219,-0.60547 0.570313,-0.85156 0.246094,-0.24609 0.527344,-0.43359 0.851562,-0.56641 0.320313,-0.13281 0.65625,-0.19922 1.003906,-0.19922 0.347657,0 0.683594,0.0664 1.003907,0.19922 0.320312,0.13282 0.605469,0.32032 0.851562,0.56641 0.246094,0.24609 0.4375,0.53125 0.570313,0.85156 0.132812,0.32422 0.199218,0.65625 0.199218,1.00781 z m 0,0"
     fill-opacity="1"
     fill-rule="nonzero"
     id="path1980" />
  <g
     fill="#ffffff"
     fill-opacity="1"
     id="g2066"
     transform="translate(-21.117188,-99.238281)">
    <g
       transform="translate(132.96082,130.36919)"
       id="g2064">
      <g
         id="g2062" />
    </g>
  </g>
  <g
     fill="#ffffff"
     fill-opacity="1"
     id="g2088"
     transform="translate(-21.117188,-99.238281)">
    <g
       transform="translate(155.23833,130.36919)"
       id="g2086">
      <g
         id="g2084" />
    </g>
  </g>
  <path
     fill="#ffffff"
     d="m 23.171874,48.133871 c 0,0.34766 -0.06641,0.67969 -0.199218,1.00391 -0.132813,0.32031 -0.324219,0.60547 -0.570313,0.85156 -0.246093,0.2461 -0.53125,0.4336 -0.851562,0.56641 -0.320313,0.13281 -0.65625,0.20312 -1.003907,0.20312 -0.347656,0 -0.683593,-0.0703 -1.003906,-0.20312 -0.324218,-0.13281 -0.605468,-0.32031 -0.851562,-0.56641 -0.246094,-0.24609 -0.4375,-0.53125 -0.570313,-0.85156 -0.132812,-0.32422 -0.199219,-0.65625 -0.199219,-1.00391 0,-0.35156 0.06641,-0.68359 0.199219,-1.00781 0.132813,-0.32031 0.324219,-0.60547 0.570313,-0.85156 0.246094,-0.2461 0.527344,-0.4336 0.851562,-0.56641 0.320313,-0.13281 0.65625,-0.19922 1.003906,-0.19922 0.347657,0 0.683594,0.0664 1.003907,0.19922 0.320312,0.13281 0.605469,0.32031 0.851562,0.56641 0.246094,0.24609 0.4375,0.53125 0.570313,0.85156 0.132812,0.32422 0.199218,0.65625 0.199218,1.00781 z m 0,0"
     fill-opacity="1"
     fill-rule="nonzero"
     id="path2146" />
  <g
     fill="#ffffff"
     fill-opacity="1"
     id="g2192"
     transform="translate(-21.117188,-99.238281)">
    <g
       transform="translate(92.028454,155.11919)"
       id="g2190">
      <g
         id="g2188" />
    </g>
  </g>
  <g
     fill="#ffffff"
     fill-opacity="1"
     id="g2214"
     transform="translate(-21.117188,-99.238281)">
    <g
       transform="translate(114.17423,155.11919)"
       id="g2212">
      <g
         id="g2210" />
    </g>
  </g>
  <g
     fill="#ffffff"
     fill-opacity="1"
     id="g2260"
     transform="translate(-21.117188,-99.238281)">
    <g
       transform="translate(152.72077,155.11919)"
       id="g2258">
      <g
         id="g2256" />
    </g>
  </g>
  <g
     fill="#ffffff"
     fill-opacity="1"
     id="g2282"
     transform="translate(-21.117188,-99.238281)">
    <g
       transform="translate(174.20789,155.11919)"
       id="g2280">
      <g
         id="g2278" />
    </g>
  </g>
  <path
     fill="#ffffff"
     d="m 23.171874,91.024061 c 0,0.347661 -0.06641,0.679691 -0.199218,1.003911 -0.132813,0.32031 -0.324219,0.60547 -0.570313,0.85156 -0.246093,0.2461 -0.53125,0.4336 -0.851562,0.56641 -0.320313,0.13281 -0.65625,0.20312 -1.003907,0.20312 -0.347656,0 -0.683593,-0.0703 -1.003906,-0.20312 -0.324218,-0.13281 -0.605468,-0.32031 -0.851562,-0.56641 -0.246094,-0.24609 -0.4375,-0.53125 -0.570313,-0.85156 -0.132812,-0.32422 -0.199219,-0.65625 -0.199219,-1.003911 0,-0.35156 0.06641,-0.68359 0.199219,-1.00781 0.132813,-0.32031 0.324219,-0.60547 0.570313,-0.85156 0.246094,-0.2461 0.527344,-0.4336 0.851562,-0.56641 0.320313,-0.13281 0.65625,-0.19922 1.003906,-0.19922 0.347657,0 0.683594,0.0664 1.003907,0.19922 0.320312,0.13281 0.605469,0.32031 0.851562,0.56641 0.246094,0.24609 0.4375,0.53125 0.570313,0.85156 0.132812,0.32422 0.199218,0.65625 0.199218,1.00781 z m 0,0"
     fill-opacity="1"
     fill-rule="nonzero"
     id="path2404" />
  <g
     fill="#ffffff"
     fill-opacity="1"
     id="g2490"
     transform="translate(-21.117188,-99.238281)">
    <g
       transform="translate(132.96082,204.61919)"
       id="g2488">
      <g
         id="g2486" />
    </g>
  </g>
  <g
     fill="#ffffff"
     fill-opacity="1"
     id="g2608"
     transform="translate(-21.117188,-99.238281)">
    <g
       transform="translate(153.03547,229.36919)"
       id="g2606">
      <g
         id="g2604" />
    </g>
  </g>
  <g
     fill="#ffffff"
     fill-opacity="1"
     id="g2630"
     transform="translate(-21.117188,-99.238281)">
    <g
       transform="translate(174.52259,229.36919)"
       id="g2628">
      <g
         id="g2626" />
    </g>
  </g>
  <path
     fill="#ffffff"
     d="m 23.222176,154.34706 c 0,0.34766 -0.06641,0.67969 -0.199218,1.00391 -0.132813,0.32031 -0.324219,0.60547 -0.570313,0.85156 -0.246093,0.2461 -0.53125,0.4336 -0.851562,0.56641 -0.320313,0.13281 -0.65625,0.20312 -1.003907,0.20312 -0.347656,0 -0.683593,-0.0703 -1.003906,-0.20312 -0.324218,-0.13281 -0.605468,-0.32031 -0.851562,-0.56641 -0.246094,-0.24609 -0.4375,-0.53125 -0.570313,-0.85156 -0.132812,-0.32422 -0.199219,-0.65625 -0.199219,-1.00391 0,-0.35156 0.06641,-0.68359 0.199219,-1.00781 0.132813,-0.32031 0.324219,-0.60547 0.570313,-0.85156 0.246094,-0.2461 0.527344,-0.4336 0.851562,-0.56641 0.320313,-0.13281 0.65625,-0.19922 1.003906,-0.19922 0.347657,0 0.683594,0.0664 1.003907,0.19922 0.320312,0.13281 0.605469,0.32031 0.851562,0.56641 0.246094,0.24609 0.4375,0.53125 0.570313,0.85156 0.132812,0.32422 0.199218,0.65625 0.199218,1.00781 z m 0,0"
     fill-opacity="1"
     fill-rule="nonzero"
     id="path2704" />
  <g
     fill="#ffffff"
     fill-opacity="1"
     id="g2774"
     transform="translate(-21.117188,-99.238281)">
    <g
       transform="translate(119.6997,254.11918)"
       id="g2772">
      <g
         id="g2770" />
    </g>
  </g>
  <g
     fill="#ffffff"
     fill-opacity="1"
     id="g2796"
     transform="translate(-21.117188,-99.238281)">
    <g
       transform="translate(141.84549,254.11918)"
       id="g2794">
      <g
         id="g2792" />
    </g>
  </g>
  <path
     fill="#ffffff"
     d="m 23.410649,133.38089 c 0,0.34766 -0.06641,0.67969 -0.199218,1.00391 -0.132813,0.32031 -0.324219,0.60547 -0.570313,0.85156 -0.246093,0.2461 -0.53125,0.4336 -0.851562,0.56641 -0.320313,0.13281 -0.65625,0.20312 -1.003907,0.20312 -0.347656,0 -0.683593,-0.0703 -1.003906,-0.20312 -0.324218,-0.13281 -0.605468,-0.32031 -0.851562,-0.56641 -0.246094,-0.24609 -0.4375,-0.53125 -0.570313,-0.85156 -0.132812,-0.32422 -0.199219,-0.65625 -0.199219,-1.00391 0,-0.35156 0.06641,-0.68359 0.199219,-1.00781 0.132813,-0.32031 0.324219,-0.60547 0.570313,-0.85156 0.246094,-0.2461 0.527344,-0.4336 0.851562,-0.56641 0.320313,-0.13281 0.65625,-0.19922 1.003906,-0.19922 0.347657,0 0.683594,0.0664 1.003907,0.19922 0.320312,0.13281 0.605469,0.32031 0.851562,0.56641 0.246094,0.24609 0.4375,0.53125 0.570313,0.85156 0.132812,0.32422 0.199218,0.65625 0.199218,1.00781 z m 0,0"
     fill-opacity="1"
     fill-rule="nonzero"
     id="path2886" />
  <g
     fill="#ffffff"
     fill-opacity="1"
     id="g2964"
     transform="translate(-21.117188,-99.238281)">
    <g
       transform="translate(117.22604,278.86918)"
       id="g2962">
      <g
         id="g2960" />
    </g>
  </g>
  <g
     fill="#ffffff"
     fill-opacity="1"
     id="g2986"
     transform="translate(-21.117188,-99.238281)">
    <g
       transform="translate(139.37182,278.86918)"
       id="g2984">
      <g
         id="g2982" />
    </g>
  </g>
  <path
     fill="#ffffff"
     d="m 23.272769,218.2927 c 0,0.34766 -0.06641,0.67969 -0.199218,1.00391 -0.132813,0.32031 -0.324219,0.60547 -0.570313,0.85156 -0.246093,0.2461 -0.53125,0.4336 -0.851562,0.56641 -0.320313,0.13281 -0.65625,0.20312 -1.003907,0.20312 -0.347656,0 -0.683593,-0.0703 -1.003906,-0.20312 -0.324218,-0.13281 -0.605468,-0.32031 -0.851562,-0.56641 -0.246094,-0.24609 -0.4375,-0.53125 -0.570313,-0.85156 -0.132812,-0.32422 -0.199219,-0.65625 -0.199219,-1.00391 0,-0.35156 0.06641,-0.68359 0.199219,-1.00781 0.132813,-0.32031 0.324219,-0.60547 0.570313,-0.85156 0.246094,-0.2461 0.527344,-0.4336 0.851562,-0.56641 0.320313,-0.13281 0.65625,-0.19922 1.003906,-0.19922 0.347657,0 0.683594,0.0664 1.003907,0.19922 0.320312,0.13281 0.605469,0.32031 0.851562,0.56641 0.246094,0.24609 0.4375,0.53125 0.570313,0.85156 0.132812,0.32422 0.199218,0.65625 0.199218,1.00781 z m 0,0"
     fill-opacity="1"
     fill-rule="nonzero"
     id="path3196" />
  <g
     fill="#ffffff"
     fill-opacity="1"
     id="g3258"
     transform="translate(-21.117188,-99.238281)">
    <g
       transform="translate(105.75064,328.36918)"
       id="g3256">
      <g
         id="g3254" />
    </g>
  </g>
  <g
     fill="#ffffff"
     fill-opacity="1"
     id="g3280"
     transform="translate(-21.117188,-99.238281)">
    <g
       transform="translate(123.34432,328.36918)"
       id="g3278">
      <g
         id="g3276" />
    </g>
  </g>
  <g
     fill="#ffffff"
     fill-opacity="1"
     id="g3326"
     transform="translate(-21.117188,-99.238281)">
    <g
       transform="translate(164.64993,328.36918)"
       id="g3324">
      <g
         id="g3322" />
    </g>
  </g>
  <path
     fill="#ffffff"
     d="m 23.171874,260.25781 c 0,0.34766 -0.06641,0.67969 -0.199218,1.00391 -0.132813,0.32031 -0.324219,0.60547 -0.570313,0.85156 -0.246093,0.2461 -0.53125,0.4336 -0.851562,0.56641 -0.320313,0.13281 -0.65625,0.20312 -1.003907,0.20312 -0.347656,0 -0.683593,-0.0703 -1.003906,-0.20312 -0.324218,-0.13281 -0.605468,-0.32031 -0.851562,-0.56641 -0.246094,-0.24609 -0.4375,-0.53125 -0.570313,-0.85156 -0.132812,-0.32422 -0.199219,-0.65625 -0.199219,-1.00391 0,-0.35156 0.06641,-0.68359 0.199219,-1.00781 0.132813,-0.32031 0.324219,-0.60547 0.570313,-0.85156 0.246094,-0.2461 0.527344,-0.4336 0.851562,-0.56641 0.320313,-0.13281 0.65625,-0.19922 1.003906,-0.19922 0.347657,0 0.683594,0.0664 1.003907,0.19922 0.320312,0.13281 0.605469,0.32031 0.851562,0.56641 0.246094,0.24609 0.4375,0.53125 0.570313,0.85156 0.132812,0.32422 0.199218,0.65625 0.199218,1.00781 z m 0,0"
     fill-opacity="1"
     fill-rule="nonzero"
     id="path3400" />
  <g
     fill="#ffffff"
     fill-opacity="1"
     id="g3518"
     transform="translate(-21.117188,-99.238281)">
    <g
       transform="translate(155.53107,353.11918)"
       id="g3516">
      <g
         id="g3514" />
    </g>
  </g>
  <g
     fill="#ffffff"
     fill-opacity="1"
     id="g3540"
     transform="translate(-21.117188,-99.238281)">
    <g
       transform="translate(173.12475,353.11918)"
       id="g3538">
      <g
         id="g3536" />
    </g>
  </g>
  <path
     fill="#ffffff"
     d="m 23.241325,303.26384 c 0,0.34766 -0.06641,0.67969 -0.199218,1.00391 -0.132813,0.32031 -0.324219,0.60547 -0.570313,0.85156 -0.246093,0.2461 -0.53125,0.4336 -0.851562,0.56641 -0.320313,0.13281 -0.65625,0.20312 -1.003907,0.20312 -0.347656,0 -0.683593,-0.0703 -1.003906,-0.20312 -0.324218,-0.13281 -0.605468,-0.32031 -0.851562,-0.56641 -0.246094,-0.24609 -0.4375,-0.53125 -0.570313,-0.85156 -0.132812,-0.32422 -0.199219,-0.65625 -0.199219,-1.00391 0,-0.35156 0.06641,-0.68359 0.199219,-1.00781 0.132813,-0.32031 0.324219,-0.60547 0.570313,-0.85156 0.246094,-0.2461 0.527344,-0.4336 0.851562,-0.56641 0.320313,-0.13281 0.65625,-0.19922 1.003906,-0.19922 0.347657,0 0.683594,0.0664 1.003907,0.19922 0.320312,0.13281 0.605469,0.32031 0.851562,0.56641 0.246094,0.24609 0.4375,0.53125 0.570313,0.85156 0.132812,0.32422 0.199218,0.65625 0.199218,1.00781 z m 0,0"
     fill-opacity="1"
     fill-rule="nonzero"
     id="path3710" />
  <g
     fill="#ffffff"
     fill-opacity="1"
     id="g3804"
     transform="translate(-21.117188,-99.238281)">
    <g
       transform="translate(124.42013,402.61918)"
       id="g3802">
      <g
         id="g3800" />
    </g>
  </g>
  <g
     fill="#ffffff"
     fill-opacity="1"
     id="g3826"
     transform="translate(-21.117188,-99.238281)">
    <g
       transform="translate(145.90725,402.61918)"
       id="g3824">
      <g
         id="g3822" />
    </g>
  </g>
  <g
     fill="#ffffff"
     fill-opacity="1"
     id="g3952"
     transform="translate(-21.117188,-99.238281)">
    <g
       transform="translate(73.029625,427.36918)"
       id="g3950">
      <g
         id="g3948" />
    </g>
  </g>
  <path
     fill="#ffffff"
     d="m 23.431024,196.82327 c 0,0.34766 -0.06641,0.67969 -0.199218,1.00391 -0.132813,0.32031 -0.324219,0.60547 -0.570313,0.85156 -0.246093,0.2461 -0.53125,0.4336 -0.851562,0.56641 -0.320313,0.13281 -0.65625,0.20312 -1.003907,0.20312 -0.347656,0 -0.683593,-0.0703 -1.003906,-0.20312 -0.324218,-0.13281 -0.605468,-0.32031 -0.851562,-0.56641 -0.246094,-0.24609 -0.4375,-0.53125 -0.570313,-0.85156 -0.132812,-0.32422 -0.199219,-0.65625 -0.199219,-1.00391 0,-0.35156 0.06641,-0.68359 0.199219,-1.00781 0.132813,-0.32031 0.324219,-0.60547 0.570313,-0.85156 0.246094,-0.2461 0.527344,-0.4336 0.851562,-0.56641 0.320313,-0.13281 0.65625,-0.19922 1.003906,-0.19922 0.347657,0 0.683594,0.0664 1.003907,0.19922 0.320312,0.13281 0.605469,0.32031 0.851562,0.56641 0.246094,0.24609 0.4375,0.53125 0.570313,0.85156 0.132812,0.32422 0.199218,0.65625 0.199218,1.00781 z m 0,0"
     fill-opacity="1"
     fill-rule="nonzero"
     id="path4034" />
  <g
     fill="#ffffff"
     fill-opacity="1"
     id="g4096"
     transform="translate(-21.117188,-99.238281)">
    <g
       transform="translate(112.52758,452.11918)"
       id="g4094">
      <g
         id="g4092" />
    </g>
  </g>
  <g
     fill="#ffffff"
     fill-opacity="1"
     id="g4118"
     transform="translate(-21.117188,-99.238281)">
    <g
       transform="translate(134.0147,452.11918)"
       id="g4116">
      <g
         id="g4114" />
    </g>
  </g>
  <g
     fill="#ffffff"
     fill-opacity="1"
     id="g4164"
     transform="translate(-21.117188,-99.238281)">
    <g
       transform="translate(175.98629,452.11918)"
       id="g4162">
      <g
         id="g4160" />
    </g>
  </g>
  <g
     fill="#ffffff"
     fill-opacity="1"
     id="g4258"
     transform="translate(-21.117188,-99.238281)">
    <g
       transform="translate(98.498004,476.86918)"
       id="g4256">
      <g
         id="g4254" />
    </g>
  </g>
  <g
     fill="#ffffff"
     fill-opacity="1"
     id="g4280"
     transform="translate(-21.117188,-99.238281)">
    <g
       transform="translate(120.64379,476.86918)"
       id="g4278">
      <g
         id="g4276" />
    </g>
  </g>
  <text
     xml:space="preserve"
     style="font-style:normal;font-weight:normal;font-size:14.6667px;line-height:0;font-family:sans-serif;white-space:pre;inline-size:209.25;fill:#ffffff;fill-opacity:1;stroke:none"
     x="21.073778"
     y="20.662054"
     id="text5790"
     transform="translate(12.815501,10.136143)"><tspan
       x="21.073778"
       y="20.662054"
       id="tspan1221"><tspan
         style="line-height:1.45"
         id="tspan1219">Diminution du plaisir
</tspan></tspan><tspan
       x="21.073778"
       y="41.928771"
       id="tspan1225"><tspan
         style="line-height:1.45"
         id="tspan1223">Perte ou prise de poids </tspan></tspan><tspan
       x="21.073778"
       y="63.195487"
       id="tspan1229"><tspan
         style="line-height:1.45"
         id="tspan1227">importante
</tspan></tspan><tspan
       x="21.073778"
       y="84.462199"
       id="tspan1235"><tspan
         style="line-height:1.45"
         id="tspan1231">Diminution ou</tspan><tspan
         style="line-height:1.45"
         id="tspan1233"> </tspan></tspan><tspan
       x="21.073778"
       y="105.72891"
       id="tspan1239"><tspan
         style="line-height:1.45"
         id="tspan1237">augmentation de l'appétit
</tspan></tspan><tspan
       x="21.073778"
       y="126.99563"
       id="tspan1243"><tspan
         style="line-height:1.45"
         id="tspan1241">Insomnie ou hypersomnie
</tspan></tspan><tspan
       x="21.073778"
       y="148.26235"
       id="tspan1247"><tspan
         style="line-height:1.45"
         id="tspan1245">Agitation ou ralentissement </tspan></tspan><tspan
       x="21.073778"
       y="169.52908"
       id="tspan1251"><tspan
         style="line-height:1.45"
         id="tspan1249">psychomoteur
</tspan></tspan><tspan
       x="21.073778"
       y="190.7958"
       id="tspan1255"><tspan
         style="line-height:1.45"
         id="tspan1253">Fatigue et perte d'énergie
</tspan></tspan><tspan
       x="21.073778"
       y="212.06253"
       id="tspan1259"><tspan
         style="line-height:1.45"
         id="tspan1257">Dévalorisation et culpabilité </tspan></tspan><tspan
       x="21.073778"
       y="233.32925"
       id="tspan1263"><tspan
         style="line-height:1.45"
         id="tspan1261">excessives
</tspan></tspan><tspan
       x="21.073778"
       y="254.59597"
       id="tspan1267"><tspan
         style="line-height:1.45"
         id="tspan1265">Difficultés de concentration </tspan></tspan><tspan
       x="21.073778"
       y="275.8627"
       id="tspan1271"><tspan
         style="line-height:1.45"
         id="tspan1269">ou indécision
</tspan></tspan><tspan
       x="21.073778"
       y="297.12942"
       id="tspan1275"><tspan
         style="line-height:1.45"
         id="tspan1273">Pensées de mort, idées </tspan></tspan><tspan
       x="21.073778"
       y="318.39614"
       id="tspan1279"><tspan
         style="line-height:1.45"
         id="tspan1277">noires ou idéations </tspan></tspan><tspan
       x="21.073778"
       y="339.66287"
       id="tspan1283"><tspan
         style="line-height:1.45"
         id="tspan1281">suicidaires</tspan></tspan></text>
  <text
     xml:space="preserve"
     style="font-style:normal;font-weight:normal;font-size:13.3333px;line-height:1.25;font-family:sans-serif;fill:#383838;fill-opacity:1;stroke:none"
     x="500.95999"
     y="226.70013"
     id="text30915"><tspan
       sodipodi:role="line"
       id="tspan30913"
       x="500.95999"
       y="226.70013">Augmentation du plaisir</tspan></text>
  <text
     xml:space="preserve"
     style="font-style:normal;font-weight:normal;font-size:13.3333px;line-height:1.25;font-family:sans-serif;fill:#383838;fill-opacity:1;stroke:none"
     x="499.70108"
     y="266.20206"
     id="text31941"><tspan
       sodipodi:role="line"
       id="tspan31939"
       x="499.70108"
       y="266.20206">Diminution de la tristesse</tspan></text>
  <text
     xml:space="preserve"
     style="font-style:normal;font-weight:normal;font-size:13.3333px;line-height:1.25;font-family:sans-serif;fill:#383838;fill-opacity:1;stroke:none"
     x="499.58444"
     y="308.05176"
     id="text32473"><tspan
       sodipodi:role="line"
       id="tspan32471"
       x="499.58444"
       y="308.05176">Diminution de l'ennui</tspan></text>
  <text
     xml:space="preserve"
     style="font-style:normal;font-weight:normal;font-size:13.3333px;line-height:1.25;font-family:sans-serif;fill:#383838;fill-opacity:1;stroke:none"
     x="499.71661"
     y="350.87219"
     id="text33357"><tspan
       sodipodi:role="line"
       id="tspan33355"
       x="499.71661"
       y="350.87219">Diminution des ruminations négatives</tspan></text>
  <text
     xml:space="preserve"
     style="font-style:normal;font-weight:normal;font-size:13.3333px;line-height:1.25;font-family:sans-serif;text-align:center;text-anchor:middle;white-space:pre;inline-size:135.007;fill:#383838;fill-opacity:1;stroke:none"
     x="300.55139"
     y="349.7504"
     id="text68845"
     transform="translate(48.223973,-71.559498)"><tspan
       x="300.55139"
       y="349.7504"
       id="tspan1285">Augmentation des<tspan
   y="349.7504"
   id="tspan1287"> </tspan></tspan><tspan
       x="300.55139"
       y="366.41702"
       id="tspan1289">activités plaisantes</tspan></text>
  <text
     xml:space="preserve"
     style="font-style:normal;font-weight:normal;font-size:13.3333px;line-height:1.25;font-family:sans-serif;fill:#e78404;fill-opacity:1;stroke:none"
     x="267.38562"
     y="162.43385"
     id="text76653"><tspan
       sodipodi:role="line"
       id="tspan76651"
       x="267.38562"
       y="162.43385">Dépression</tspan></text>
  <text
     xml:space="preserve"
     style="font-style:normal;font-weight:normal;font-size:13.3333px;line-height:1.25;font-family:sans-serif;fill:#e78404;fill-opacity:1;stroke:none"
     x="267.38562"
     y="88.29171"
     id="text76653-3"><tspan
       sodipodi:role="line"
       id="tspan76651-6"
       x="267.38562"
       y="88.29171">Dépression</tspan></text>
  <text
     xml:space="preserve"
     style="font-style:normal;font-weight:normal;font-size:13.3333px;line-height:1.25;font-family:sans-serif;text-align:center;text-anchor:middle;white-space:pre;inline-size:159.017;fill:#e78404;fill-opacity:1;stroke:none"
     x="909.64984"
     y="141.09779"
     id="text83677"
     transform="translate(-424.58265,13.227048)"><tspan
       x="909.64984"
       y="141.09779"
       id="tspan1291">Diminution des<tspan
   y="141.09779"
   id="tspan1293"> </tspan></tspan><tspan
       x="909.64984"
       y="157.76442"
       id="tspan1295">activités agréables</tspan></text>
  <text
     xml:space="preserve"
     style="font-style:normal;font-weight:normal;font-size:13.3333px;line-height:1.25;font-family:sans-serif;text-align:center;text-anchor:middle;white-space:pre;inline-size:159.017;fill:#e78404;fill-opacity:1;stroke:none"
     x="909.64984"
     y="141.09779"
     id="text83677-5"
     transform="translate(-424.44512,-61.09708)"><tspan
       x="909.64984"
       y="141.09779"
       id="tspan1297">Diminution des<tspan
   y="141.09779"
   id="tspan1299"> </tspan></tspan><tspan
       x="909.64984"
       y="157.76442"
       id="tspan1301">activités agréables</tspan></text>
  <text
     xml:space="preserve"
     style="font-style:normal;font-weight:normal;font-size:13.3333px;line-height:1.25;font-family:sans-serif;text-align:center;text-anchor:middle;white-space:pre;inline-size:125.481;fill:#e78404;fill-opacity:1;stroke:none"
     x="909.64984"
     y="141.09779"
     id="text83677-7"
     transform="translate(-226.03097,-61.09708)"><tspan
       x="909.64984"
       y="141.09779"
       id="tspan1303">Diminution du<tspan
   y="141.09779"
   id="tspan1305"> </tspan></tspan><tspan
       x="909.64984"
       y="157.76442"
       id="tspan1307">plaisir</tspan></text>
  <text
     xml:space="preserve"
     style="font-style:normal;font-weight:normal;font-size:13.3333px;line-height:1.25;font-family:sans-serif;text-align:center;text-anchor:middle;white-space:pre;inline-size:113.078;fill:#e78404;fill-opacity:1;stroke:none"
     x="679.64069"
     y="80.75219"
     id="text85067"
     transform="translate(4.5810047,73.572651)"><tspan
       x="679.64069"
       y="80.75219"
       id="tspan1309">Augmentation<tspan
   y="80.75219"
   id="tspan1311"> </tspan></tspan><tspan
       x="679.64069"
       y="97.418816"
       id="tspan1313">de l'ennui</tspan></text>
  <text
     xml:space="preserve"
     style="font-style:normal;font-weight:normal;font-size:13.3333px;line-height:1.25;font-family:sans-serif;fill:#383838;fill-opacity:1;stroke:none"
     x="296.09497"
     y="25.136755"
     id="text4699"><tspan
       sodipodi:role="line"
       id="tspan4697"
       x="296.09497"
       y="25.136755">Je fais une activité agréable</tspan></text>
  <text
     xml:space="preserve"
     style="font-style:normal;font-weight:normal;font-size:13.3333px;line-height:1.25;font-family:sans-serif;fill:#383838;fill-opacity:1;stroke:none"
     x="560.92072"
     y="24.447018"
     id="text5357"><tspan
       sodipodi:role="line"
       id="tspan5355"
       x="560.92072"
       y="24.447018">Je ressens du plaisir</tspan></text>
</svg>
