<?xml version="1.0" encoding="UTF-8" standalone="no"?>
<svg
   zoomAndPan="magnify"
   viewBox="0 0 1635.8566 932.11658"
   preserveAspectRatio="xMidYMid meet"
   version="1.0"
   id="svg7179"
   sodipodi:docname="restructuration.svg"
   inkscape:version="1.1.2 (0a00cf5339, 2022-02-04)"
   width="1635.8566"
   height="932.11658"
   xmlns:inkscape="http://www.inkscape.org/namespaces/inkscape"
   xmlns:sodipodi="http://sodipodi.sourceforge.net/DTD/sodipodi-0.dtd"
   xmlns="http://www.w3.org/2000/svg"
   xmlns:svg="http://www.w3.org/2000/svg">
  <sodipodi:namedview
     id="namedview7181"
     pagecolor="#ffffff"
     bordercolor="#666666"
     borderopacity="1.0"
     inkscape:pageshadow="2"
     inkscape:pageopacity="0.0"
     inkscape:pagecheckerboard="0"
     showgrid="false"
     fit-margin-top="0"
     fit-margin-left="0"
     fit-margin-right="0"
     fit-margin-bottom="0"
     inkscape:zoom="0.42974166"
     inkscape:cx="689.9494"
     inkscape:cy="573.60043"
     inkscape:window-width="1920"
     inkscape:window-height="1025"
     inkscape:window-x="1920"
     inkscape:window-y="0"
     inkscape:window-maximized="1"
     inkscape:current-layer="svg7179" />
  <defs
     id="defs249">
    <filter
       x="0"
       y="0"
       width="1"
       height="1"
       id="1fee31fe80">
      <feColorMatrix
         values="0 0 0 0 1 0 0 0 0 1 0 0 0 0 1 0 0 0 1 0"
         color-interpolation-filters="sRGB"
         id="feColorMatrix2" />
    </filter>
    <g
       id="g5" />
    <clipPath
       id="fced2168f2">
      <path
         d="M 45.996094,584.94531 H 841.89062 V 970.75 H 45.996094 Z m 0,0"
         clip-rule="nonzero"
         id="path7" />
    </clipPath>
    <clipPath
       id="bb20123573">
      <path
         d="m 770,790 h 8 v 13 h -8 z m 0,0"
         clip-rule="nonzero"
         id="path10" />
    </clipPath>
    <clipPath
       id="530153d173">
      <path
         d="m 745.51953,777.84766 61.35938,10.29296 -10.41797,62.10547 -61.36328,-10.29687 z m 0,0"
         clip-rule="nonzero"
         id="path13" />
    </clipPath>
    <clipPath
       id="9c1cb092a3">
      <path
         d="m 745.51953,777.84766 61.35938,10.29296 -10.41797,62.10547 -61.36328,-10.29687 z m 0,0"
         clip-rule="nonzero"
         id="path16" />
    </clipPath>
    <clipPath
       id="0650f65848">
      <path
         d="m 745.51953,777.84766 61.35938,10.29296 -10.41797,62.10547 -61.36328,-10.29687 z m 0,0"
         clip-rule="nonzero"
         id="path19" />
    </clipPath>
    <clipPath
       id="9ff9b25ebc">
      <path
         d="m 769,789 h 10 v 15 h -10 z m 0,0"
         clip-rule="nonzero"
         id="path22" />
    </clipPath>
    <clipPath
       id="7a26a15668">
      <path
         d="m 745.51953,777.84766 61.35938,10.29296 -10.41797,62.10547 -61.36328,-10.29687 z m 0,0"
         clip-rule="nonzero"
         id="path25" />
    </clipPath>
    <clipPath
       id="96991b9365">
      <path
         d="m 745.51953,777.84766 61.35938,10.29296 -10.41797,62.10547 -61.36328,-10.29687 z m 0,0"
         clip-rule="nonzero"
         id="path28" />
    </clipPath>
    <clipPath
       id="425dbfe42a">
      <path
         d="m 745.51953,777.84766 61.35938,10.29296 -10.41797,62.10547 -61.36328,-10.29687 z m 0,0"
         clip-rule="nonzero"
         id="path31" />
    </clipPath>
    <clipPath
       id="c64910ec73">
      <path
         d="m 768,783 h 14 v 11 h -14 z m 0,0"
         clip-rule="nonzero"
         id="path34" />
    </clipPath>
    <clipPath
       id="330413800a">
      <path
         d="m 745.51953,777.84766 61.35938,10.29296 -10.41797,62.10547 -61.36328,-10.29687 z m 0,0"
         clip-rule="nonzero"
         id="path37" />
    </clipPath>
    <clipPath
       id="961cd406bb">
      <path
         d="m 745.51953,777.84766 61.35938,10.29296 -10.41797,62.10547 -61.36328,-10.29687 z m 0,0"
         clip-rule="nonzero"
         id="path40" />
    </clipPath>
    <clipPath
       id="65702ed6cc">
      <path
         d="m 745.51953,777.84766 61.35938,10.29296 -10.41797,62.10547 -61.36328,-10.29687 z m 0,0"
         clip-rule="nonzero"
         id="path43" />
    </clipPath>
    <clipPath
       id="7619279b18">
      <path
         d="m 767,783 h 15 v 12 h -15 z m 0,0"
         clip-rule="nonzero"
         id="path46" />
    </clipPath>
    <clipPath
       id="1c59db36f8">
      <path
         d="m 745.51953,777.84766 61.35938,10.29296 -10.41797,62.10547 -61.36328,-10.29687 z m 0,0"
         clip-rule="nonzero"
         id="path49" />
    </clipPath>
    <clipPath
       id="5ba1f66109">
      <path
         d="m 745.51953,777.84766 61.35938,10.29296 -10.41797,62.10547 -61.36328,-10.29687 z m 0,0"
         clip-rule="nonzero"
         id="path52" />
    </clipPath>
    <clipPath
       id="8485f862a2">
      <path
         d="m 745.51953,777.84766 61.35938,10.29296 -10.41797,62.10547 -61.36328,-10.29687 z m 0,0"
         clip-rule="nonzero"
         id="path55" />
    </clipPath>
    <clipPath
       id="9becdde5e9">
      <path
         d="m 782,813 h 13 v 8 h -13 z m 0,0"
         clip-rule="nonzero"
         id="path58" />
    </clipPath>
    <clipPath
       id="d42fe2d003">
      <path
         d="m 745.51953,777.84766 61.35938,10.29296 -10.41797,62.10547 -61.36328,-10.29687 z m 0,0"
         clip-rule="nonzero"
         id="path61" />
    </clipPath>
    <clipPath
       id="29e343638d">
      <path
         d="m 745.51953,777.84766 61.35938,10.29296 -10.41797,62.10547 -61.36328,-10.29687 z m 0,0"
         clip-rule="nonzero"
         id="path64" />
    </clipPath>
    <clipPath
       id="3c873d9b6b">
      <path
         d="m 745.51953,777.84766 61.35938,10.29296 -10.41797,62.10547 -61.36328,-10.29687 z m 0,0"
         clip-rule="nonzero"
         id="path67" />
    </clipPath>
    <clipPath
       id="3c2ae1e99f">
      <path
         d="m 781,812 h 15 v 10 h -15 z m 0,0"
         clip-rule="nonzero"
         id="path70" />
    </clipPath>
    <clipPath
       id="201b5511bd">
      <path
         d="m 745.51953,777.84766 61.35938,10.29296 -10.41797,62.10547 -61.36328,-10.29687 z m 0,0"
         clip-rule="nonzero"
         id="path73" />
    </clipPath>
    <clipPath
       id="800bdff782">
      <path
         d="m 745.51953,777.84766 61.35938,10.29296 -10.41797,62.10547 -61.36328,-10.29687 z m 0,0"
         clip-rule="nonzero"
         id="path76" />
    </clipPath>
    <clipPath
       id="0a8acaf34a">
      <path
         d="m 745.51953,777.84766 61.35938,10.29296 -10.41797,62.10547 -61.36328,-10.29687 z m 0,0"
         clip-rule="nonzero"
         id="path79" />
    </clipPath>
    <clipPath
       id="b54014251a">
      <path
         d="m 790,811 h 11 v 14 h -11 z m 0,0"
         clip-rule="nonzero"
         id="path82" />
    </clipPath>
    <clipPath
       id="cdc45fac3a">
      <path
         d="m 745.51953,777.84766 61.35938,10.29296 -10.41797,62.10547 -61.36328,-10.29687 z m 0,0"
         clip-rule="nonzero"
         id="path85" />
    </clipPath>
    <clipPath
       id="ea2f4c7699">
      <path
         d="m 745.51953,777.84766 61.35938,10.29296 -10.41797,62.10547 -61.36328,-10.29687 z m 0,0"
         clip-rule="nonzero"
         id="path88" />
    </clipPath>
    <clipPath
       id="cc8b6be38b">
      <path
         d="m 745.51953,777.84766 61.35938,10.29296 -10.41797,62.10547 -61.36328,-10.29687 z m 0,0"
         clip-rule="nonzero"
         id="path91" />
    </clipPath>
    <clipPath
       id="de3a38f8e6">
      <path
         d="m 789,810 h 13 v 16 h -13 z m 0,0"
         clip-rule="nonzero"
         id="path94" />
    </clipPath>
    <clipPath
       id="66dbf5a56b">
      <path
         d="m 745.51953,777.84766 61.35938,10.29296 -10.41797,62.10547 -61.36328,-10.29687 z m 0,0"
         clip-rule="nonzero"
         id="path97" />
    </clipPath>
    <clipPath
       id="0884db7f97">
      <path
         d="m 745.51953,777.84766 61.35938,10.29296 -10.41797,62.10547 -61.36328,-10.29687 z m 0,0"
         clip-rule="nonzero"
         id="path100" />
    </clipPath>
    <clipPath
       id="bf28c56180">
      <path
         d="m 745.51953,777.84766 61.35938,10.29296 -10.41797,62.10547 -61.36328,-10.29687 z m 0,0"
         clip-rule="nonzero"
         id="path103" />
    </clipPath>
    <clipPath
       id="3a2a2405c5">
      <path
         d="m 747,807 h 13 v 8 h -13 z m 0,0"
         clip-rule="nonzero"
         id="path106" />
    </clipPath>
    <clipPath
       id="acef58f5fc">
      <path
         d="m 745.51953,777.84766 61.35938,10.29296 -10.41797,62.10547 -61.36328,-10.29687 z m 0,0"
         clip-rule="nonzero"
         id="path109" />
    </clipPath>
    <clipPath
       id="70e9a9d58d">
      <path
         d="m 745.51953,777.84766 61.35938,10.29296 -10.41797,62.10547 -61.36328,-10.29687 z m 0,0"
         clip-rule="nonzero"
         id="path112" />
    </clipPath>
    <clipPath
       id="6593dbd6e6">
      <path
         d="m 745.51953,777.84766 61.35938,10.29296 -10.41797,62.10547 -61.36328,-10.29687 z m 0,0"
         clip-rule="nonzero"
         id="path115" />
    </clipPath>
    <clipPath
       id="f2b6f81851">
      <path
         d="m 746,806 h 15 v 10 h -15 z m 0,0"
         clip-rule="nonzero"
         id="path118" />
    </clipPath>
    <clipPath
       id="ec00604472">
      <path
         d="m 745.51953,777.84766 61.35938,10.29296 -10.41797,62.10547 -61.36328,-10.29687 z m 0,0"
         clip-rule="nonzero"
         id="path121" />
    </clipPath>
    <clipPath
       id="8cc981f092">
      <path
         d="m 745.51953,777.84766 61.35938,10.29296 -10.41797,62.10547 -61.36328,-10.29687 z m 0,0"
         clip-rule="nonzero"
         id="path124" />
    </clipPath>
    <clipPath
       id="39a10ed85e">
      <path
         d="m 745.51953,777.84766 61.35938,10.29296 -10.41797,62.10547 -61.36328,-10.29687 z m 0,0"
         clip-rule="nonzero"
         id="path127" />
    </clipPath>
    <clipPath
       id="81557caf11">
      <path
         d="m 741,804 h 11 v 14 h -11 z m 0,0"
         clip-rule="nonzero"
         id="path130" />
    </clipPath>
    <clipPath
       id="13baa08ca2">
      <path
         d="m 745.51953,777.84766 61.35938,10.29296 -10.41797,62.10547 -61.36328,-10.29687 z m 0,0"
         clip-rule="nonzero"
         id="path133" />
    </clipPath>
    <clipPath
       id="e44b6efbb6">
      <path
         d="m 745.51953,777.84766 61.35938,10.29296 -10.41797,62.10547 -61.36328,-10.29687 z m 0,0"
         clip-rule="nonzero"
         id="path136" />
    </clipPath>
    <clipPath
       id="261b6cb653">
      <path
         d="m 745.51953,777.84766 61.35938,10.29296 -10.41797,62.10547 -61.36328,-10.29687 z m 0,0"
         clip-rule="nonzero"
         id="path139" />
    </clipPath>
    <clipPath
       id="18e22bf74b">
      <path
         d="m 740,803 h 13 v 16 h -13 z m 0,0"
         clip-rule="nonzero"
         id="path142" />
    </clipPath>
    <clipPath
       id="af32ea83bc">
      <path
         d="m 745.51953,777.84766 61.35938,10.29296 -10.41797,62.10547 -61.36328,-10.29687 z m 0,0"
         clip-rule="nonzero"
         id="path145" />
    </clipPath>
    <clipPath
       id="68b408b03b">
      <path
         d="m 745.51953,777.84766 61.35938,10.29296 -10.41797,62.10547 -61.36328,-10.29687 z m 0,0"
         clip-rule="nonzero"
         id="path148" />
    </clipPath>
    <clipPath
       id="37a41d130a">
      <path
         d="m 745.51953,777.84766 61.35938,10.29296 -10.41797,62.10547 -61.36328,-10.29687 z m 0,0"
         clip-rule="nonzero"
         id="path151" />
    </clipPath>
    <clipPath
       id="e03529191d">
      <path
         d="m 750,822 h 34 v 24 h -34 z m 0,0"
         clip-rule="nonzero"
         id="path154" />
    </clipPath>
    <clipPath
       id="df4014fb59">
      <path
         d="m 745.51953,777.84766 61.35938,10.29296 -10.41797,62.10547 -61.36328,-10.29687 z m 0,0"
         clip-rule="nonzero"
         id="path157" />
    </clipPath>
    <clipPath
       id="fb0fa4e3e0">
      <path
         d="m 745.51953,777.84766 61.35938,10.29296 -10.41797,62.10547 -61.36328,-10.29687 z m 0,0"
         clip-rule="nonzero"
         id="path160" />
    </clipPath>
    <clipPath
       id="5f0f1d34e3">
      <path
         d="m 745.51953,777.84766 61.35938,10.29296 -10.41797,62.10547 -61.36328,-10.29687 z m 0,0"
         clip-rule="nonzero"
         id="path163" />
    </clipPath>
    <clipPath
       id="f3638a7bcc">
      <path
         d="m 749,821 h 35 v 26 h -35 z m 0,0"
         clip-rule="nonzero"
         id="path166" />
    </clipPath>
    <clipPath
       id="bb58692600">
      <path
         d="m 745.51953,777.84766 61.35938,10.29296 -10.41797,62.10547 -61.36328,-10.29687 z m 0,0"
         clip-rule="nonzero"
         id="path169" />
    </clipPath>
    <clipPath
       id="0a1e64d380">
      <path
         d="m 745.51953,777.84766 61.35938,10.29296 -10.41797,62.10547 -61.36328,-10.29687 z m 0,0"
         clip-rule="nonzero"
         id="path172" />
    </clipPath>
    <clipPath
       id="6d858414f8">
      <path
         d="m 745.51953,777.84766 61.35938,10.29296 -10.41797,62.10547 -61.36328,-10.29687 z m 0,0"
         clip-rule="nonzero"
         id="path175" />
    </clipPath>
    <clipPath
       id="abf329712e">
      <path
         d="m 762,805 h 18 v 22 h -18 z m 0,0"
         clip-rule="nonzero"
         id="path178" />
    </clipPath>
    <clipPath
       id="1c21d268d4">
      <path
         d="m 745.51953,777.84766 61.35938,10.29296 -10.41797,62.10547 -61.36328,-10.29687 z m 0,0"
         clip-rule="nonzero"
         id="path181" />
    </clipPath>
    <clipPath
       id="18f961d1c4">
      <path
         d="m 745.51953,777.84766 61.35938,10.29296 -10.41797,62.10547 -61.36328,-10.29687 z m 0,0"
         clip-rule="nonzero"
         id="path184" />
    </clipPath>
    <clipPath
       id="de2ed62eae">
      <path
         d="m 745.51953,777.84766 61.35938,10.29296 -10.41797,62.10547 -61.36328,-10.29687 z m 0,0"
         clip-rule="nonzero"
         id="path187" />
    </clipPath>
    <clipPath
       id="ed1294dec3">
      <path
         d="m 761,804 h 20 v 24 h -20 z m 0,0"
         clip-rule="nonzero"
         id="path190" />
    </clipPath>
    <clipPath
       id="4d2b990c12">
      <path
         d="m 745.51953,777.84766 61.35938,10.29296 -10.41797,62.10547 -61.36328,-10.29687 z m 0,0"
         clip-rule="nonzero"
         id="path193" />
    </clipPath>
    <clipPath
       id="336ff1d52b">
      <path
         d="m 745.51953,777.84766 61.35938,10.29296 -10.41797,62.10547 -61.36328,-10.29687 z m 0,0"
         clip-rule="nonzero"
         id="path196" />
    </clipPath>
    <clipPath
       id="c4a7cd3aee">
      <path
         d="m 745.51953,777.84766 61.35938,10.29296 -10.41797,62.10547 -61.36328,-10.29687 z m 0,0"
         clip-rule="nonzero"
         id="path199" />
    </clipPath>
    <clipPath
       id="e4a1fa16b4">
      <path
         d="m 755,834 h 4 v 9 h -4 z m 0,0"
         clip-rule="nonzero"
         id="path202" />
    </clipPath>
    <clipPath
       id="043329d9f2">
      <path
         d="m 745.51953,777.84766 61.35938,10.29296 -10.41797,62.10547 -61.36328,-10.29687 z m 0,0"
         clip-rule="nonzero"
         id="path205" />
    </clipPath>
    <clipPath
       id="9d330751dd">
      <path
         d="m 745.51953,777.84766 61.35938,10.29296 -10.41797,62.10547 -61.36328,-10.29687 z m 0,0"
         clip-rule="nonzero"
         id="path208" />
    </clipPath>
    <clipPath
       id="1e2115ddda">
      <path
         d="m 745.51953,777.84766 61.35938,10.29296 -10.41797,62.10547 -61.36328,-10.29687 z m 0,0"
         clip-rule="nonzero"
         id="path211" />
    </clipPath>
    <clipPath
       id="bba07076c4">
      <path
         d="m 776,838 h 4 v 9 h -4 z m 0,0"
         clip-rule="nonzero"
         id="path214" />
    </clipPath>
    <clipPath
       id="4592c49fcd">
      <path
         d="m 745.51953,777.84766 61.35938,10.29296 -10.41797,62.10547 -61.36328,-10.29687 z m 0,0"
         clip-rule="nonzero"
         id="path217" />
    </clipPath>
    <clipPath
       id="96dc82fd39">
      <path
         d="m 745.51953,777.84766 61.35938,10.29296 -10.41797,62.10547 -61.36328,-10.29687 z m 0,0"
         clip-rule="nonzero"
         id="path220" />
    </clipPath>
    <clipPath
       id="8c3c8e855b">
      <path
         d="m 745.51953,777.84766 61.35938,10.29296 -10.41797,62.10547 -61.36328,-10.29687 z m 0,0"
         clip-rule="nonzero"
         id="path223" />
    </clipPath>
    <clipPath
       id="48cd6731ed">
      <path
         d="m 442,226.06641 h 22.55469 v 12.42968 H 442 Z m 0,0"
         clip-rule="nonzero"
         id="path226" />
    </clipPath>
    <clipPath
       id="8ca28fc668">
      <path
         d="m 451,28.601562 h 4 V 42 h -4 z m 0,0"
         clip-rule="nonzero"
         id="path229" />
    </clipPath>
    <clipPath
       id="bb11d237ac">
      <path
         d="m 550.13281,143.02344 h 18.60938 v 3.28125 h -18.60938 z m 0,0"
         clip-rule="nonzero"
         id="path232" />
    </clipPath>
    <clipPath
       id="d23f815b61">
      <path
         d="M 337.10937,142 H 356 v 4 h -18.89063 z m 0,0"
         clip-rule="nonzero"
         id="path235" />
    </clipPath>
    <mask
       id="a2639f30de">
      <g
         filter="url(#1fee31fe80)"
         id="g240">
        <rect
           x="-168.375"
           width="2020.5"
           fill="#000000"
           y="-119.025"
           height="1428.3"
           fill-opacity="0.8"
           id="rect238" />
      </g>
    </mask>
    <clipPath
       id="dc415d14fe">
      <path
         d="M 0.351562,0.523438 H 773.29297 V 743.74219 H 0.351562 Z m 0,0"
         clip-rule="nonzero"
         id="path243" />
    </clipPath>
    <clipPath
       id="1b2ffaf12b">
      <rect
         x="0"
         width="774"
         y="0"
         height="744"
         id="rect246" />
    </clipPath>
  </defs>
  <g
     fill="#ffffff"
     fill-opacity="1"
     id="g307"
     transform="translate(-10.436387,-3.510255)">
    <g
       transform="translate(317.94177,654.27555)"
       id="g305">
      <g
         id="g303" />
    </g>
  </g>
  <g
     fill="#ffffff"
     fill-opacity="1"
     id="g329"
     transform="translate(-10.436387,-3.510255)">
    <g
       transform="translate(370.74648,654.27555)"
       id="g327">
      <g
         id="g325" />
    </g>
  </g>
  <g
     fill="#ffffff"
     fill-opacity="1"
     id="g351"
     transform="translate(-10.436387,-3.510255)">
    <g
       transform="translate(408.2422,654.27555)"
       id="g349">
      <g
         id="g347" />
    </g>
  </g>
  <g
     fill="#ffffff"
     fill-opacity="1"
     id="g477"
     transform="translate(-10.436387,-3.510255)">
    <g
       transform="translate(680.61216,654.27555)"
       id="g475">
      <g
         id="g473" />
    </g>
  </g>
  <g
     fill="#ffffff"
     fill-opacity="1"
     id="g563"
     transform="translate(-10.436387,-3.510255)">
    <g
       transform="translate(255.61805,761.72166)"
       id="g561">
      <g
         id="g559" />
    </g>
  </g>
  <g
     fill="#ffffff"
     fill-opacity="1"
     id="g593"
     transform="translate(-10.436387,-3.510255)">
    <g
       transform="translate(307.06317,761.72166)"
       id="g591">
      <g
         id="g589" />
    </g>
  </g>
  <g
     fill="#ffffff"
     fill-opacity="1"
     id="g655"
     transform="translate(-10.436387,-3.510255)">
    <g
       transform="translate(445.70039,761.72166)"
       id="g653">
      <g
         id="g651" />
    </g>
  </g>
  <g
     fill="#ffffff"
     fill-opacity="1"
     id="g869"
     transform="translate(-10.436387,-3.510255)">
    <g
       transform="translate(283.952,803.20527)"
       id="g867">
      <g
         id="g865" />
    </g>
  </g>
  <g
     fill="#ffffff"
     fill-opacity="1"
     id="g883"
     transform="translate(-10.436387,-3.510255)">
    <g
       transform="translate(311.09216,803.20527)"
       id="g881">
      <g
         id="g879" />
    </g>
  </g>
  <g
     fill="#ffffff"
     fill-opacity="1"
     id="g977"
     transform="translate(-10.436387,-3.510255)">
    <g
       transform="translate(485.83734,803.20527)"
       id="g975">
      <g
         id="g973" />
    </g>
  </g>
  <g
     fill="#ffffff"
     fill-opacity="1"
     id="g999"
     transform="translate(-10.436387,-3.510255)">
    <g
       transform="translate(528.96429,803.20527)"
       id="g997">
      <g
         id="g995" />
    </g>
  </g>
  <g
     fill="#ffffff"
     fill-opacity="1"
     id="g1117"
     transform="translate(-10.436387,-3.510255)">
    <g
       transform="translate(258.55453,844.68889)"
       id="g1115">
      <g
         id="g1113" />
    </g>
  </g>
  <g
     fill="#ffffff"
     fill-opacity="1"
     id="g1147"
     transform="translate(-10.436387,-3.510255)">
    <g
       transform="translate(322.5871,844.68889)"
       id="g1145">
      <g
         id="g1143" />
    </g>
  </g>
  <g
     fill="#ffffff"
     fill-opacity="1"
     id="g1209"
     transform="translate(-10.436387,-3.510255)">
    <g
       transform="translate(461.22432,844.68889)"
       id="g1207">
      <g
         id="g1205" />
    </g>
  </g>
  <g
     fill="#ffffff"
     fill-opacity="1"
     id="g1391"
     transform="translate(-10.436387,-3.510255)">
    <g
       transform="translate(287.18058,886.1725)"
       id="g1389">
      <g
         id="g1387" />
    </g>
  </g>
  <g
     fill="#ffffff"
     fill-opacity="1"
     id="g1413"
     transform="translate(-10.436387,-3.510255)">
    <g
       transform="translate(322.63893,886.1725)"
       id="g1411">
      <g
         id="g1409" />
    </g>
  </g>
  <g
     fill="#ffffff"
     fill-opacity="1"
     id="g1475"
     transform="translate(-10.436387,-3.510255)">
    <g
       transform="translate(441.65207,886.1725)"
       id="g1473">
      <g
         id="g1471" />
    </g>
  </g>
  <g
     fill="#ffffff"
     fill-opacity="1"
     id="g1489"
     transform="translate(-10.436387,-3.510255)">
    <g
       transform="translate(468.79222,886.1725)"
       id="g1487">
      <g
         id="g1485" />
    </g>
  </g>
  <g
     fill="#ffffff"
     fill-opacity="1"
     id="g1535"
     transform="translate(-10.436387,-3.510255)">
    <g
       transform="translate(554.27756,886.1725)"
       id="g1533">
      <g
         id="g1531" />
    </g>
  </g>
  <g
     fill="#ffffff"
     fill-opacity="1"
     id="g1589"
     transform="translate(-10.436387,-3.510255)">
    <g
       transform="translate(676.92796,886.1725)"
       id="g1587">
      <g
         id="g1585" />
    </g>
  </g>
  <g
     fill="#ffffff"
     fill-opacity="1"
     id="g1683"
     transform="translate(-10.436387,-3.510255)">
    <g
       transform="translate(250.83528,927.65611)"
       id="g1681">
      <g
         id="g1679" />
    </g>
  </g>
  <g
     fill="#ffffff"
     fill-opacity="1"
     id="g1737"
     transform="translate(-10.436387,-3.510255)">
    <g
       transform="translate(345.86782,927.65611)"
       id="g1735">
      <g
         id="g1733" />
    </g>
  </g>
  <g
     id="g14455"
     transform="translate(21.528373,13.103026)">
    <path
       fill="#0c72ab"
       d="m 364.14798,50.424318 c -8.42968,0 -15.49609,6.574219 -16.08984,14.968755 l -0.0625,0.8789 -0.79688,0.38672 c -8.28515,4.02734 -13.43359,12.24609 -13.43359,21.445311 0,4.90235 1.48438,9.61719 4.28906,13.632806 l 0.36719,0.52344 -0.11719,0.62891 c -0.0391,0.21875 -0.0742,0.4375 -0.10156,0.66015 l -0.0586,0.42969 -0.27735,0.33985 c -4.14453,5.03125 -6.42578,11.39843 -6.42578,17.92578 0,13.90625 10.36328,25.91406 24.11328,27.9375 l 0.60157,0.0898 0.375,0.47656 c 3.72265,4.71875 9.55859,7.79688 16.4414,8.66797 1.08985,0.13672 2.14453,-0.1875 2.96875,-0.91797 0.82422,-0.72656 1.29688,-1.76953 1.29688,-2.86718 V 50.631349 c 0,-2.46875 -1.79688,-3.578125 -3.33594,-3.78125 -1.52344,-0.199218 -3.52344,0.410156 -4.14844,2.769532 l -0.40625,1.589843 -1.46484,-0.34375 c -1.23047,-0.292969 -2.48828,-0.441406 -3.73438,-0.441406 z m 9.29688,112.078122 c -0.28516,0 -0.57031,-0.0195 -0.85547,-0.0547 -7.45703,-0.9414 -13.85156,-4.25 -18.07813,-9.33594 -7.13281,-1.1914 -13.66015,-4.83984 -18.4375,-10.32421 -4.96093,-5.69141 -7.6914,-12.98438 -7.6914,-20.54297 0,-7.02735 2.38672,-13.89063 6.73437,-19.39063 -2.89062,-4.390616 -4.41406,-9.472646 -4.41406,-14.749996 0,-5.140621 1.45703,-10.140621 4.21484,-14.453121 2.52735,-3.95313 6.03125,-7.17188 10.16797,-9.35156 1.1211,-9.562505 9.32813,-16.929692 19.0625,-16.929692 1.02735,0 2.0625,0.08203 3.08594,0.25 1.24609,-2.671876 3.99219,-4.199219 7.0625,-3.800782 2.89063,0.378906 6.00391,2.671875 6.00391,6.8125 V 155.63135 c 0,1.97656 -0.85157,3.85546 -2.33594,5.16015 -1.25391,1.10938 -2.86719,1.71094 -4.51953,1.71094"
       fill-opacity="1"
       fill-rule="nonzero"
       id="path1983" />
    <path
       fill="#0c72ab"
       d="m 356.95267,153.17041 c -0.88672,0 -1.77734,-0.0586 -2.65625,-0.1836 l 0.42188,-3.02734 c 3.23437,0.44922 6.58593,-0.0898 9.4375,-1.51953 l 1.375,2.73437 c -2.6211,1.3125 -5.59375,1.9961 -8.57813,1.9961"
       fill-opacity="1"
       fill-rule="nonzero"
       id="path1985" />
    <path
       fill="#0c72ab"
       d="m 366.18314,152.32275 c 1.36328,-0.8164 1.80469,-2.58203 0.99219,-3.9414 -0.81641,-1.36329 -2.58594,-1.8086 -3.94532,-0.99219 -1.36328,0.8164 -1.80859,2.58203 -0.99218,3.9414 0.8164,1.36329 2.58203,1.80469 3.94531,0.99219"
       fill-opacity="1"
       fill-rule="nonzero"
       id="path1987" />
    <path
       fill="#0c72ab"
       d="m 349.74955,114.99853 c -6.09375,-2.5664 -11.15235,-6.77343 -14.6211,-12.16797 l 2.57422,-1.65234 c 3.13281,4.875 7.71094,8.67969 13.23438,11.00391 l -1.1875,2.8164"
       fill-opacity="1"
       fill-rule="nonzero"
       id="path1989" />
    <path
       fill="#0c72ab"
       d="m 349.20267,116.22119 c 1.48438,0.55859 3.14453,-0.19531 3.70313,-1.67969 0.55859,-1.48437 -0.19532,-3.14453 -1.67969,-3.70312 -1.48828,-0.5586 -3.14453,0.19531 -3.70313,1.67968 -0.55859,1.48829 0.19141,3.14454 1.67969,3.70313"
       fill-opacity="1"
       fill-rule="nonzero"
       id="path1991" />
    <path
       fill="#0c72ab"
       d="m 342.42923,69.717283 -1.83203,-2.44921 c 5.14453,-3.83594 11.35547,-6.00782 17.96485,-6.27735 l 0.125,3.05469 c -5.99219,0.24609 -11.61329,2.20703 -16.25782,5.67187"
       fill-opacity="1"
       fill-rule="nonzero"
       id="path1993" />
    <path
       fill="#0c72ab"
       d="m 358.48392,65.404783 c 1.58984,-0.004 2.875,-1.29296 2.87109,-2.8789 0,-1.58985 -1.29296,-2.8711 -2.8789,-2.8711 -1.58985,0.004 -2.875,1.29297 -2.8711,2.87891 0,1.58594 1.28907,2.87109 2.87891,2.87109"
       fill-opacity="1"
       fill-rule="nonzero"
       id="path1995" />
    <path
       fill="#0c72ab"
       d="m 363.0933,81.764163 -1.78125,-2.48438 c 4.30468,-3.08203 7.42968,-7.76562 8.57421,-12.85546 1.34375,-5.97266 -0.008,-12.488286 -3.61718,-17.429692 l 2.47656,-1.800782 c 4.11719,5.644532 5.66016,13.085934 4.125,19.898434 -1.30469,5.8125 -4.87109,11.16016 -9.77734,14.67188"
       fill-opacity="1"
       fill-rule="nonzero"
       id="path1997" />
    <path
       fill="#0c72ab"
       d="m 360.77298,78.006353 c -1.34375,0.85156 -1.73828,2.6289 -0.88672,3.96875 0.85547,1.33984 2.63282,1.73437 3.97266,0.88281 1.33984,-0.85156 1.73438,-2.62891 0.88281,-3.96875 -0.85156,-1.33984 -2.63281,-1.73438 -3.96875,-0.88281"
       fill-opacity="1"
       fill-rule="nonzero"
       id="path1999" />
    <path
       fill="#0c72ab"
       d="m 378.3433,131.02197 c -4.42188,-1.27344 -8.40625,-4.86328 -11.51172,-10.38672 -1.07422,-1.91015 -2,-3.90625 -2.89453,-5.83984 -1.17969,-2.54297 -2.29297,-4.94531 -3.72657,-7.19922 -2.61328,-4.10156 -6.2539,-7.54297 -10.52343,-9.949216 l 1.5039,-2.66406 c 4.70703,2.65234 8.71875,6.445306 11.59766,10.972646 1.54687,2.42579 2.7539,5.03516 3.92578,7.55469 0.87109,1.87891 1.76953,3.82031 2.78516,5.62891 1.88671,3.35156 5.09765,7.625 9.6914,8.94531 l -0.84765,2.9375"
       fill-opacity="1"
       fill-rule="nonzero"
       id="path2001" />
    <path
       fill="#0c72ab"
       d="m 349.23392,98.951664 c -1.41016,-0.72656 -1.96094,-2.46094 -1.23437,-3.8711 0.73046,-1.41015 2.46484,-1.96093 3.8789,-1.23437 1.41016,0.73047 1.96094,2.46484 1.23047,3.875 -0.72656,1.41016 -2.46484,1.96094 -3.875,1.23047"
       fill-opacity="1"
       fill-rule="nonzero"
       id="path2003" />
    <path
       fill="#0c72ab"
       d="m 392.50736,46.814943 c -0.1875,0 -0.3711,0.01563 -0.54688,0.03516 -1.53906,0.203125 -3.33593,1.3125 -3.33593,3.78125 V 155.63135 c 0,1.09765 0.47265,2.14062 1.29687,2.86718 0.82813,0.73047 1.87891,1.05469 2.96875,0.91797 6.88281,-0.87109 12.72266,-3.94922 16.44141,-8.66797 l 0.3789,-0.47656 0.60157,-0.0898 c 13.74609,-2.02344 24.10937,-14.03125 24.10937,-27.9375 0,-6.52735 -2.28125,-12.89453 -6.42578,-17.92578 l -0.27734,-0.33985 -0.0547,-0.42969 c -0.0312,-0.22265 -0.0664,-0.4414 -0.10547,-0.66015 l -0.11719,-0.62891 0.36719,-0.52344 c 2.80859,-4.015616 4.29297,-8.730456 4.29297,-13.632806 0,-9.199221 -5.14844,-17.417971 -13.4375,-21.445311 l -0.79297,-0.38672 -0.0625,-0.8789 c -0.59375,-8.394536 -7.66406,-14.968755 -16.08984,-14.968755 -1.25,0 -2.50782,0.148437 -3.73829,0.441406 l -1.46484,0.34375 -0.40625,-1.59375 c -0.55077,-2.082071 -2.17968,-2.800821 -3.60155,-2.800821 z m -0.0859,115.687497 c -1.65625,0 -3.26562,-0.60156 -4.52344,-1.71094 -1.48437,-1.30469 -2.33203,-3.18359 -2.33203,-5.16015 V 50.631349 c 0,-4.140625 3.10938,-6.433594 6,-6.8125 3.07031,-0.398437 5.81641,1.128906 7.0625,3.800782 1.02344,-0.167969 2.0586,-0.25 3.08985,-0.25 9.73046,0 17.9375,7.367187 19.05859,16.929692 4.13672,2.17968 7.64062,5.39843 10.16797,9.35156 2.75781,4.3125 4.21484,9.3125 4.21484,14.453121 0,5.27735 -1.52344,10.35938 -4.41406,14.749996 4.34766,5.5 6.73828,12.36328 6.73828,19.39063 0,7.55859 -2.73437,14.85156 -7.69531,20.54297 -4.77735,5.48437 -11.30469,9.13281 -18.4375,10.32421 -4.22656,5.08594 -10.6211,8.39454 -18.07422,9.33594 -0.28516,0.0352 -0.57422,0.0547 -0.85547,0.0547"
       fill-opacity="1"
       fill-rule="nonzero"
       id="path2005" />
    <path
       fill="#0c72ab"
       d="m 408.9097,153.17041 c -2.98437,0 -5.95312,-0.6836 -8.57422,-1.9961 l 1.3711,-2.73437 c 2.85156,1.42969 6.20312,1.97266 9.4414,1.51953 l 0.42188,3.02734 c -0.88281,0.125 -1.77344,0.1836 -2.66016,0.1836"
       fill-opacity="1"
       fill-rule="nonzero"
       id="path2007" />
    <path
       fill="#0c72ab"
       d="m 402.63626,147.38916 c -1.36328,-0.81641 -3.1289,-0.3711 -3.94531,0.99219 -0.8164,1.35937 -0.375,3.125 0.98828,3.9414 1.36328,0.8125 3.13282,0.3711 3.94532,-0.99219 0.8164,-1.35937 0.375,-3.125 -0.98829,-3.9414"
       fill-opacity="1"
       fill-rule="nonzero"
       id="path2009" />
    <path
       fill="#0c72ab"
       d="m 416.11283,114.99853 -1.1875,-2.8164 c 5.52343,-2.32422 10.10156,-6.12891 13.23828,-11.00391 l 2.57422,1.65234 c -3.47266,5.39454 -8.53125,9.60157 -14.625,12.16797"
       fill-opacity="1"
       fill-rule="nonzero"
       id="path2011" />
    <path
       fill="#0c72ab"
       d="m 414.63626,110.83838 c -1.48437,0.55859 -2.23828,2.21875 -1.67968,3.70312 0.55859,1.48438 2.21875,2.23828 3.70703,1.67969 1.48437,-0.55859 2.23828,-2.21484 1.67969,-3.70313 -0.5586,-1.48437 -2.21875,-2.23828 -3.70704,-1.67968"
       fill-opacity="1"
       fill-rule="nonzero"
       id="path2013" />
    <path
       fill="#0c72ab"
       d="m 423.43314,69.717283 c -4.64453,-3.46484 -10.26563,-5.42578 -16.25391,-5.67187 l 0.125,-3.05469 c 6.60547,0.26953 12.81641,2.44141 17.96094,6.27735 l -1.83203,2.44921"
       fill-opacity="1"
       fill-rule="nonzero"
       id="path2015" />
    <path
       fill="#0c72ab"
       d="m 407.39017,59.654783 c -1.58984,0 -2.87891,1.28125 -2.88281,2.8711 -0.004,1.58594 1.28515,2.875 2.87109,2.8789 1.58985,0 2.87891,-1.28515 2.88281,-2.87109 0,-1.58594 -1.28515,-2.875 -2.87109,-2.87891"
       fill-opacity="1"
       fill-rule="nonzero"
       id="path2017" />
    <path
       fill="#0c72ab"
       d="m 402.76908,81.764163 c -4.90625,-3.51172 -8.47266,-8.85938 -9.77735,-14.67188 -1.53125,-6.8125 0.0117,-14.253902 4.12891,-19.898434 l 2.47266,1.800782 c -3.60547,4.941406 -4.95704,11.457032 -3.61719,17.429692 1.14453,5.08984 4.26953,9.77343 8.57812,12.85546 l -1.78515,2.48438"
       fill-opacity="1"
       fill-rule="nonzero"
       id="path2019" />
    <path
       fill="#0c72ab"
       d="m 402.00736,82.857913 c 1.33984,0.85156 3.11719,0.45703 3.96875,-0.88281 0.85156,-1.33985 0.45703,-3.11719 -0.88281,-3.96875 -1.33985,-0.85157 -3.11719,-0.45703 -3.97266,0.88281 -0.85156,1.33984 -0.45703,3.11719 0.88672,3.96875"
       fill-opacity="1"
       fill-rule="nonzero"
       id="path2021" />
    <path
       fill="#0c72ab"
       d="m 387.51908,131.02197 -0.84766,-2.9375 c 4.59375,-1.32031 7.80469,-5.59375 9.69141,-8.94531 1.01562,-1.8086 1.91797,-3.75 2.78906,-5.62891 1.16797,-2.51953 2.375,-5.1289 3.92187,-7.55469 2.87891,-4.52734 6.89063,-8.320306 11.60157,-10.972646 l 1.5,2.66406 c -4.26953,2.406246 -7.90625,5.847656 -10.51953,9.949216 -1.4375,2.25391 -2.55079,4.65625 -3.73047,7.19922 -0.89453,1.93359 -1.82032,3.92969 -2.89453,5.83984 -3.10547,5.52344 -7.08594,9.11328 -11.51172,10.38672"
       fill-opacity="1"
       fill-rule="nonzero"
       id="path2023" />
    <path
       fill="#0c72ab"
       d="m 413.98783,93.846194 c 1.41015,-0.72656 3.14453,-0.17578 3.875,1.23437 0.73047,1.41016 0.17578,3.14454 -1.23438,3.8711 -1.41015,0.73047 -3.14453,0.17969 -3.875,-1.23047 -0.73047,-1.41016 -0.17969,-3.14453 1.23438,-3.875"
       fill-opacity="1"
       fill-rule="nonzero"
       id="path2025" />
    <path
       fill="#0c72ab"
       d="m 396.93314,168.15088 h -28 c -0.84766,0 -1.53125,-0.6875 -1.53125,-1.53125 0,-0.84375 0.68359,-1.52735 1.53125,-1.52735 h 28 c 0.84375,0 1.52734,0.6836 1.52734,1.52735 0,0.84375 -0.68359,1.53125 -1.52734,1.53125"
       fill-opacity="1"
       fill-rule="nonzero"
       id="path2027" />
    <path
       fill="#0c72ab"
       d="m 396.93314,174.17431 h -28 c -0.84766,0 -1.53125,-0.68359 -1.53125,-1.52734 0,-0.84766 0.68359,-1.53125 1.53125,-1.53125 h 28 c 0.84375,0 1.52734,0.68359 1.52734,1.53125 0,0.84375 -0.68359,1.52734 -1.52734,1.52734"
       fill-opacity="1"
       fill-rule="nonzero"
       id="path2029" />
    <path
       fill="#0c72ab"
       d="m 396.93314,180.19775 h -28 c -0.84766,0 -1.53125,-0.68359 -1.53125,-1.52734 0,-0.84375 0.68359,-1.53125 1.53125,-1.53125 h 28 c 0.84375,0 1.52734,0.6875 1.52734,1.53125 0,0.84375 -0.68359,1.52734 -1.52734,1.52734"
       fill-opacity="1"
       fill-rule="nonzero"
       id="path2031" />
    <path
       fill="#0c72ab"
       d="m 396.93314,186.22119 h -28 c -0.84766,0 -1.53125,-0.68359 -1.53125,-1.52734 0,-0.84375 0.68359,-1.52735 1.53125,-1.52735 h 28 c 0.84375,0 1.52734,0.6836 1.52734,1.52735 0,0.84375 -0.68359,1.52734 -1.52734,1.52734"
       fill-opacity="1"
       fill-rule="nonzero"
       id="path2033" />
    <g
       clip-path="url(#48cd6731ed)"
       id="g2037"
       transform="translate(-70.379366,-41.716307)">
      <path
         fill="#0c72ab"
         d="m 453.3125,238.49609 c -6.16797,0 -11.1875,-5.01172 -11.1875,-11.17578 l 0.004,-0.19531 3.05859,0.0469 v 0.14844 c 0,4.47656 3.64453,8.11719 8.125,8.11719 4.48047,0 8.125,-3.64063 8.125,-8.11719 0,-0.25781 -0.0156,-0.51562 -0.0352,-0.76953 l 3.04688,-0.28516 c 0.0312,0.35157 0.0469,0.70313 0.0469,1.05469 0,6.16406 -5.01562,11.17578 -11.18359,11.17578"
         fill-opacity="1"
         fill-rule="nonzero"
         id="path2035" />
    </g>
    <path
       fill="#0c72ab"
       d="m 382.93314,28.932131 c -0.84766,0 -1.53125,-0.683594 -1.53125,-1.527344 V 16.826662 c 0,-0.84375 0.68359,-1.527344 1.53125,-1.527344 0.84375,0 1.52734,0.683594 1.52734,1.527344 v 10.578125 c 0,0.84375 -0.68359,1.527344 -1.52734,1.527344"
       fill-opacity="1"
       fill-rule="nonzero"
       id="path2039" />
    <g
       clip-path="url(#8ca28fc668)"
       id="g2043"
       transform="translate(-70.379366,-41.716307)">
      <path
         fill="#0c72ab"
         d="m 453.3125,41.460938 c -0.84766,0 -1.53125,-0.683594 -1.53125,-1.527344 v -9.792969 c 0,-0.84375 0.68359,-1.527344 1.53125,-1.527344 0.84375,0 1.52734,0.683594 1.52734,1.527344 v 9.792969 c 0,0.84375 -0.68359,1.527344 -1.52734,1.527344"
         fill-opacity="1"
         fill-rule="nonzero"
         id="path2041" />
    </g>
    <path
       fill="#0c72ab"
       d="m 436.04642,51.229005 c -0.39453,0 -0.78516,-0.148437 -1.08203,-0.445312 -0.59766,-0.597656 -0.59766,-1.566406 0,-2.164062 L 449.0972,34.502443 c 0.59766,-0.597656 1.56641,-0.597656 2.16406,0 0.59766,0.597656 0.59766,1.5625 0,2.160156 l -14.13281,14.121094 c -0.30078,0.296875 -0.6914,0.445312 -1.08203,0.445312"
       fill-opacity="1"
       fill-rule="nonzero"
       id="path2045" />
    <path
       fill="#0c72ab"
       d="m 454.94876,32.342287 c -0.39062,0 -0.78125,-0.148438 -1.08203,-0.445313 -0.59765,-0.597656 -0.59765,-1.566406 0,-2.164062 l 8.6836,-8.671875 c 0.59765,-0.597656 1.5664,-0.597656 2.16406,0 0.59766,0.59375 0.59766,1.5625 0,2.160156 l -8.68359,8.675781 c -0.29688,0.296875 -0.69141,0.445313 -1.08204,0.445313"
       fill-opacity="1"
       fill-rule="nonzero"
       id="path2047" />
    <path
       fill="#0c72ab"
       d="m 470.92533,104.52197 h -13.10547 c -0.84375,0 -1.53125,-0.68359 -1.53125,-1.53125 0,-0.84375 0.6875,-1.52734 1.53125,-1.52734 h 13.10547 c 0.84765,0 1.53125,0.68359 1.53125,1.52734 0,0.84766 -0.6836,1.53125 -1.53125,1.53125"
       fill-opacity="1"
       fill-rule="nonzero"
       id="path2049" />
    <g
       clip-path="url(#bb11d237ac)"
       id="g2053"
       transform="translate(-70.379366,-41.716307)">
      <path
         fill="#0c72ab"
         d="m 567.21484,146.23828 h -15.45703 c -0.84765,0 -1.53125,-0.68359 -1.53125,-1.53125 0,-0.84375 0.6836,-1.52734 1.53125,-1.52734 h 15.45703 c 0.84375,0 1.52735,0.68359 1.52735,1.52734 0,0.84766 -0.6836,1.53125 -1.52735,1.53125"
         fill-opacity="1"
         fill-rule="nonzero"
         id="path2051" />
    </g>
    <path
       fill="#0c72ab"
       d="m 442.58939,164.67041 c -0.39063,0 -0.78125,-0.14844 -1.08203,-0.44922 l -7.08985,-7.08203 c -0.59375,-0.59766 -0.59375,-1.56641 0,-2.16406 0.60157,-0.59375 1.56641,-0.59375 2.16407,0 l 7.09375,7.08593 c 0.59375,0.59766 0.59375,1.5625 0,2.16016 -0.30078,0.30078 -0.69141,0.44922 -1.08594,0.44922"
       fill-opacity="1"
       fill-rule="nonzero"
       id="path2055" />
    <path
       fill="#0c72ab"
       d="M 462.00736,184.70166 447.64408,170.3501 c -0.59766,-0.59766 -0.59766,-1.56641 0,-2.16016 0.59765,-0.59766 1.5625,-0.59766 2.16406,0 l 14.36328,14.34766 -2.16406,2.16406"
       fill-opacity="1"
       fill-rule="nonzero"
       id="path2057" />
    <path
       fill="#0c72ab"
       d="m 325.61673,160.47119 c -0.39453,0 -0.78515,-0.14844 -1.08593,-0.44531 -0.59375,-0.59766 -0.59375,-1.56641 0,-2.16407 l 3.43359,-3.42968 c 0.60156,-0.59766 1.56641,-0.59766 2.16406,0 0.59766,0.59765 0.59766,1.5664 0,2.16406 l -3.43359,3.42969 c -0.29688,0.29687 -0.6875,0.44531 -1.07813,0.44531"
       fill-opacity="1"
       fill-rule="nonzero"
       id="path2059" />
    <path
       fill="#0c72ab"
       d="m 301.46048,184.604 c -0.39062,0 -0.78125,-0.14844 -1.08203,-0.44922 -0.59765,-0.59375 -0.59765,-1.5625 0,-2.16015 l 12.57031,-12.5586 c 0.59766,-0.59765 1.56641,-0.59765 2.16407,0 0.59765,0.59766 0.59765,1.56641 0,2.16407 l -12.57032,12.55468 c -0.29687,0.30078 -0.6914,0.44922 -1.08203,0.44922"
       fill-opacity="1"
       fill-rule="nonzero"
       id="path2061" />
    <path
       fill="#0c72ab"
       d="m 307.27298,103.75244 h -13.96875 c -0.84765,0 -1.53125,-0.68359 -1.53125,-1.52734 0,-0.84766 0.6836,-1.53125 1.53125,-1.53125 h 13.96875 c 0.84375,0 1.53125,0.68359 1.53125,1.53125 0,0.84375 -0.6875,1.52734 -1.53125,1.52734"
       fill-opacity="1"
       fill-rule="nonzero"
       id="path2063" />
    <g
       clip-path="url(#d23f815b61)"
       id="g2067"
       transform="translate(-70.379366,-41.716307)">
      <path
         fill="#0c72ab"
         d="m 353.6875,145.46875 h -15.04688 c -0.84765,0 -1.53125,-0.68359 -1.53125,-1.52734 0,-0.84766 0.6836,-1.53125 1.53125,-1.53125 h 15.04688 c 0.84375,0 1.53125,0.68359 1.53125,1.53125 0,0.84375 -0.6875,1.52734 -1.53125,1.52734"
         fill-opacity="1"
         fill-rule="nonzero"
         id="path2065" />
    </g>
    <path
       fill="#0c72ab"
       d="m 329.5933,50.686037 c -0.39063,0 -0.78516,-0.148438 -1.08204,-0.445313 l -7.75,-7.742187 c -0.59765,-0.597656 -0.59765,-1.566406 0,-2.164063 0.59766,-0.597656 1.56641,-0.597656 2.16407,0 l 7.75,7.742188 c 0.59765,0.597656 0.59765,1.566406 0,2.164062 -0.30078,0.296875 -0.69141,0.445313 -1.08203,0.445313"
       fill-opacity="1"
       fill-rule="nonzero"
       id="path2069" />
    <path
       fill="#0c72ab"
       d="m 313.43705,34.549318 c -0.39063,0 -0.78125,-0.152344 -1.07813,-0.449219 L 300.92533,22.678224 c -0.59766,-0.597656 -0.59766,-1.566406 0,-2.164062 0.59765,-0.59375 1.5664,-0.59375 2.16015,0 l 11.4336,11.425781 c 0.59765,0.59375 0.59765,1.5625 0,2.160156 -0.29688,0.296875 -0.6875,0.449219 -1.08203,0.449219"
       fill-opacity="1"
       fill-rule="nonzero"
       id="path2071" />
    <path
       fill="#0c72ab"
       d="m 358.1597,37.451662 c -0.50781,0 -1.00781,-0.253907 -1.29687,-0.714844 l -4.44532,-7.054687 c -0.44921,-0.714844 -0.23437,-1.65625 0.48047,-2.105469 0.71485,-0.449219 1.66016,-0.234375 2.10938,0.476562 l 4.44531,7.054688 c 0.44922,0.714843 0.23438,1.65625 -0.48047,2.105469 -0.2539,0.160156 -0.53515,0.238281 -0.8125,0.238281"
       fill-opacity="1"
       fill-rule="nonzero"
       id="path2073" />
    <path
       fill="#0c72ab"
       d="m 348.62455,22.318849 c -0.50782,0 -1.00782,-0.253906 -1.29688,-0.714844 l -6.23437,-9.894531 c -0.44922,-0.714843 -0.23438,-1.660156 0.48046,-2.1093748 0.71485,-0.449218 1.66016,-0.234375 2.10938,0.4804688 l 6.23437,9.894531 c 0.44922,0.714844 0.23438,1.65625 -0.48046,2.109375 -0.25391,0.15625 -0.53516,0.234375 -0.8125,0.234375"
       fill-opacity="1"
       fill-rule="nonzero"
       id="path2075" />
    <path
       fill="#0c72ab"
       d="m 408.40189,37.451662 c -0.27734,0 -0.55859,-0.07813 -0.8125,-0.238281 -0.71484,-0.449219 -0.92969,-1.390626 -0.48047,-2.105469 l 5.05078,-8.011719 c 0.44922,-0.71875 1.39453,-0.929688 2.10938,-0.480469 0.71484,0.449219 0.92968,1.394531 0.48047,2.105469 l -5.05079,8.015625 c -0.28906,0.460937 -0.78906,0.714844 -1.29687,0.714844"
       fill-opacity="1"
       fill-rule="nonzero"
       id="path2077" />
    <path
       fill="#0c72ab"
       d="m 419.23392,20.260255 c -0.28125,0 -0.5625,-0.07422 -0.81641,-0.234374 -0.71484,-0.449219 -0.92968,-1.390626 -0.47656,-2.105469 l 4.9375,-7.839844 c 0.44922,-0.7148438 1.39453,-0.9296868 2.10938,-0.4804688 0.71484,0.4492188 0.92968,1.3945318 0.48047,2.1093748 l -4.94141,7.839844 c -0.28906,0.460937 -0.78516,0.710937 -1.29297,0.710937"
       fill-opacity="1"
       fill-rule="nonzero"
       id="path2079" />
    <path
       fill="#0c72ab"
       d="m 315.16361,76.533693 -13.26953,-6.0625 c -0.76563,-0.35156 -1.10547,-1.25781 -0.75391,-2.02734 0.35156,-0.76563 1.25781,-1.10547 2.02734,-0.75391 l 13.26954,6.0625 -1.27344,2.78125"
       fill-opacity="1"
       fill-rule="nonzero"
       id="path2081" />
    <path
       fill="#0c72ab"
       d="m 293.43314,66.451663 c -0.21094,0 -0.42969,-0.043 -0.63672,-0.13672 l -11.86328,-5.42187 c -0.76953,-0.35157 -1.10547,-1.25782 -0.75391,-2.02735 0.35157,-0.765624 1.25782,-1.105468 2.02735,-0.753905 l 11.86328,5.421875 c 0.76953,0.35156 1.10937,1.25781 0.7539,2.02734 -0.2539,0.5586 -0.80859,0.89063 -1.39062,0.89063"
       fill-opacity="1"
       fill-rule="nonzero"
       id="path2083" />
    <path
       fill="#0c72ab"
       d="m 449.93314,76.533693 -1.27344,-2.78125 13.67969,-6.25 c 0.76953,-0.35156 1.67578,-0.0156 2.02734,0.75391 0.35157,0.76953 0.0156,1.67578 -0.7539,2.02343 l -13.67969,6.25391"
       fill-opacity="1"
       fill-rule="nonzero"
       id="path2085" />
    <path
       fill="#0c72ab"
       d="m 478.17142,63.479003 c -0.58203,0 -1.13672,-0.33203 -1.39453,-0.89453 -0.35156,-0.76562 -0.0117,-1.67187 0.75781,-2.02344 l 5.35156,-2.449215 c 0.76954,-0.351563 1.67579,-0.01172 2.02735,0.753905 0.35156,0.76953 0.0156,1.67578 -0.75391,2.02735 l -5.35547,2.44531 c -0.20703,0.0937 -0.42187,0.14062 -0.63281,0.14062"
       fill-opacity="1"
       fill-rule="nonzero"
       id="path2087" />
    <path
       fill="#0c72ab"
       d="m 306.16751,134.70947 c -0.54687,0 -1.07421,-0.29297 -1.35156,-0.8125 -0.39453,-0.74219 -0.11328,-1.66797 0.63281,-2.06641 l 9.08985,-4.82031 c 0.74609,-0.39453 1.67187,-0.11328 2.0664,0.63281 0.39844,0.7461 0.11329,1.67188 -0.63281,2.06641 l -9.08594,4.82031 c -0.23046,0.125 -0.47656,0.17969 -0.71875,0.17969"
       fill-opacity="1"
       fill-rule="nonzero"
       id="path2089" />
    <path
       fill="#0c72ab"
       d="m 285.04251,146.11963 -1.4375,-2.69922 13.47657,-7.14844 c 0.74609,-0.39453 1.67187,-0.11328 2.0664,0.63281 0.39453,0.7461 0.11328,1.67188 -0.63281,2.06641 l -13.47266,7.14844"
       fill-opacity="1"
       fill-rule="nonzero"
       id="path2091" />
    <path
       fill="#0c72ab"
       d="m 457.16751,133.19385 c -0.24218,0 -0.48828,-0.0586 -0.71484,-0.17969 l -6.22656,-3.30469 c -0.7461,-0.39453 -1.03125,-1.32031 -0.63281,-2.06641 0.39453,-0.74609 1.32031,-1.02734 2.0664,-0.63281 l 6.22656,3.30469 c 0.7461,0.39453 1.03125,1.32031 0.63282,2.06641 -0.27344,0.51562 -0.80469,0.8125 -1.35157,0.8125"
       fill-opacity="1"
       fill-rule="nonzero"
       id="path2093" />
    <path
       fill="#0c72ab"
       d="m 481.87455,146.29931 c -0.24219,0 -0.48829,-0.0586 -0.71875,-0.17968 l -15.02735,-7.97266 c -0.74609,-0.39844 -1.03125,-1.32422 -0.63672,-2.06641 0.39844,-0.74609 1.32422,-1.03125 2.07032,-0.63281 l 15.03125,7.97266 c 0.74609,0.39453 1.03125,1.32031 0.63281,2.0664 -0.27344,0.51563 -0.80469,0.8125 -1.35156,0.8125"
       fill-opacity="1"
       fill-rule="nonzero"
       id="path2095" />
  </g>
  <g
     fill="#000000"
     fill-opacity="1"
     id="g2119"
     transform="translate(-10.436387,-3.510255)">
    <g
       transform="translate(128.01067,317.56951)"
       id="g2117">
      <g
         id="g2115" />
    </g>
  </g>
  <g
     fill="#000000"
     fill-opacity="1"
     id="g2245"
     transform="translate(-10.436387,-3.510255)">
    <g
       transform="translate(337.67003,317.56951)"
       id="g2243">
      <g
         id="g2241" />
    </g>
  </g>
  <g
     fill="#000000"
     fill-opacity="1"
     id="g2323"
     transform="translate(-10.436387,-3.510255)">
    <g
       transform="translate(464.28003,317.56951)"
       id="g2321">
      <g
         id="g2319" />
    </g>
  </g>
  <g
     fill="#000000"
     fill-opacity="1"
     id="g2385"
     transform="translate(-10.436387,-3.510255)">
    <g
       transform="translate(571.4597,317.56951)"
       id="g2383">
      <g
         id="g2381" />
    </g>
  </g>
  <g
     fill="#000000"
     fill-opacity="1"
     id="g2415"
     transform="translate(-10.436387,-3.510255)">
    <g
       transform="translate(630.45222,317.56951)"
       id="g2413">
      <g
         id="g2411" />
    </g>
  </g>
  <g
     fill="#000000"
     fill-opacity="1"
     id="g2445"
     transform="translate(-10.436387,-3.510255)">
    <g
       transform="translate(674.55445,317.56951)"
       id="g2443">
      <g
         id="g2441" />
    </g>
  </g>
  <g
     fill="#000000"
     fill-opacity="1"
     id="g2523"
     transform="translate(-10.436387,-3.510255)">
    <g
       transform="translate(123.17901,353.55217)"
       id="g2521">
      <g
         id="g2519" />
    </g>
  </g>
  <g
     fill="#000000"
     fill-opacity="1"
     id="g2553"
     transform="translate(-10.436387,-3.510255)">
    <g
       transform="translate(167.2812,353.55217)"
       id="g2551">
      <g
         id="g2549" />
    </g>
  </g>
  <g
     fill="#000000"
     fill-opacity="1"
     id="g2663"
     transform="translate(-10.436387,-3.510255)">
    <g
       transform="translate(391.09765,353.55217)"
       id="g2661">
      <g
         id="g2659" />
    </g>
  </g>
  <g
     fill="#000000"
     fill-opacity="1"
     id="g2701"
     transform="translate(-10.436387,-3.510255)">
    <g
       transform="translate(457.29433,353.55217)"
       id="g2699">
      <g
         id="g2697" />
    </g>
  </g>
  <g
     fill="#000000"
     fill-opacity="1"
     id="g2755"
     transform="translate(-10.436387,-3.510255)">
    <g
       transform="translate(552.80424,353.55217)"
       id="g2753">
      <g
         id="g2751" />
    </g>
  </g>
  <g
     fill="#000000"
     fill-opacity="1"
     id="g2785"
     transform="translate(-10.436387,-3.510255)">
    <g
       transform="translate(605.48632,353.55217)"
       id="g2783">
      <g
         id="g2781" />
    </g>
  </g>
  <g
     fill="#000000"
     fill-opacity="1"
     id="g2943"
     transform="translate(-10.436387,-3.510255)">
    <g
       transform="translate(317.00987,389.53484)"
       id="g2941">
      <g
         id="g2939" />
    </g>
  </g>
  <g
     fill="#000000"
     fill-opacity="1"
     id="g3021"
     transform="translate(-10.436387,-3.510255)">
    <g
       transform="translate(447.3095,389.53484)"
       id="g3019">
      <g
         id="g3017" />
    </g>
  </g>
  <g
     fill="#000000"
     fill-opacity="1"
     id="g3043"
     transform="translate(-10.436387,-3.510255)">
    <g
       transform="translate(488.38036,389.53484)"
       id="g3041">
      <g
         id="g3039" />
    </g>
  </g>
  <g
     fill="#000000"
     fill-opacity="1"
     id="g3177"
     transform="translate(-10.436387,-3.510255)">
    <g
       transform="translate(734.3151,389.53484)"
       id="g3175">
      <g
         id="g3173" />
    </g>
  </g>
  <g
     fill="#000000"
     fill-opacity="1"
     id="g3201"
     transform="translate(-10.436387,-3.510255)">
    <g
       transform="translate(128.15708,461.50018)"
       id="g3199">
      <g
         id="g3197" />
    </g>
  </g>
  <g
     fill="#000000"
     fill-opacity="1"
     id="g3231"
     transform="translate(-10.436387,-3.510255)">
    <g
       transform="translate(180.91233,461.50018)"
       id="g3229">
      <g
         id="g3227" />
    </g>
  </g>
  <g
     fill="#000000"
     fill-opacity="1"
     id="g3253"
     transform="translate(-10.436387,-3.510255)">
    <g
       transform="translate(222.10029,461.50018)"
       id="g3251">
      <g
         id="g3249" />
    </g>
  </g>
  <g
     fill="#000000"
     fill-opacity="1"
     id="g3275"
     transform="translate(-10.436387,-3.510255)">
    <g
       transform="translate(252.35114,461.50018)"
       id="g3273">
      <g
         id="g3271" />
    </g>
  </g>
  <g
     fill="#000000"
     fill-opacity="1"
     id="g3401"
     transform="translate(-10.436387,-3.510255)">
    <g
       transform="translate(462.01061,461.50018)"
       id="g3399">
      <g
         id="g3397" />
    </g>
  </g>
  <g
     fill="#000000"
     fill-opacity="1"
     id="g3479"
     transform="translate(-10.436387,-3.510255)">
    <g
       transform="translate(588.62059,461.50018)"
       id="g3477">
      <g
         id="g3475" />
    </g>
  </g>
  <g
     fill="#000000"
     fill-opacity="1"
     id="g3509"
     transform="translate(-10.436387,-3.510255)">
    <g
       transform="translate(635.72431,461.50018)"
       id="g3507">
      <g
         id="g3505" />
    </g>
  </g>
  <g
     fill="#000000"
     fill-opacity="1"
     id="g3627"
     transform="translate(-10.436387,-3.510255)">
    <g
       transform="translate(133.88245,497.48284)"
       id="g3625">
      <g
         id="g3623" />
    </g>
  </g>
  <g
     fill="#000000"
     fill-opacity="1"
     id="g3689"
     transform="translate(-10.436387,-3.510255)">
    <g
       transform="translate(259.55412,497.48284)"
       id="g3687">
      <g
         id="g3685" />
    </g>
  </g>
  <g
     fill="#000000"
     fill-opacity="1"
     id="g3711"
     transform="translate(-10.436387,-3.510255)">
    <g
       transform="translate(300.7421,497.48284)"
       id="g3709">
      <g
         id="g3707" />
    </g>
  </g>
  <g
     fill="#000000"
     fill-opacity="1"
     id="g3773"
     transform="translate(-10.436387,-3.510255)">
    <g
       transform="translate(419.59098,497.48284)"
       id="g3771">
      <g
         id="g3769" />
    </g>
  </g>
  <g
     fill="#000000"
     fill-opacity="1"
     id="g3795"
     transform="translate(-10.436387,-3.510255)">
    <g
       transform="translate(452.98976,497.48284)"
       id="g3793">
      <g
         id="g3791" />
    </g>
  </g>
  <g
     fill="#000000"
     fill-opacity="1"
     id="g3817"
     transform="translate(-10.436387,-3.510255)">
    <g
       transform="translate(494.17776,497.48284)"
       id="g3815">
      <g
         id="g3813" />
    </g>
  </g>
  <g
     fill="#000000"
     fill-opacity="1"
     id="g3887"
     transform="translate(-10.436387,-3.510255)">
    <g
       transform="translate(615.34057,497.48284)"
       id="g3885">
      <g
         id="g3883" />
    </g>
  </g>
  <g
     fill="#000000"
     fill-opacity="1"
     id="g3917"
     transform="translate(-10.436387,-3.510255)">
    <g
       transform="translate(659.4428,497.48284)"
       id="g3915">
      <g
         id="g3913" />
    </g>
  </g>
  <g
     fill="#000000"
     fill-opacity="1"
     id="g4123"
     transform="translate(-10.436387,-3.510255)">
    <g
       transform="translate(339.10312,533.46551)"
       id="g4121">
      <g
         id="g4119" />
    </g>
  </g>
  <g
     mask="url(#a2639f30de)"
     id="g4133"
     transform="matrix(1,0,0,0.91858577,-10.436387,0.765901)">
    <g
       transform="translate(873,52)"
       id="g4131">
      <g
         clip-path="url(#1b2ffaf12b)"
         id="g4129">
        <g
           clip-path="url(#dc415d14fe)"
           id="g4127">
          <path
             fill="#0c72ab"
             d="M 0.351562,0.523438 H 773.60547 V 743.79687 H 0.351562 Z m 0,0"
             fill-opacity="1"
             fill-rule="nonzero"
             id="path4125" />
        </g>
      </g>
    </g>
  </g>
  <path
     fill="#ffffff"
     d="m 925.70424,235.08741 c 0,0.34375 -0.0312,0.6875 -0.10156,1.02343 -0.0664,0.33985 -0.16406,0.66797 -0.29687,0.98438 -0.13282,0.32031 -0.29297,0.62109 -0.48438,0.90625 -0.1914,0.28906 -0.41015,0.55469 -0.65234,0.79687 -0.2461,0.24219 -0.51172,0.46094 -0.79688,0.65235 -0.28515,0.1914 -0.58984,0.35156 -0.90625,0.48437 -0.32031,0.13281 -0.64843,0.23047 -0.98437,0.30078 -0.33985,0.0664 -0.67969,0.0977 -1.02344,0.0977 -0.34375,0 -0.6875,-0.0312 -1.02344,-0.0977 -0.33984,-0.0703 -0.66797,-0.16797 -0.98437,-0.30078 -0.32031,-0.13281 -0.6211,-0.29297 -0.91016,-0.48437 -0.28515,-0.19141 -0.55078,-0.41016 -0.79297,-0.65235 -0.24218,-0.24218 -0.46093,-0.50781 -0.65234,-0.79687 -0.19141,-0.28516 -0.35547,-0.58594 -0.48438,-0.90625 -0.13281,-0.31641 -0.23437,-0.64453 -0.30078,-0.98438 -0.0664,-0.33593 -0.10156,-0.67968 -0.10156,-1.02343 0,-0.34375 0.0352,-0.6836 0.10156,-1.02344 0.0664,-0.33985 0.16797,-0.66797 0.30078,-0.98438 0.12891,-0.32031 0.29297,-0.62109 0.48438,-0.90625 0.19141,-0.28906 0.41016,-0.55078 0.65234,-0.79687 0.24219,-0.24219 0.50782,-0.46094 0.79297,-0.65235 0.28906,-0.1914 0.58985,-0.35156 0.91016,-0.48437 0.3164,-0.13281 0.64453,-0.23047 0.98437,-0.29688 0.33594,-0.0703 0.67969,-0.10156 1.02344,-0.10156 0.34375,0 0.68359,0.0312 1.02344,0.10156 0.33594,0.0664 0.66406,0.16407 0.98437,0.29688 0.31641,0.13281 0.6211,0.29297 0.90625,0.48437 0.28516,0.19141 0.55078,0.41016 0.79688,0.65235 0.24219,0.24609 0.46094,0.50781 0.65234,0.79687 0.19141,0.28516 0.35156,0.58594 0.48438,0.90625 0.13281,0.31641 0.23047,0.64453 0.29687,0.98438 0.0703,0.33984 0.10156,0.67969 0.10156,1.02344 z m 0,0"
     fill-opacity="1"
     fill-rule="nonzero"
     id="path4135" />
  <g
     fill="#ffffff"
     fill-opacity="1"
     id="g4197"
     transform="translate(-10.436387,-3.510255)">
    <g
       transform="translate(1066.6884,247.59287)"
       id="g4195">
      <g
         id="g4193" />
    </g>
  </g>
  <g
     fill="#ffffff"
     fill-opacity="1"
     id="g4227"
     transform="translate(-10.436387,-3.510255)">
    <g
       transform="translate(1128.085,247.59287)"
       id="g4225">
      <g
         id="g4223" />
    </g>
  </g>
  <g
     fill="#ffffff"
     fill-opacity="1"
     id="g4289"
     transform="translate(-10.436387,-3.510255)">
    <g
       transform="translate(1244.7313,247.59287)"
       id="g4287">
      <g
         id="g4285" />
    </g>
  </g>
  <g
     fill="#ffffff"
     fill-opacity="1"
     id="g4311"
     transform="translate(-10.436387,-3.510255)">
    <g
       transform="translate(1283.4866,247.59287)"
       id="g4309">
      <g
         id="g4307" />
    </g>
  </g>
  <g
     fill="#ffffff"
     fill-opacity="1"
     id="g4397"
     transform="translate(-10.436387,-3.510255)">
    <g
       transform="translate(1443.7618,247.59287)"
       id="g4395">
      <g
         id="g4393" />
    </g>
  </g>
  <g
     fill="#ffffff"
     fill-opacity="1"
     id="g4419"
     transform="translate(-10.436387,-3.510255)">
    <g
       transform="translate(1478.946,247.59287)"
       id="g4417">
      <g
         id="g4415" />
    </g>
  </g>
  <g
     fill="#ffffff"
     fill-opacity="1"
     id="g4521"
     transform="translate(-10.436387,-3.510255)">
    <g
       transform="translate(1104.3752,288.82301)"
       id="g4519">
      <g
         id="g4517" />
    </g>
  </g>
  <g
     fill="#ffffff"
     fill-opacity="1"
     id="g4607"
     transform="translate(-10.436387,-3.510255)">
    <g
       transform="translate(1270.5926,288.82301)"
       id="g4605">
      <g
         id="g4603" />
    </g>
  </g>
  <g
     fill="#ffffff"
     fill-opacity="1"
     id="g4685"
     transform="translate(-10.436387,-3.510255)">
    <g
       transform="translate(1443.6886,288.82301)"
       id="g4683">
      <g
         id="g4681" />
    </g>
  </g>
  <g
     fill="#ffffff"
     fill-opacity="1"
     id="g4723"
     transform="translate(-10.436387,-3.510255)">
    <g
       transform="translate(1514.2472,288.82301)"
       id="g4721">
      <g
         id="g4719" />
    </g>
  </g>
  <g
     fill="#ffffff"
     fill-opacity="1"
     id="g4801"
     transform="translate(-10.436387,-3.510255)">
    <g
       transform="translate(1030.6554,330.05315)"
       id="g4799">
      <g
         id="g4797" />
    </g>
  </g>
  <path
     fill="#ffffff"
     d="m 925.70424,386.50928 c 0,0.34375 -0.0312,0.68359 -0.10156,1.02344 -0.0664,0.33594 -0.16406,0.66406 -0.29687,0.98437 -0.13282,0.31641 -0.29297,0.6211 -0.48438,0.90625 -0.1914,0.28516 -0.41015,0.55078 -0.65234,0.79688 -0.2461,0.24219 -0.51172,0.46094 -0.79688,0.65234 -0.28515,0.19141 -0.58984,0.35156 -0.90625,0.48438 -0.32031,0.13281 -0.64843,0.23047 -0.98437,0.29687 -0.33985,0.0664 -0.67969,0.10156 -1.02344,0.10156 -0.34375,0 -0.6875,-0.0351 -1.02344,-0.10156 -0.33984,-0.0664 -0.66797,-0.16406 -0.98437,-0.29687 -0.32031,-0.13282 -0.6211,-0.29297 -0.91016,-0.48438 -0.28515,-0.1914 -0.55078,-0.41015 -0.79297,-0.65234 -0.24218,-0.2461 -0.46093,-0.51172 -0.65234,-0.79688 -0.19141,-0.28515 -0.35547,-0.58984 -0.48438,-0.90625 -0.13281,-0.32031 -0.23437,-0.64843 -0.30078,-0.98437 -0.0664,-0.33985 -0.10156,-0.67969 -0.10156,-1.02344 0,-0.34375 0.0352,-0.6875 0.10156,-1.02344 0.0664,-0.33984 0.16797,-0.66797 0.30078,-0.98437 0.12891,-0.32031 0.29297,-0.6211 0.48438,-0.91016 0.19141,-0.28515 0.41016,-0.55078 0.65234,-0.79297 0.24219,-0.24609 0.50782,-0.46093 0.79297,-0.65234 0.28906,-0.19141 0.58985,-0.35547 0.91016,-0.48438 0.3164,-0.13281 0.64453,-0.23437 0.98437,-0.30078 0.33594,-0.0664 0.67969,-0.10156 1.02344,-0.10156 0.34375,0 0.68359,0.0352 1.02344,0.10156 0.33594,0.0664 0.66406,0.16797 0.98437,0.30078 0.31641,0.12891 0.6211,0.29297 0.90625,0.48438 0.28516,0.19141 0.55078,0.40625 0.79688,0.65234 0.24219,0.24219 0.46094,0.50782 0.65234,0.79297 0.19141,0.28906 0.35156,0.58985 0.48438,0.91016 0.13281,0.3164 0.23047,0.64453 0.29687,0.98437 0.0703,0.33594 0.10156,0.67969 0.10156,1.02344 z m 0,0"
     fill-opacity="1"
     fill-rule="nonzero"
     id="path4867" />
  <g
     fill="#ffffff"
     fill-opacity="1"
     id="g4961"
     transform="translate(-10.436387,-3.510255)">
    <g
       transform="translate(1107.5073,412.51343)"
       id="g4959">
      <g
         id="g4957" />
    </g>
  </g>
  <g
     fill="#ffffff"
     fill-opacity="1"
     id="g4983"
     transform="translate(-10.436387,-3.510255)">
    <g
       transform="translate(1139.5448,412.51343)"
       id="g4981">
      <g
         id="g4979" />
    </g>
  </g>
  <g
     fill="#ffffff"
     fill-opacity="1"
     id="g5037"
     transform="translate(-10.436387,-3.510255)">
    <g
       transform="translate(1248.8439,412.51343)"
       id="g5035">
      <g
         id="g5033" />
    </g>
  </g>
  <g
     fill="#ffffff"
     fill-opacity="1"
     id="g5075"
     transform="translate(-10.436387,-3.510255)">
    <g
       transform="translate(1319.4025,412.51343)"
       id="g5073">
      <g
         id="g5071" />
    </g>
  </g>
  <g
     fill="#ffffff"
     fill-opacity="1"
     id="g5097"
     transform="translate(-10.436387,-3.510255)">
    <g
       transform="translate(1351.5863,412.51343)"
       id="g5095">
      <g
         id="g5093" />
    </g>
  </g>
  <g
     fill="#ffffff"
     fill-opacity="1"
     id="g5295"
     transform="translate(-10.436387,-3.510255)">
    <g
       transform="translate(1102.1945,453.74357)"
       id="g5293">
      <g
         id="g5291" />
    </g>
  </g>
  <g
     fill="#ffffff"
     fill-opacity="1"
     id="g5317"
     transform="translate(-10.436387,-3.510255)">
    <g
       transform="translate(1146.4821,453.74357)"
       id="g5315">
      <g
         id="g5313" />
    </g>
  </g>
  <g
     fill="#ffffff"
     fill-opacity="1"
     id="g5339"
     transform="translate(-10.436387,-3.510255)">
    <g
       transform="translate(1178.5195,453.74357)"
       id="g5337">
      <g
         id="g5335" />
    </g>
  </g>
  <g
     fill="#ffffff"
     fill-opacity="1"
     id="g5401"
     transform="translate(-10.436387,-3.510255)">
    <g
       transform="translate(1313.2702,453.74357)"
       id="g5399">
      <g
         id="g5397" />
    </g>
  </g>
  <g
     fill="#ffffff"
     fill-opacity="1"
     id="g5431"
     transform="translate(-10.436387,-3.510255)">
    <g
       transform="translate(1370.5395,453.74357)"
       id="g5429">
      <g
         id="g5427" />
    </g>
  </g>
  <g
     fill="#ffffff"
     fill-opacity="1"
     id="g5461"
     transform="translate(-10.436387,-3.510255)">
    <g
       transform="translate(1421.9672,453.74357)"
       id="g5459">
      <g
         id="g5457" />
    </g>
  </g>
  <path
     fill="#ffffff"
     d="m 925.70424,501.19678 c 0,0.34766 -0.0312,0.6875 -0.10156,1.02734 -0.0664,0.33594 -0.16406,0.66407 -0.29687,0.98438 -0.13282,0.31641 -0.29297,0.61719 -0.48438,0.90625 -0.1914,0.28516 -0.41015,0.55078 -0.65234,0.79297 -0.2461,0.24609 -0.51172,0.46094 -0.79688,0.65234 -0.28515,0.19141 -0.58984,0.35547 -0.90625,0.48828 -0.32031,0.12891 -0.64843,0.23047 -0.98437,0.29688 -0.33985,0.0664 -0.67969,0.10156 -1.02344,0.10156 -0.34375,0 -0.6875,-0.0352 -1.02344,-0.10156 -0.33984,-0.0664 -0.66797,-0.16797 -0.98437,-0.29688 -0.32031,-0.13281 -0.6211,-0.29687 -0.91016,-0.48828 -0.28515,-0.1914 -0.55078,-0.40625 -0.79297,-0.65234 -0.24218,-0.24219 -0.46093,-0.50781 -0.65234,-0.79297 -0.19141,-0.28906 -0.35547,-0.58984 -0.48438,-0.90625 -0.13281,-0.32031 -0.23437,-0.64844 -0.30078,-0.98438 -0.0664,-0.33984 -0.10156,-0.67968 -0.10156,-1.02734 0,-0.34375 0.0352,-0.68359 0.10156,-1.02344 0.0664,-0.33593 0.16797,-0.66406 0.30078,-0.98437 0.12891,-0.31641 0.29297,-0.6211 0.48438,-0.90625 0.19141,-0.28516 0.41016,-0.55078 0.65234,-0.79297 0.24219,-0.24609 0.50782,-0.46094 0.79297,-0.65234 0.28906,-0.19141 0.58985,-0.35547 0.91016,-0.48829 0.3164,-0.1289 0.64453,-0.23046 0.98437,-0.29687 0.33594,-0.0664 0.67969,-0.10156 1.02344,-0.10156 0.34375,0 0.68359,0.0351 1.02344,0.10156 0.33594,0.0664 0.66406,0.16797 0.98437,0.29687 0.31641,0.13282 0.6211,0.29688 0.90625,0.48829 0.28516,0.1914 0.55078,0.40625 0.79688,0.65234 0.24219,0.24219 0.46094,0.50781 0.65234,0.79297 0.19141,0.28515 0.35156,0.58984 0.48438,0.90625 0.13281,0.32031 0.23047,0.64844 0.29687,0.98437 0.0703,0.33985 0.10156,0.67969 0.10156,1.02344 z m 0,0"
     fill-opacity="1"
     fill-rule="nonzero"
     id="path5463" />
  <g
     fill="#ffffff"
     fill-opacity="1"
     id="g5533"
     transform="translate(-10.436387,-3.510255)">
    <g
       transform="translate(1083.0803,536.20385)"
       id="g5531">
      <g
         id="g5529" />
    </g>
  </g>
  <g
     fill="#ffffff"
     fill-opacity="1"
     id="g5563"
     transform="translate(-10.436387,-3.510255)">
    <g
       transform="translate(1140.3497,536.20385)"
       id="g5561">
      <g
         id="g5559" />
    </g>
  </g>
  <g
     fill="#ffffff"
     fill-opacity="1"
     id="g5665"
     transform="translate(-10.436387,-3.510255)">
    <g
       transform="translate(1311.3822,536.20385)"
       id="g5663">
      <g
         id="g5661" />
    </g>
  </g>
  <g
     fill="#ffffff"
     fill-opacity="1"
     id="g5687"
     transform="translate(-10.436387,-3.510255)">
    <g
       transform="translate(1354.3525,536.20385)"
       id="g5685">
      <g
         id="g5683" />
    </g>
  </g>
  <g
     fill="#ffffff"
     fill-opacity="1"
     id="g5741"
     transform="translate(-10.436387,-3.510255)">
    <g
       transform="translate(1463.6517,536.20385)"
       id="g5739">
      <g
         id="g5737" />
    </g>
  </g>
  <g
     fill="#ffffff"
     fill-opacity="1"
     id="g5779"
     transform="translate(-10.436387,-3.510255)">
    <g
       transform="translate(1539.1718,536.20385)"
       id="g5777">
      <g
         id="g5775" />
    </g>
  </g>
  <g
     fill="#ffffff"
     fill-opacity="1"
     id="g5833"
     transform="translate(-10.436387,-3.510255)">
    <g
       transform="translate(1018.6834,577.43399)"
       id="g5831">
      <g
         id="g5829" />
    </g>
  </g>
  <g
     fill="#ffffff"
     fill-opacity="1"
     id="g5855"
     transform="translate(-10.436387,-3.510255)">
    <g
       transform="translate(1061.6537,577.43399)"
       id="g5853">
      <g
         id="g5851" />
    </g>
  </g>
  <g
     fill="#ffffff"
     fill-opacity="1"
     id="g5885"
     transform="translate(-10.436387,-3.510255)">
    <g
       transform="translate(1106.2779,577.43399)"
       id="g5883">
      <g
         id="g5881" />
    </g>
  </g>
  <g
     fill="#ffffff"
     fill-opacity="1"
     id="g5955"
     transform="translate(-10.436387,-3.510255)">
    <g
       transform="translate(1231.9544,577.43399)"
       id="g5953">
      <g
         id="g5951" />
    </g>
  </g>
  <g
     fill="#ffffff"
     fill-opacity="1"
     id="g6009"
     transform="translate(-10.436387,-3.510255)">
    <g
       transform="translate(1336.6726,577.43399)"
       id="g6007">
      <g
         id="g6005" />
    </g>
  </g>
  <g
     fill="#ffffff"
     fill-opacity="1"
     id="g6055"
     transform="translate(-10.436387,-3.510255)">
    <g
       transform="translate(1388.117,577.43399)"
       id="g6053">
      <g
         id="g6051" />
    </g>
  </g>
  <g
     fill="#ffffff"
     fill-opacity="1"
     id="g6069"
     transform="translate(-10.436387,-3.510255)">
    <g
       transform="translate(1412.5732,577.43399)"
       id="g6067">
      <g
         id="g6065" />
    </g>
  </g>
  <g
     fill="#ffffff"
     fill-opacity="1"
     id="g6091"
     transform="translate(-10.436387,-3.510255)">
    <g
       transform="translate(1444.6107,577.43399)"
       id="g6089">
      <g
         id="g6087" />
    </g>
  </g>
  <g
     fill="#ffffff"
     fill-opacity="1"
     id="g6145"
     transform="translate(-10.436387,-3.510255)">
    <g
       transform="translate(1538.1179,577.43399)"
       id="g6143">
      <g
         id="g6141" />
    </g>
  </g>
  <g
     fill="#ffffff"
     fill-opacity="1"
     id="g6215"
     transform="translate(-10.436387,-3.510255)">
    <g
       transform="translate(1043.0957,618.66413)"
       id="g6213">
      <g
         id="g6211" />
    </g>
  </g>
  <g
     fill="#ffffff"
     fill-opacity="1"
     id="g6253"
     transform="translate(-10.436387,-3.510255)">
    <g
       transform="translate(1113.6543,618.66413)"
       id="g6251">
      <g
         id="g6249" />
    </g>
  </g>
  <g
     fill="#ffffff"
     fill-opacity="1"
     id="g6283"
     transform="translate(-10.436387,-3.510255)">
    <g
       transform="translate(1170.9236,618.66413)"
       id="g6281">
      <g
         id="g6279" />
    </g>
  </g>
  <g
     fill="#ffffff"
     fill-opacity="1"
     id="g6361"
     transform="translate(-10.436387,-3.510255)">
    <g
       transform="translate(1320.9651,618.66413)"
       id="g6359">
      <g
         id="g6357" />
    </g>
  </g>
  <path
     fill="#ffffff"
     d="m 925.70424,648.11866 c 0,0.34375 -0.0312,0.6875 -0.10156,1.02343 -0.0664,0.33985 -0.16406,0.66797 -0.29687,0.98438 -0.13282,0.32031 -0.29297,0.62109 -0.48438,0.90625 -0.1914,0.28906 -0.41015,0.55469 -0.65234,0.79687 -0.2461,0.24219 -0.51172,0.46094 -0.79688,0.65235 -0.28515,0.1914 -0.58984,0.35156 -0.90625,0.48437 -0.32031,0.13281 -0.64843,0.23047 -0.98437,0.30078 -0.33985,0.0664 -0.67969,0.0977 -1.02344,0.0977 -0.34375,0 -0.6875,-0.0312 -1.02344,-0.0977 -0.33984,-0.0703 -0.66797,-0.16797 -0.98437,-0.30078 -0.32031,-0.13281 -0.6211,-0.29297 -0.91016,-0.48437 -0.28515,-0.19141 -0.55078,-0.41016 -0.79297,-0.65235 -0.24218,-0.24218 -0.46093,-0.50781 -0.65234,-0.79687 -0.19141,-0.28516 -0.35547,-0.58594 -0.48438,-0.90625 -0.13281,-0.31641 -0.23437,-0.64453 -0.30078,-0.98438 -0.0664,-0.33593 -0.10156,-0.67968 -0.10156,-1.02343 0,-0.34375 0.0352,-0.6836 0.10156,-1.02344 0.0664,-0.33594 0.16797,-0.66406 0.30078,-0.98438 0.12891,-0.3164 0.29297,-0.62109 0.48438,-0.90625 0.19141,-0.28906 0.41016,-0.55078 0.65234,-0.79687 0.24219,-0.24219 0.50782,-0.46094 0.79297,-0.65235 0.28906,-0.1914 0.58985,-0.35156 0.91016,-0.48437 0.3164,-0.13281 0.64453,-0.23047 0.98437,-0.29688 0.33594,-0.0703 0.67969,-0.10156 1.02344,-0.10156 0.34375,0 0.68359,0.0312 1.02344,0.10156 0.33594,0.0664 0.66406,0.16407 0.98437,0.29688 0.31641,0.13281 0.6211,0.29297 0.90625,0.48437 0.28516,0.19141 0.55078,0.41016 0.79688,0.65235 0.24219,0.24609 0.46094,0.50781 0.65234,0.79687 0.19141,0.28516 0.35156,0.58985 0.48438,0.90625 0.13281,0.32032 0.23047,0.64844 0.29687,0.98438 0.0703,0.33984 0.10156,0.67969 0.10156,1.02344 z m 0,0"
     fill-opacity="1"
     fill-rule="nonzero"
     id="path6363" />
  <g
     fill="#ffffff"
     fill-opacity="1"
     id="g6433"
     transform="translate(-10.436387,-3.510255)">
    <g
       transform="translate(1053.3699,701.12441)"
       id="g6431">
      <g
         id="g6429" />
    </g>
  </g>
  <g
     fill="#ffffff"
     fill-opacity="1"
     id="g6463"
     transform="translate(-10.436387,-3.510255)">
    <g
       transform="translate(1110.6393,701.12441)"
       id="g6461">
      <g
         id="g6459" />
    </g>
  </g>
  <g
     fill="#ffffff"
     fill-opacity="1"
     id="g6541"
     transform="translate(-10.436387,-3.510255)">
    <g
       transform="translate(1247.234,701.12441)"
       id="g6539">
      <g
         id="g6537" />
    </g>
  </g>
  <g
     fill="#ffffff"
     fill-opacity="1"
     id="g6563"
     transform="translate(-10.436387,-3.510255)">
    <g
       transform="translate(1290.2043,701.12441)"
       id="g6561">
      <g
         id="g6559" />
    </g>
  </g>
  <g
     fill="#ffffff"
     fill-opacity="1"
     id="g6665"
     transform="translate(-10.436387,-3.510255)">
    <g
       transform="translate(1476.8091,701.12441)"
       id="g6663">
      <g
         id="g6661" />
    </g>
  </g>
  <g
     fill="#ffffff"
     fill-opacity="1"
     id="g6727"
     transform="translate(-10.436387,-3.510255)">
    <g
       transform="translate(979.26954,742.35455)"
       id="g6725">
      <g
         id="g6723" />
    </g>
  </g>
  <g
     fill="#ffffff"
     fill-opacity="1"
     id="g6837"
     transform="translate(-10.436387,-3.510255)">
    <g
       transform="translate(1187.5528,742.35455)"
       id="g6835">
      <g
         id="g6833" />
    </g>
  </g>
  <g
     fill="#ffffff"
     fill-opacity="1"
     id="g6955"
     transform="translate(-10.436387,-3.510255)">
    <g
       transform="translate(1263.1193,110.75181)"
       id="g6953">
      <g
         id="g6951" />
    </g>
  </g>
  <g
     fill="#ffffff"
     fill-opacity="1"
     id="g6985"
     transform="translate(-10.436387,-3.510255)">
    <g
       transform="translate(1333.3951,110.75181)"
       id="g6983">
      <g
         id="g6981" />
    </g>
  </g>
  <g
     id="g14467"
     transform="translate(17.265625,25.956268)">
    <path
       fill="#000000"
       d="m -6.769532,254.46094 c 0,0.34375 -0.03125,0.6875 -0.101562,1.02344 -0.06641,0.33984 -0.164062,0.66796 -0.296875,0.98437 -0.132813,0.32031 -0.292969,0.62109 -0.484375,0.90625 -0.191406,0.28906 -0.410156,0.55469 -0.652344,0.79688 -0.246094,0.24218 -0.507812,0.46093 -0.796875,0.65234 -0.285156,0.19141 -0.589843,0.35156 -0.90625,0.48437 -0.320312,0.13282 -0.648437,0.23047 -0.984375,0.30079 -0.339844,0.0664 -0.679687,0.0976 -1.023437,0.0976 -0.34375,0 -0.6875,-0.0312 -1.023438,-0.0976 -0.339843,-0.0703 -0.667969,-0.16797 -0.984375,-0.30079 -0.320312,-0.13281 -0.621094,-0.29296 -0.90625,-0.48437 -0.289062,-0.19141 -0.554687,-0.41016 -0.796875,-0.65234 -0.242187,-0.24219 -0.460937,-0.50782 -0.652343,-0.79688 -0.191407,-0.28516 -0.351563,-0.58594 -0.484376,-0.90625 -0.132812,-0.31641 -0.230468,-0.64453 -0.300781,-0.98437 -0.06641,-0.33594 -0.101562,-0.67969 -0.101562,-1.02344 0,-0.34375 0.03516,-0.6836 0.101562,-1.02344 0.07031,-0.33594 0.167969,-0.66406 0.300781,-0.98437 0.132813,-0.31641 0.292969,-0.6211 0.484376,-0.90625 0.191406,-0.28907 0.410156,-0.55079 0.652343,-0.79688 0.242188,-0.24219 0.507813,-0.46094 0.796875,-0.65234 0.285156,-0.19141 0.585938,-0.35157 0.90625,-0.48438 0.316406,-0.13281 0.644532,-0.23047 0.984375,-0.29687 0.335938,-0.0703 0.679688,-0.10157 1.023438,-0.10157 0.34375,0 0.683593,0.0312 1.023437,0.10157 0.335938,0.0664 0.664063,0.16406 0.984375,0.29687 0.316407,0.13281 0.621094,0.29297 0.90625,0.48438 0.289063,0.1914 0.550781,0.41015 0.796875,0.65234 0.242188,0.24609 0.460938,0.50781 0.652344,0.79688 0.191406,0.28515 0.351562,0.58984 0.484375,0.90625 0.132813,0.32031 0.230469,0.64843 0.296875,0.98437 0.07031,0.33984 0.101562,0.67969 0.101562,1.02344 z m 0,0"
       fill-opacity="1"
       fill-rule="nonzero"
       id="path2097" />
    <path
       fill="#000000"
       d="m -6.769532,413.89063 c 0,0.34765 -0.03125,0.6875 -0.101562,1.02343 -0.06641,0.33985 -0.164062,0.66797 -0.296875,0.98438 -0.132813,0.32031 -0.292969,0.62109 -0.484375,0.91015 -0.191406,0.28516 -0.410156,0.55079 -0.652344,0.79297 -0.246094,0.2461 -0.507812,0.46094 -0.796875,0.65235 -0.285156,0.1914 -0.589843,0.35547 -0.90625,0.48437 -0.320312,0.13281 -0.648437,0.23438 -0.984375,0.30078 -0.339844,0.0664 -0.679687,0.10157 -1.023437,0.10157 -0.34375,0 -0.6875,-0.0352 -1.023438,-0.10157 -0.339843,-0.0664 -0.667969,-0.16797 -0.984375,-0.30078 -0.320312,-0.1289 -0.621094,-0.29297 -0.90625,-0.48437 -0.289062,-0.19141 -0.554687,-0.40625 -0.796875,-0.65235 -0.242187,-0.24218 -0.460937,-0.50781 -0.652343,-0.79297 -0.191407,-0.28906 -0.351563,-0.58984 -0.484376,-0.91015 -0.132812,-0.31641 -0.230468,-0.64453 -0.300781,-0.98438 -0.06641,-0.33593 -0.101562,-0.67578 -0.101562,-1.02343 0,-0.34375 0.03516,-0.6836 0.101562,-1.02344 0.07031,-0.33594 0.167969,-0.66406 0.300781,-0.98438 0.132813,-0.3164 0.292969,-0.62109 0.484376,-0.90625 0.191406,-0.28515 0.410156,-0.55078 0.652343,-0.79687 0.242188,-0.24219 0.507813,-0.46094 0.796875,-0.65235 0.285156,-0.1914 0.585938,-0.35156 0.90625,-0.48437 0.316406,-0.13281 0.644532,-0.23047 0.984375,-0.29688 0.335938,-0.0664 0.679688,-0.10156 1.023438,-0.10156 0.34375,0 0.683593,0.0352 1.023437,0.10156 0.335938,0.0664 0.664063,0.16407 0.984375,0.29688 0.316407,0.13281 0.621094,0.29297 0.90625,0.48437 0.289063,0.19141 0.550781,0.41016 0.796875,0.65235 0.242188,0.24609 0.460938,0.51172 0.652344,0.79687 0.191406,0.28516 0.351562,0.58985 0.484375,0.90625 0.132813,0.32032 0.230469,0.64844 0.296875,0.98438 0.07031,0.33984 0.101562,0.67969 0.101562,1.02344 z m 0,0"
       fill-opacity="1"
       fill-rule="nonzero"
       id="path3179" />
    <text
       xml:space="preserve"
       style="font-style:normal;font-variant:normal;font-weight:normal;font-stretch:normal;font-size:32px;line-height:1.25;font-family:'Open Sans';-inkscape-font-specification:'Open Sans';white-space:pre;inline-size:774.122;fill:#000000;fill-opacity:1;stroke:none;stroke-width:0.75"
       x="456.53351"
       y="1175.9998"
       id="text5330"
       transform="translate(-438.63363,-914.30979)"><tspan
         x="456.53351"
         y="1175.9998"
         id="tspan21484">La restructuration cognitive postule que les </tspan><tspan
         x="456.53351"
         y="1215.9998"
         id="tspan21486">penses et les comportements sont guids par nos </tspan><tspan
         x="456.53351"
         y="1255.9998"
         id="tspan21488">reprsentations, sensibles au conditionnement.
</tspan><tspan
         x="456.53351"
         y="1295.9998"
         id="tspan21490">
</tspan><tspan
         x="456.53351"
         y="1335.9998"
         id="tspan21492">Le but de la restructuration cognitive est d'assouplir </tspan><tspan
         x="456.53351"
         y="1375.9998"
         id="tspan21494">les schmas de penses et de modifier les penses </tspan><tspan
         x="456.53351"
         y="1415.9998"
         id="tspan21496">dysfonctionnelles.</tspan></text>
  </g>
  <text
     xml:space="preserve"
     style="font-style:normal;font-variant:normal;font-weight:bold;font-stretch:normal;font-size:36px;line-height:1.25;font-family:'Open Sans';-inkscape-font-specification:'Open Sans Bold';text-align:center;text-anchor:middle;white-space:pre;inline-size:638.491;fill:#ffffff;fill-opacity:1;stroke:none;stroke-width:0.75"
     x="930.28491"
     y="-110.96536"
     id="text37664-3"
     transform="translate(317.48354,220.61328)"><tspan
       x="930.28491"
       y="-110.96536"
       id="tspan21498">Identification des penses<tspan
   y="-110.96536"
   id="tspan21500"> </tspan></tspan><tspan
       x="930.28491"
       y="-65.965363"
       id="tspan21502">dysfonctionnelles</tspan></text>
  <g
     id="g20804"
     transform="translate(25.559707,25.103026)">
    <g
       clip-path="url(#fced2168f2)"
       id="g253"
       transform="matrix(0.9856528,0,0,0.93104412,-43.779102,3.4134)">
      <path
         fill="#4d9290"
         d="M 45.996094,584.94531 H 841.55859 V 970.52344 H 45.996094 Z m 0,0"
         fill-opacity="1"
         fill-rule="nonzero"
         id="path251" />
    </g>
    <g
       id="g70258"
       transform="translate(-22.232622,-33.865227)">
      <g
         clip-path="url(#bb20123573)"
         id="g1811"
         transform="translate(-45.996094,-28.613281)">
        <g
           clip-path="url(#530153d173)"
           id="g1809">
          <g
             clip-path="url(#9c1cb092a3)"
             id="g1807">
            <g
               clip-path="url(#0650f65848)"
               id="g1805">
              <path
                 fill="#ffffff"
                 d="m 777.58594,791.27734 -1.85547,11.0625 -5.1211,-0.85937 1.85547,-11.0625 5.1211,0.85937"
                 fill-opacity="1"
                 fill-rule="nonzero"
                 id="path1803" />
            </g>
          </g>
        </g>
      </g>
      <g
         clip-path="url(#9ff9b25ebc)"
         id="g1821"
         transform="translate(-45.996094,-28.613281)">
        <g
           clip-path="url(#7a26a15668)"
           id="g1819">
          <g
             clip-path="url(#96991b9365)"
             id="g1817">
            <g
               clip-path="url(#425dbfe42a)"
               id="g1815">
              <path
                 stroke-linecap="round"
                 transform="matrix(0.0316138,0.00530383,0.00528972,-0.0315297,692.55158,869.78914)"
                 fill="none"
                 stroke-linejoin="round"
                 d="m 2210.9048,2861.9989 0.015,-350.8568 -161.9901,0.01 -0.015,350.8568 z m 0,0"
                 stroke="#231f1f"
                 stroke-width="60"
                 stroke-opacity="1"
                 stroke-miterlimit="10"
                 id="path1813" />
            </g>
          </g>
        </g>
      </g>
      <g
         clip-path="url(#c64910ec73)"
         id="g1831"
         transform="translate(-45.996094,-28.613281)">
        <g
           clip-path="url(#330413800a)"
           id="g1829">
          <g
             clip-path="url(#961cd406bb)"
             id="g1827">
            <g
               clip-path="url(#65702ed6cc)"
               id="g1825">
              <path
                 fill="#ffffff"
                 d="m 768.37891,791.77344 7.79687,-7.77735 4.82813,9.89844 z m 0,0"
                 fill-opacity="1"
                 fill-rule="nonzero"
                 id="path1823" />
            </g>
          </g>
        </g>
      </g>
      <g
         clip-path="url(#7619279b18)"
         id="g1841"
         transform="translate(-45.996094,-28.613281)">
        <g
           clip-path="url(#1c59db36f8)"
           id="g1839">
          <g
             clip-path="url(#5ba1f66109)"
             id="g1837">
            <g
               clip-path="url(#8485f862a2)"
               id="g1835">
              <path
                 stroke-linecap="round"
                 transform="matrix(0.0316138,0.00530383,0.00528972,-0.0315297,692.55158,869.78914)"
                 fill="none"
                 stroke-linejoin="round"
                 d="m 1930.204,2799.0462 199.7337,280.2655 199.6323,-280.3583 z m 0,0"
                 stroke="#231f1f"
                 stroke-width="60"
                 stroke-opacity="1"
                 stroke-miterlimit="10"
                 id="path1833" />
            </g>
          </g>
        </g>
      </g>
      <g
         clip-path="url(#9becdde5e9)"
         id="g1851"
         transform="translate(-45.996094,-28.613281)">
        <g
           clip-path="url(#d42fe2d003)"
           id="g1849">
          <g
             clip-path="url(#29e343638d)"
             id="g1847">
            <g
               clip-path="url(#3c873d9b6b)"
               id="g1845">
              <path
                 fill="#ffffff"
                 d="m 793.39844,820.71875 -11.08985,-1.85938 0.85938,-5.10546 11.08984,1.86328 -0.85937,5.10156"
                 fill-opacity="1"
                 fill-rule="nonzero"
                 id="path1843" />
            </g>
          </g>
        </g>
      </g>
      <g
         clip-path="url(#3c2ae1e99f)"
         id="g1861"
         transform="translate(-45.996094,-28.613281)">
        <g
           clip-path="url(#201b5511bd)"
           id="g1859">
          <g
             clip-path="url(#800bdff782)"
             id="g1857">
            <g
               clip-path="url(#0a8acaf34a)"
               id="g1855">
              <path
                 stroke-linecap="round"
                 transform="matrix(0.0316138,0.00530383,0.00528972,-0.0315297,692.55158,869.78914)"
                 fill="none"
                 stroke-linejoin="round"
                 d="m 2849.352,2035.63 -350.7849,-0.036 0.087,161.9402 350.805,-0.085 z m 0,0"
                 stroke="#231f1f"
                 stroke-width="60"
                 stroke-opacity="1"
                 stroke-miterlimit="10"
                 id="path1853" />
            </g>
          </g>
        </g>
      </g>
      <g
         clip-path="url(#b54014251a)"
         id="g1871"
         transform="translate(-45.996094,-28.613281)">
        <g
           clip-path="url(#cdc45fac3a)"
           id="g1869">
          <g
             clip-path="url(#ea2f4c7699)"
             id="g1867">
            <g
               clip-path="url(#cc8b6be38b)"
               id="g1865">
              <path
                 fill="#ffffff"
                 d="m 792.89453,811.53516 7.80469,7.78515 -9.91797,4.8086 z m 0,0"
                 fill-opacity="1"
                 fill-rule="nonzero"
                 id="path1863" />
            </g>
          </g>
        </g>
      </g>
      <g
         clip-path="url(#de3a38f8e6)"
         id="g1881"
         transform="translate(-45.996094,-28.613281)">
        <g
           clip-path="url(#66dbf5a56b)"
           id="g1879">
          <g
             clip-path="url(#0884db7f97)"
             id="g1877">
            <g
               clip-path="url(#bf28c56180)"
               id="g1875">
              <path
                 stroke-linecap="round"
                 transform="matrix(0.0316138,0.00530383,0.00528972,-0.0315297,692.55158,869.78914)"
                 fill="none"
                 stroke-linejoin="round"
                 d="m 2786.4473,2316.3162 280.3008,-199.7635 -280.3142,-199.6634 z m 0,0"
                 stroke="#231f1f"
                 stroke-width="60"
                 stroke-opacity="1"
                 stroke-miterlimit="10"
                 id="path1873" />
            </g>
          </g>
        </g>
      </g>
      <g
         clip-path="url(#3a2a2405c5)"
         id="g1891"
         transform="translate(-45.996094,-28.613281)">
        <g
           clip-path="url(#acef58f5fc)"
           id="g1889">
          <g
             clip-path="url(#70e9a9d58d)"
             id="g1887">
            <g
               clip-path="url(#6593dbd6e6)"
               id="g1885">
              <path
                 fill="#ffffff"
                 d="m 747.66406,813.04687 11.08594,1.85938 0.85547,-5.10547 -11.08594,-1.85937 -0.85547,5.10546"
                 fill-opacity="1"
                 fill-rule="nonzero"
                 id="path1883" />
            </g>
          </g>
        </g>
      </g>
      <g
         clip-path="url(#f2b6f81851)"
         id="g1901"
         transform="translate(-45.996094,-28.613281)">
        <g
           clip-path="url(#ec00604472)"
           id="g1899">
          <g
             clip-path="url(#8cc981f092)"
             id="g1897">
            <g
               clip-path="url(#39a10ed85e)"
               id="g1895">
              <path
                 stroke-linecap="round"
                 transform="matrix(0.0316138,0.00530383,0.00528972,-0.0315297,692.55158,869.78914)"
                 fill="none"
                 stroke-linejoin="round"
                 d="m 1402.6998,2035.6007 350.6647,0.016 0.087,161.9402 -350.7848,-0.036 z m 0,0"
                 stroke="#231f1f"
                 stroke-width="60"
                 stroke-opacity="1"
                 stroke-miterlimit="10"
                 id="path1893" />
            </g>
          </g>
        </g>
      </g>
      <g
         clip-path="url(#81557caf11)"
         id="g1911"
         transform="translate(-45.996094,-28.613281)">
        <g
           clip-path="url(#13baa08ca2)"
           id="g1909">
          <g
             clip-path="url(#e44b6efbb6)"
             id="g1907">
            <g
               clip-path="url(#261b6cb653)"
               id="g1905">
              <path
                 fill="#ffffff"
                 d="m 751.13672,804.53125 -9.91797,4.80859 7.80469,7.78516 z m 0,0"
                 fill-opacity="1"
                 fill-rule="nonzero"
                 id="path1903" />
            </g>
          </g>
        </g>
      </g>
      <g
         clip-path="url(#18e22bf74b)"
         id="g1921"
         transform="translate(-45.996094,-28.613281)">
        <g
           clip-path="url(#af32ea83bc)"
           id="g1919">
          <g
             clip-path="url(#68b408b03b)"
             id="g1917">
            <g
               clip-path="url(#37a41d130a)"
               id="g1915">
              <path
                 stroke-linecap="round"
                 transform="matrix(0.0316138,0.00530383,0.00528972,-0.0315297,692.55158,869.78914)"
                 fill="none"
                 stroke-linejoin="round"
                 d="m 1465.5849,2316.2614 -280.3141,-199.6633 280.3007,-199.7635 z m 0,0"
                 stroke="#231f1f"
                 stroke-width="60"
                 stroke-opacity="1"
                 stroke-miterlimit="10"
                 id="path1913" />
            </g>
          </g>
        </g>
      </g>
      <g
         clip-path="url(#e03529191d)"
         id="g1931"
         transform="translate(-45.996094,-28.613281)">
        <g
           clip-path="url(#df4014fb59)"
           id="g1929">
          <g
             clip-path="url(#fb0fa4e3e0)"
             id="g1927">
            <g
               clip-path="url(#5f0f1d34e3)"
               id="g1925">
              <path
                 fill="#ffffff"
                 d="m 783.00781,839.47266 c 0.49219,-2.92188 -5.17187,-6.08594 -7.60156,-7.64844 -1.92188,-1.23047 -2.0625,-2.67969 -2.0625,-3.46875 0.004,-1.23828 0.78125,-4.31641 0.78125,-4.31641 l -9.08203,-1.52344 c 0,0 -0.27344,3.16016 -0.67188,4.33204 -0.2539,0.75 -0.86718,2.07031 -3.08203,2.60937 -2.80469,0.68359 -9.1875,1.82813 -9.67969,4.74609 l -1.03906,6.19141 c 0,0 8.60938,2.55859 15.51953,3.71484 6.19532,1.04297 15.87891,1.55469 15.87891,1.55469 l 1.03906,-6.1914"
                 fill-opacity="1"
                 fill-rule="nonzero"
                 id="path1923" />
            </g>
          </g>
        </g>
      </g>
      <g
         clip-path="url(#f3638a7bcc)"
         id="g1941"
         transform="translate(-45.996094,-28.613281)">
        <g
           clip-path="url(#bb58692600)"
           id="g1939">
          <g
             clip-path="url(#0a1e64d380)"
             id="g1937">
            <g
               clip-path="url(#6d858414f8)"
               id="g1935">
              <path
                 stroke-linecap="round"
                 transform="matrix(0.0316138,0.00530383,0.00528972,-0.0315297,692.55158,869.78914)"
                 fill="none"
                 stroke-linejoin="round"
                 d="m 2626.4757,1403.3378 c 0.061,92.6808 -190.5296,160.9719 -273.3458,196.5972 -65.4791,28.011 -77.2857,71.9885 -81.3585,96.3294 -6.2713,38.2185 1.7564,137.195 1.7564,137.195 l -287.279,-0.01 c 0,0 7.8988,-98.8991 1.6892,-137.1109 -3.9404,-24.45 -15.9936,-68.3527 -81.3526,-96.4441 -82.76,-35.6026 -273.2246,-103.942 -273.3059,-196.5022 l -0.01,-196.369 c 0,0 278.0804,-34.3708 496.6448,-34.2763 195.9869,-0.1106 496.5514,34.2197 496.5514,34.2197 z m 0,0"
                 stroke="#231f1f"
                 stroke-width="60"
                 stroke-opacity="1"
                 stroke-miterlimit="10"
                 id="path1933" />
            </g>
          </g>
        </g>
      </g>
      <g
         clip-path="url(#abf329712e)"
         id="g1951"
         transform="translate(-45.996094,-28.613281)">
        <g
           clip-path="url(#1c21d268d4)"
           id="g1949">
          <g
             clip-path="url(#18f961d1c4)"
             id="g1947">
            <g
               clip-path="url(#de2ed62eae)"
               id="g1945">
              <path
                 fill="#ffffff"
                 d="m 779.27734,816.94531 c -0.9414,5.59375 -6.53515,9.78906 -10.17187,9.17969 -3.59375,-0.60156 -7.55469,-6.40234 -6.61719,-11.99609 0.94141,-5.60157 5.45703,-9.51172 10.09766,-8.73438 4.63281,0.77734 7.6289,5.94922 6.6914,11.55078"
                 fill-opacity="1"
                 fill-rule="nonzero"
                 id="path1943" />
            </g>
          </g>
        </g>
      </g>
      <g
         clip-path="url(#ed1294dec3)"
         id="g1961"
         transform="translate(-45.996094,-28.613281)">
        <g
           clip-path="url(#4d2b990c12)"
           id="g1959">
          <g
             clip-path="url(#336ff1d52b)"
             id="g1957">
            <g
               clip-path="url(#c4a7cd3aee)"
               id="g1955">
              <path
                 stroke-linecap="round"
                 transform="matrix(0.0316138,0.00530383,0.00528972,-0.0315297,692.55158,869.78914)"
                 fill="none"
                 stroke-linejoin="round"
                 d="m 2395.4288,2078.9512 c -0.091,-177.4271 -150.5323,-335.7929 -265.5641,-335.8162 -113.6695,-0.042 -265.4718,158.4006 -265.5014,335.8075 0.05,177.6681 118.7946,321.6578 265.5793,321.6952 146.5444,0 265.4164,-144.0385 265.4862,-321.6865 z m 0,0"
                 stroke="#231f1f"
                 stroke-width="60"
                 stroke-opacity="1"
                 stroke-miterlimit="10"
                 id="path1953" />
            </g>
          </g>
        </g>
      </g>
      <g
         clip-path="url(#e4a1fa16b4)"
         id="g1971"
         transform="translate(-45.996094,-28.613281)">
        <g
           clip-path="url(#043329d9f2)"
           id="g1969">
          <g
             clip-path="url(#9d330751dd)"
             id="g1967">
            <g
               clip-path="url(#1e2115ddda)"
               id="g1965">
              <path
                 stroke-linecap="round"
                 transform="matrix(0.0316138,0.00530383,0.00528972,-0.0315297,692.55158,869.78914)"
                 fill="none"
                 stroke-linejoin="round"
                 d="m 1817.1395,1390.8371 v -191.287"
                 stroke="#231f1f"
                 stroke-width="60"
                 stroke-opacity="1"
                 stroke-miterlimit="10"
                 id="path1963" />
            </g>
          </g>
        </g>
      </g>
      <g
         clip-path="url(#bba07076c4)"
         id="g1981"
         transform="translate(-45.996094,-28.613281)">
        <g
           clip-path="url(#4592c49fcd)"
           id="g1979">
          <g
             clip-path="url(#96dc82fd39)"
             id="g1977">
            <g
               clip-path="url(#8c3c8e855b)"
               id="g1975">
              <path
                 stroke-linecap="round"
                 transform="matrix(0.0316138,0.00530383,0.00528972,-0.0315297,692.55158,869.78914)"
                 fill="none"
                 stroke-linejoin="round"
                 d="M 2498.5959,1390.7465 2498.58,1199.58"
                 stroke="#231f1f"
                 stroke-width="60"
                 stroke-opacity="1"
                 stroke-miterlimit="10"
                 id="path1973" />
            </g>
          </g>
        </g>
      </g>
    </g>
    <text
       xml:space="preserve"
       style="font-style:normal;font-variant:normal;font-weight:bold;font-stretch:normal;font-size:36px;line-height:1.25;font-family:'Open Sans';-inkscape-font-specification:'Open Sans Bold';fill:#ffffff;fill-opacity:1;stroke:none;stroke-width:0.75"
       x="147.11861"
       y="614.50464"
       id="text37664"><tspan
         sodipodi:role="line"
         id="tspan37662"
         style="font-style:normal;font-variant:normal;font-weight:bold;font-stretch:normal;font-size:36px;font-family:'Open Sans';-inkscape-font-specification:'Open Sans Bold';fill:#ffffff;fill-opacity:1;stroke-width:0.75"
         x="147.11861"
         y="614.50464">tapes de la restructuration</tspan></text>
    <text
       xml:space="preserve"
       style="font-style:normal;font-variant:normal;font-weight:normal;font-stretch:normal;font-size:32px;line-height:1.25;font-family:'Open Sans';-inkscape-font-specification:'Open Sans';white-space:pre;inline-size:779.49;fill:#ffffff;fill-opacity:1;stroke:none;stroke-width:0.75"
       x="47.710434"
       y="1579.3756"
       id="text38922"
       transform="translate(0.154695,-875.59013)"><tspan
         x="47.710434"
         y="1579.3756"
         id="tspan21504">1. Identifier les penses dysfonctionnelles
</tspan><tspan
         x="47.710434"
         y="1619.3757"
         id="tspan21506">2. Apprendre  discrditer sa pense
</tspan><tspan
         x="47.710434"
         y="1659.3757"
         id="tspan21508">3. Proposer des penses alternatives
</tspan><tspan
         x="47.710434"
         y="1699.3757"
         id="tspan21510">4. Confronter le patient  cette pense en
</tspan><tspan
         x="47.710434"
         y="1739.3757"
         id="tspan21514">   <tspan
   style="font-size:6px"
   id="tspan21512"> </tspan> situation relle</tspan></text>
  </g>
  <text
     xml:space="preserve"
     style="font-style:normal;font-variant:normal;font-weight:normal;font-stretch:normal;font-size:30px;line-height:1.25;font-family:'Open Sans';-inkscape-font-specification:'Open Sans';white-space:pre;inline-size:661.591;fill:#ffffff;fill-opacity:1;stroke:none;stroke-width:0.75"
     x="1695.3052"
     y="146.2262"
     id="text82593"
     transform="translate(-749.02624,98.596609)"><tspan
       x="1695.3052"
       y="146.2262"
       id="tspan21516">Reprer une pense, sa rcurrence et la </tspan><tspan
       x="1695.3052"
       y="183.72619"
       id="tspan21518">souffrance engendre, notamment avec des </tspan><tspan
       x="1695.3052"
       y="221.22619"
       id="tspan21520">rcits fictifs.
</tspan><tspan
       x="1695.3052"
       y="258.72619"
       id="tspan21522">
</tspan><tspan
       x="1695.3052"
       y="296.22619"
       id="tspan21524">Discrditer la pense avec le questionnement </tspan><tspan
       x="1695.3052"
       y="333.72619"
       id="tspan21526">socratique ou la mthode des 4R.
</tspan><tspan
       x="1695.3052"
       y="371.22619"
       id="tspan21528">
</tspan><tspan
       x="1695.3052"
       y="408.72619"
       id="tspan21530">Proposer des alternatives de pense dans le </tspan><tspan
       x="1695.3052"
       y="446.22619"
       id="tspan21532">sens de  Je pourrais penser [...]  la place  et </tspan><tspan
       x="1695.3052"
       y="483.72619"
       id="tspan21534">tayer avec des exemples.
</tspan><tspan
       x="1695.3052"
       y="521.22619"
       id="tspan21536">
</tspan><tspan
       x="1695.3052"
       y="558.72619"
       id="tspan21538">Utiliser des exercices de dcentration comme </tspan><tspan
       x="1695.3052"
       y="596.22619"
       id="tspan21540">le photolangage.</tspan></text>
</svg>
