<?xml version="1.0" encoding="UTF-8" standalone="no"?>
<svg
   zoomAndPan="magnify"
   viewBox="0 0 814.7834 534.22427"
   preserveAspectRatio="xMidYMid meet"
   version="1.0"
   id="svg6945"
   sodipodi:docname="affirmation.svg"
   inkscape:version="1.1.2 (0a00cf5339, 2022-02-04)"
   xmlns:inkscape="http://www.inkscape.org/namespaces/inkscape"
   xmlns:sodipodi="http://sodipodi.sourceforge.net/DTD/sodipodi-0.dtd"
   xmlns="http://www.w3.org/2000/svg"
   xmlns:svg="http://www.w3.org/2000/svg">
  <sodipodi:namedview
     id="namedview6947"
     pagecolor="#ffffff"
     bordercolor="#666666"
     borderopacity="1.0"
     inkscape:pageshadow="2"
     inkscape:pageopacity="0.0"
     inkscape:pagecheckerboard="0"
     showgrid="false"
     fit-margin-top="0"
     fit-margin-left="0"
     fit-margin-right="0"
     fit-margin-bottom="0"
     inkscape:zoom="0.60812966"
     inkscape:cx="211.30362"
     inkscape:cy="286.94538"
     inkscape:window-width="1920"
     inkscape:window-height="1025"
     inkscape:window-x="1920"
     inkscape:window-y="0"
     inkscape:window-maximized="1"
     inkscape:current-layer="svg6945" />
  <style>
    @import url(&quot;/static/opensans/OpenSans.css&quot;);
  </style>
  <defs
     id="defs31">
    <g
       id="g2" />
    <clipPath
       id="47d6cf4432">
      <path
         d="M 67.140625,144.125 H 219 v 76.41016 H 67.140625 Z m 0,0"
         clip-rule="nonzero"
         id="path4" />
    </clipPath>
    <clipPath
       id="538b4877b1">
      <path
         d="M 67.140625,144.125 H 219.21875 v 76.41016 H 67.140625 Z m 0,0"
         clip-rule="nonzero"
         id="path7" />
    </clipPath>
    <clipPath
       id="2fa08067bd">
      <path
         d="M 436.78516,14.894531 H 829.17578 V 561.24609 H 436.78516 Z m 0,0"
         clip-rule="nonzero"
         id="path10" />
    </clipPath>
    <clipPath
       id="41abba98f5">
      <path
         d="M 245,28.214844 H 396.58203 V 104.62891 H 245 Z m 0,0"
         clip-rule="nonzero"
         id="path13" />
    </clipPath>
    <clipPath
       id="c32f4cece3">
      <path
         d="M 244.50391,28.214844 H 396.58203 V 104.62891 H 244.50391 Z m 0,0"
         clip-rule="nonzero"
         id="path16" />
    </clipPath>
    <clipPath
       id="aec6b78ae3">
      <path
         d="M 67.140625,28.214844 H 219 V 104.62891 H 67.140625 Z m 0,0"
         clip-rule="nonzero"
         id="path19" />
    </clipPath>
    <clipPath
       id="d96e5939ae">
      <path
         d="M 67.140625,28.214844 H 219.21875 V 104.62891 H 67.140625 Z m 0,0"
         clip-rule="nonzero"
         id="path22" />
    </clipPath>
    <clipPath
       id="23870d0342">
      <path
         d="m 245,143.1875 h 151.58203 v 76.41406 H 245 Z m 0,0"
         clip-rule="nonzero"
         id="path25" />
    </clipPath>
    <clipPath
       id="55267153b0">
      <path
         d="m 244.50391,143.1875 h 152.07812 v 76.41406 H 244.50391 Z m 0,0"
         clip-rule="nonzero"
         id="path28" />
    </clipPath>
  </defs>
  <g
     clip-path="url(#2fa08067bd)"
     id="g43"
     transform="matrix(1,0,0,0.97791491,-14.298619,-14.565584)">
    <path
       fill="#3c8ebb"
       d="M 436.78516,14.894531 H 829.08203 V 561.18359 H 436.78516 Z m 0,0"
       fill-opacity="1"
       fill-rule="nonzero"
       id="path41" />
  </g>
  <path
     fill="#ffffff"
     d="m 441.96309,27.417969 c 0,0.398438 -0.0742,0.78125 -0.22656,1.148438 -0.15235,0.367187 -0.36719,0.6875 -0.64844,0.96875 -0.28125,0.28125 -0.60547,0.5 -0.97266,0.652343 -0.36719,0.152344 -0.75,0.226563 -1.14844,0.226563 -0.39843,0 -0.77734,-0.07422 -1.14453,-0.226563 -0.36718,-0.152343 -0.6914,-0.371093 -0.97265,-0.652343 -0.28125,-0.28125 -0.5,-0.601563 -0.65235,-0.96875 -0.15234,-0.367188 -0.22656,-0.75 -0.22656,-1.148438 0,-0.398438 0.0742,-0.78125 0.22656,-1.148438 0.15235,-0.367187 0.3711,-0.691406 0.65235,-0.96875 0.28125,-0.28125 0.60547,-0.5 0.97265,-0.652343 0.36719,-0.152344 0.7461,-0.226563 1.14453,-0.226563 0.39844,0 0.78125,0.07422 1.14844,0.226563 0.36719,0.152343 0.69141,0.371093 0.97266,0.652343 0.28125,0.277344 0.49609,0.601563 0.64844,0.96875 0.15234,0.367188 0.22656,0.75 0.22656,1.148438 z m 0,0"
     fill-opacity="1"
     fill-rule="nonzero"
     id="path45" />
  <path
     fill="#ffffff"
     d="m 441.96309,127.81237 c 0,0.39454 -0.0742,0.77735 -0.22656,1.14454 -0.15235,0.36718 -0.36719,0.6914 -0.64844,0.97265 -0.28125,0.28125 -0.60547,0.4961 -0.97266,0.64844 -0.36719,0.15234 -0.75,0.23047 -1.14844,0.23047 -0.39843,0 -0.77734,-0.0781 -1.14453,-0.23047 -0.36718,-0.15234 -0.6914,-0.36719 -0.97265,-0.64844 -0.28125,-0.28125 -0.5,-0.60547 -0.65235,-0.97265 -0.15234,-0.36719 -0.22656,-0.75 -0.22656,-1.14454 0,-0.39843 0.0742,-0.78125 0.22656,-1.14843 0.15235,-0.36719 0.3711,-0.69141 0.65235,-0.97266 0.28125,-0.28125 0.60547,-0.49609 0.97265,-0.64844 0.36719,-0.15234 0.7461,-0.23047 1.14453,-0.23047 0.39844,0 0.78125,0.0781 1.14844,0.23047 0.36719,0.15235 0.69141,0.36719 0.97266,0.64844 0.28125,0.28125 0.49609,0.60547 0.64844,0.97266 0.15234,0.36718 0.22656,0.75 0.22656,1.14843 z m 0,0"
     fill-opacity="1"
     fill-rule="nonzero"
     id="path979" />
  <path
     fill="#ffffff"
     d="m 441.96309,228.20287 c 0,0.39844 -0.0742,0.78125 -0.22656,1.14844 -0.15235,0.36719 -0.36719,0.69141 -0.64844,0.97266 -0.28125,0.28125 -0.60547,0.49609 -0.97266,0.64843 -0.36719,0.15235 -0.75,0.22657 -1.14844,0.22657 -0.39843,0 -0.77734,-0.0742 -1.14453,-0.22657 -0.36718,-0.15234 -0.6914,-0.36718 -0.97265,-0.64843 -0.28125,-0.28125 -0.5,-0.60547 -0.65235,-0.97266 -0.15234,-0.36719 -0.22656,-0.75 -0.22656,-1.14844 0,-0.39453 0.0742,-0.77734 0.22656,-1.14453 0.15235,-0.36719 0.3711,-0.6914 0.65235,-0.97265 0.28125,-0.28125 0.60547,-0.5 0.97265,-0.64844 0.36719,-0.15235 0.7461,-0.23047 1.14453,-0.23047 0.39844,0 0.78125,0.0781 1.14844,0.23047 0.36719,0.14844 0.69141,0.36719 0.97266,0.64844 0.28125,0.28125 0.49609,0.60546 0.64844,0.97265 0.15234,0.36719 0.22656,0.75 0.22656,1.14453 z m 0,0"
     fill-opacity="1"
     fill-rule="nonzero"
     id="path1817" />
  <g
     fill="#ffffff"
     fill-opacity="1"
     id="g1963"
     transform="translate(-14.298619,-14.894531)">
    <g
       transform="translate(680.50389,243.08413)"
       id="g1961">
      <g
         id="g1959" />
    </g>
  </g>
  <g
     fill="#ffffff"
     fill-opacity="1"
     id="g1969"
     transform="translate(-14.298619,-14.894531)">
    <g
       transform="translate(686.67266,243.08413)"
       id="g1967">
      <g
         id="g1965" />
    </g>
  </g>
  <g
     fill="#ffffff"
     fill-opacity="1"
     id="g3347"
     transform="translate(-14.298619,-14.894531)">
    <g
       transform="translate(725.28891,359.95126)"
       id="g3345">
      <g
         id="g3343" />
    </g>
  </g>
  <path
     fill="#ffffff"
     d="m 441.96309,367.5063 c 0,0.39844 -0.0742,0.78125 -0.22656,1.14453 -0.15235,0.36719 -0.36719,0.69141 -0.64844,0.97266 -0.28125,0.28125 -0.60547,0.5 -0.97266,0.65234 -0.36719,0.15235 -0.75,0.22657 -1.14844,0.22657 -0.39843,0 -0.77734,-0.0742 -1.14453,-0.22657 -0.36718,-0.15234 -0.6914,-0.37109 -0.97265,-0.65234 -0.28125,-0.28125 -0.5,-0.60547 -0.65235,-0.97266 -0.15234,-0.36328 -0.22656,-0.74609 -0.22656,-1.14453 0,-0.39844 0.0742,-0.78125 0.22656,-1.14844 0.15235,-0.36718 0.3711,-0.6914 0.65235,-0.97265 0.28125,-0.27735 0.60547,-0.4961 0.97265,-0.64844 0.36719,-0.15234 0.7461,-0.22656 1.14453,-0.22656 0.39844,0 0.78125,0.0742 1.14844,0.22656 0.36719,0.15234 0.69141,0.37109 0.97266,0.64844 0.28125,0.28125 0.49609,0.60547 0.64844,0.97265 0.15234,0.36719 0.22656,0.75 0.22656,1.14844 z m 0,0"
     fill-opacity="1"
     fill-rule="nonzero"
     id="path3349" />
  <path
     fill="#ffffff"
     d="m 441.96309,428.94368 c 0,0.39843 -0.0742,0.77734 -0.22656,1.14453 -0.15235,0.36718 -0.36719,0.6914 -0.64844,0.97265 -0.28125,0.28125 -0.60547,0.5 -0.97266,0.65235 -0.36719,0.15234 -0.75,0.22656 -1.14844,0.22656 -0.39843,0 -0.77734,-0.0742 -1.14453,-0.22656 -0.36718,-0.15235 -0.6914,-0.3711 -0.97265,-0.65235 -0.28125,-0.28125 -0.5,-0.60547 -0.65235,-0.97265 -0.15234,-0.36719 -0.22656,-0.7461 -0.22656,-1.14453 0,-0.39844 0.0742,-0.78125 0.22656,-1.14844 0.15235,-0.36719 0.3711,-0.69141 0.65235,-0.97266 0.28125,-0.27734 0.60547,-0.49609 0.97265,-0.64844 0.36719,-0.15234 0.7461,-0.22656 1.14453,-0.22656 0.39844,0 0.78125,0.0742 1.14844,0.22656 0.36719,0.15235 0.69141,0.3711 0.97266,0.64844 0.28125,0.28125 0.49609,0.60547 0.64844,0.97266 0.15234,0.36719 0.22656,0.75 0.22656,1.14844 z m 0,0"
     fill-opacity="1"
     fill-rule="nonzero"
     id="path3673" />
  <g
     fill="#ffffff"
     fill-opacity="1"
     id="g3795"
     transform="translate(-14.298619,-14.894531)">
    <g
       transform="translate(637.73221,457.34054)"
       id="g3793">
      <g
         id="g3791" />
    </g>
  </g>
  <g
     fill="#ffffff"
     fill-opacity="1"
     id="g4187"
     transform="translate(-14.298619,-14.894531)">
    <g
       transform="translate(571.75839,496.29625)"
       id="g4185">
      <g
         id="g4183" />
    </g>
  </g>
  <g
     fill="#0c72ab"
     fill-opacity="1"
     id="g5053"
     transform="translate(-14.298619,-14.894531)">
    <g
       transform="translate(19.321098,261.94367)"
       id="g5051">
      <g
         id="g5049" />
    </g>
  </g>
  <g
     fill="#0c72ab"
     fill-opacity="1"
     id="g5277"
     transform="translate(-14.298619,-14.894531)">
    <g
       transform="translate(214.59129,286.66557)"
       id="g5275">
      <g
         id="g5273" />
    </g>
  </g>
  <g
     fill="#000000"
     fill-opacity="1"
     id="g5381"
     transform="translate(-14.298619,-14.894531)">
    <g
       transform="translate(168.50696,315.1332)"
       id="g5379">
      <g
         id="g5377" />
    </g>
  </g>
  <g
     fill="#000000"
     fill-opacity="1"
     id="g6169"
     transform="translate(-14.298619,-14.894531)">
    <g
       transform="translate(115.61007,443.98671)"
       id="g6167">
      <g
         id="g6165" />
    </g>
  </g>
  <g
     fill="#000000"
     fill-opacity="1"
     id="g6937"
     transform="translate(-14.298619,-14.894531)">
    <g
       transform="translate(254.58878,540.62684)"
       id="g6935">
      <g
         id="g6933" />
    </g>
  </g>
  <g
     fill="#000000"
     fill-opacity="1"
     id="g6943"
     transform="translate(-14.298619,-14.894531)">
    <g
       transform="translate(214.59129,569.09448)"
       id="g6941">
      <g
         id="g6939" />
    </g>
  </g>
  <text
     xml:space="preserve"
     style="font-style:normal;font-variant:normal;font-weight:normal;font-stretch:normal;font-size:16.0202px;line-height:1.25;font-family:'Open Sans';-inkscape-font-specification:'Open Sans';white-space:pre;inline-size:353.824;fill:#ffffff;fill-opacity:1;stroke:none;stroke-width:0.750946"
     x="895.71875"
     y="56.266895"
     id="text14321"
     transform="translate(-442.85247,-23.895623)"><tspan
       x="895.71875"
       y="56.266895"
       id="tspan69342"><tspan
   style="font-weight:bold;-inkscape-font-specification:'Open Sans Bold'"
   id="tspan69340">Posture inhibée</tspan> : génère du non-dit, </tspan><tspan
       x="895.71875"
       y="76.292149"
       id="tspan69344">l'incapacité à dire non, à faire des demandes, à </tspan><tspan
       x="895.71875"
       y="96.317402"
       id="tspan69346">exprimer son avis, surtout s'il est contraire à </tspan><tspan
       x="895.71875"
       y="116.34266"
       id="tspan69348">celui de son interlocuteur.
</tspan><tspan
       x="895.71875"
       y="136.36791"
       id="tspan69350">
</tspan><tspan
       x="895.71875"
       y="156.39315"
       id="tspan69354"><tspan
   style="font-weight:bold;-inkscape-font-specification:'Open Sans Bold'"
   id="tspan69352">Posture agressive</tspan> : les émotions sont </tspan><tspan
       x="895.71875"
       y="176.41841"
       id="tspan69356">extériorisées de façon excessive tant dans le </tspan><tspan
       x="895.71875"
       y="196.44366"
       id="tspan69358">non verbal que dans le contenu. Risque </tspan><tspan
       x="895.71875"
       y="216.46891"
       id="tspan69360">d'entrer en conflit.
</tspan><tspan
       x="895.71875"
       y="236.49417"
       id="tspan69362">
</tspan><tspan
       x="895.71875"
       y="256.51942"
       id="tspan69366"><tspan
   style="font-weight:bold;-inkscape-font-specification:'Open Sans Bold'"
   id="tspan69364">Posture manipulatrice</tspan> : expression de ses </tspan><tspan
       x="895.71875"
       y="276.54466"
       id="tspan69368">émotions, de ses désirs et de ses opinions </tspan><tspan
       x="895.71875"
       y="296.5699"
       id="tspan69370">dans le but de défendre ses droits et de </tspan><tspan
       x="895.71875"
       y="316.59514"
       id="tspan69372">satisfaire ses besoins, mais de façon toujours </tspan><tspan
       x="895.71875"
       y="336.62037"
       id="tspan69374">indirecte et souvent malhonnête et ceci au </tspan><tspan
       x="895.71875"
       y="356.64561"
       id="tspan69376">détriment fréquent des droits des autres.
</tspan><tspan
       x="895.71875"
       y="376.67085"
       id="tspan69378">
</tspan><tspan
       x="895.71875"
       y="396.69609"
       id="tspan69384"><tspan
         style="font-weight:bold;-inkscape-font-specification:'Open Sans Bold'"
         id="tspan69380">Obectif : tendre vers la posture </tspan><tspan
         style="font-weight:bold;-inkscape-font-specification:'Open Sans Bold'"
         id="tspan69382">assertive </tspan></tspan><tspan
       x="895.71875"
       y="416.72133"
       id="tspan69388"><tspan
   style="font-weight:bold;-inkscape-font-specification:'Open Sans Bold'"
   id="tspan69386">(affirmée)</tspan>
</tspan><tspan
       x="895.71875"
       y="436.74656"
       id="tspan69390">
</tspan><tspan
       x="895.71875"
       y="456.7718"
       id="tspan69394"><tspan
   style="font-weight:bold;-inkscape-font-specification:'Open Sans Bold'"
   id="tspan69392">Posture assertive</tspan> : capacité d'exprimer ses </tspan><tspan
       x="895.71875"
       y="476.79704"
       id="tspan69396">émotions, ses pensées et ses opinions, de </tspan><tspan
       x="895.71875"
       y="496.82228"
       id="tspan69398">défendre ses droits tout en respectant ceux </tspan><tspan
       x="895.71875"
       y="516.84752"
       id="tspan69400">des autres, de façon directe, honnête et </tspan><tspan
       x="895.71875"
       y="536.87278"
       id="tspan69402">appropriée.</tspan></text>
  <text
     xml:space="preserve"
     style="font-style:normal;font-weight:normal;font-size:30.0378px;line-height:1.25;font-family:sans-serif;fill:#000000;fill-opacity:1;stroke:none;stroke-width:0.750946"
     x="1311.2368"
     y="164.29831"
     id="text63485"><tspan
       sodipodi:role="line"
       id="tspan63483"
       style="stroke-width:0.750946"
       x="1311.2368"
       y="164.29831" /><tspan
       sodipodi:role="line"
       style="stroke-width:0.750946"
       id="tspan63487"
       x="1311.2368"
       y="201.84557" /></text>
  <g
     id="g65561"
     transform="translate(5.881789,-9.9999999)">
    <g
       clip-path="url(#47d6cf4432)"
       id="g35"
       transform="translate(-46.423722,-20.902099)">
      <path
         fill="#e78404"
         d="m 68.070312,144.32812 131.371098,0.39844 19.38671,36.98047 -19.38671,38.57422 L 67.675781,219.48437 87.0625,181.70703 Z m 0,0"
         fill-opacity="1"
         fill-rule="evenodd"
         id="path33" />
    </g>
    <g
       clip-path="url(#538b4877b1)"
       id="g39"
       transform="translate(-46.423722,-20.902099)"
       style="fill:#ec9d36;fill-opacity:1;stroke:none">
      <path
         stroke-linecap="butt"
         transform="matrix(0.353668,0,0,0.35541,49.076956,85.917736)"
         fill="none"
         stroke-linejoin="miter"
         d="m 53.703962,164.34655 371.453468,1.12106 54.8162,104.0502 -54.8162,108.53446 -372.569011,-2.24213 54.816201,-106.29233 z m 0,0"
         stroke="#000000"
         stroke-width="1.25"
         stroke-opacity="1"
         stroke-miterlimit="4"
         id="path37"
         style="fill:#ec9d36;fill-opacity:1;stroke:none" />
    </g>
    <g
       clip-path="url(#41abba98f5)"
       id="g4755"
       transform="translate(-59.94075,-2.8793973)">
      <path
         fill="#e78404"
         d="m 245.43359,28.421875 131.3711,0.398437 19.38672,36.980469 -19.38672,38.574219 -131.76953,-0.79687 19.39062,-37.777349 z m 0,0"
         fill-opacity="1"
         fill-rule="evenodd"
         id="path4753" />
    </g>
    <g
       clip-path="url(#c32f4cece3)"
       id="g4759"
       transform="translate(-59.94075,-2.8793973)"
       style="fill:#ec9d36;fill-opacity:1;stroke:none">
      <path
         stroke-linecap="butt"
         transform="matrix(0.353668,0,0,0.35541,226.43975,-29.989165)"
         fill="none"
         stroke-linejoin="miter"
         d="m 53.70535,164.34838 371.45347,1.12107 54.8162,104.05019 -54.8162,108.53446 -372.580058,-2.24213 54.827248,-106.29233 z m 0,0"
         stroke="#000000"
         stroke-width="1.25"
         stroke-opacity="1"
         stroke-miterlimit="4"
         id="path4757"
         style="fill:#ec9d36;fill-opacity:1;stroke:none" />
    </g>
    <g
       clip-path="url(#aec6b78ae3)"
       id="g4763"
       transform="translate(-46.423722,-2.8793973)"
       style="fill:#ec9d36;fill-opacity:1">
      <path
         fill="#e78404"
         d="M 68.070312,28.421875 199.44141,28.820312 218.82812,65.800781 199.44141,104.375 67.675781,103.57813 87.0625,65.800781 Z m 0,0"
         fill-opacity="1"
         fill-rule="evenodd"
         id="path4761"
         style="fill:#ec9d36;fill-opacity:1" />
    </g>
    <g
       clip-path="url(#d96e5939ae)"
       id="g4767"
       transform="translate(-46.423722,-2.8793973)"
       style="stroke:none">
      <path
         stroke-linecap="butt"
         transform="matrix(0.353668,0,0,0.35541,49.076956,-29.989165)"
         fill="none"
         stroke-linejoin="miter"
         d="m 53.703962,164.34838 371.453468,1.12107 54.8162,104.05019 -54.8162,108.53446 -372.569011,-2.24213 54.816201,-106.29233 z m 0,0"
         stroke="#000000"
         stroke-width="1.25"
         stroke-opacity="1"
         stroke-miterlimit="4"
         id="path4765"
         style="stroke:none" />
    </g>
    <g
       clip-path="url(#23870d0342)"
       id="g4969"
       transform="translate(-59.94075,-20.902099)"
       style="fill:#ec9d36;fill-opacity:1;stroke:none">
      <path
         fill="#e78404"
         d="m 245.43359,143.39453 131.3711,0.39844 19.38672,36.98047 -19.38672,38.57031 -131.76953,-0.79297 19.39062,-37.77734 z m 0,0"
         fill-opacity="1"
         fill-rule="evenodd"
         id="path4967"
         style="fill:#ec9d36;fill-opacity:1;stroke:none" />
    </g>
    <g
       clip-path="url(#55267153b0)"
       id="g4973"
       transform="translate(-59.94075,-20.902099)"
       style="stroke:none">
      <path
         stroke-linecap="butt"
         transform="matrix(0.353668,0,0,0.35541,226.43975,84.981958)"
         fill="none"
         stroke-linejoin="miter"
         d="m 53.70535,164.3527 371.45347,1.12106 54.8162,104.0502 -54.8162,108.52346 -372.580058,-2.23114 54.827248,-106.29232 z m 0,0"
         stroke="#000000"
         stroke-width="1.25"
         stroke-opacity="1"
         stroke-miterlimit="4"
         id="path4971"
         style="stroke:none" />
    </g>
    <text
       xml:space="preserve"
       style="font-style:normal;font-variant:normal;font-weight:normal;font-stretch:normal;font-size:16.0202px;line-height:1.25;font-family:'Open Sans';-inkscape-font-specification:'Open Sans';fill:#ffffff;fill-opacity:1;stroke-width:0.750946"
       x="57.829468"
       y="165.56549"
       id="text119389"><tspan
         sodipodi:role="line"
         id="tspan119387"
         style="font-style:normal;font-variant:normal;font-weight:normal;font-stretch:normal;font-size:16.0202px;font-family:'Open Sans';-inkscape-font-specification:'Open Sans';fill:#ffffff;fill-opacity:1;stroke-width:0.750946"
         x="57.829468"
         y="165.56549">Assertivité</tspan></text>
    <text
       xml:space="preserve"
       style="font-style:normal;font-variant:normal;font-weight:normal;font-stretch:normal;font-size:16.0202px;line-height:1.25;font-family:'Open Sans';-inkscape-font-specification:'Open Sans';fill:#ffffff;fill-opacity:1;stroke-width:0.750946"
       x="62.413368"
       y="67.725792"
       id="text120587"><tspan
         sodipodi:role="line"
         id="tspan120585"
         style="font-style:normal;font-variant:normal;font-weight:normal;font-stretch:normal;font-size:16.0202px;font-family:'Open Sans';-inkscape-font-specification:'Open Sans';fill:#ffffff;fill-opacity:1;stroke-width:0.750946"
         x="62.413368"
         y="67.725792">Inhibition</tspan></text>
    <text
       xml:space="preserve"
       style="font-style:normal;font-variant:normal;font-weight:normal;font-stretch:normal;font-size:16.0202px;line-height:1.25;font-family:'Open Sans';-inkscape-font-specification:'Open Sans';fill:#ffffff;fill-opacity:1;stroke-width:0.750946"
       x="224.32689"
       y="67.995659"
       id="text122329"><tspan
         sodipodi:role="line"
         id="tspan122327"
         style="font-style:normal;font-variant:normal;font-weight:normal;font-stretch:normal;font-size:16.0202px;font-family:'Open Sans';-inkscape-font-specification:'Open Sans';fill:#ffffff;fill-opacity:1;stroke-width:0.750946"
         x="224.32689"
         y="67.995659">Agressivité</tspan></text>
    <text
       xml:space="preserve"
       style="font-style:normal;font-variant:normal;font-weight:normal;font-stretch:normal;font-size:16.0202px;line-height:1.25;font-family:'Open Sans';-inkscape-font-specification:'Open Sans';fill:#ffffff;fill-opacity:1;stroke-width:0.750946"
       x="216.31288"
       y="165.19392"
       id="text123377"><tspan
         sodipodi:role="line"
         id="tspan123375"
         style="font-style:normal;font-variant:normal;font-weight:normal;font-stretch:normal;font-size:16.0202px;font-family:'Open Sans';-inkscape-font-specification:'Open Sans';fill:#ffffff;fill-opacity:1;stroke-width:0.750946"
         x="216.31288"
         y="165.19392">Manipulation</tspan></text>
  </g>
  <text
     xml:space="preserve"
     style="font-style:normal;font-variant:normal;font-weight:normal;font-stretch:normal;font-size:20.0252px;line-height:1.25;font-family:'Open Sans';-inkscape-font-specification:'Open Sans';text-align:center;text-anchor:middle;fill:#3c8ebb;fill-opacity:1;stroke-width:0.750946"
     x="184.59412"
     y="243.89957"
     id="text152135"><tspan
       sodipodi:role="line"
       id="tspan152133"
       style="font-style:normal;font-variant:normal;font-weight:normal;font-stretch:normal;font-size:20.0252px;font-family:'Open Sans';-inkscape-font-specification:'Open Sans';text-align:center;text-anchor:middle;fill:#3c8ebb;fill-opacity:1;stroke-width:0.750946"
       x="184.59412"
       y="243.89957">La méthode OSBD :</tspan><tspan
       sodipodi:role="line"
       style="font-style:normal;font-variant:normal;font-weight:normal;font-stretch:normal;font-size:20.0252px;font-family:'Open Sans';-inkscape-font-specification:'Open Sans';text-align:center;text-anchor:middle;fill:#3c8ebb;fill-opacity:1;stroke-width:0.750946"
       x="184.59412"
       y="268.93106"
       id="tspan219989">exprimer une demande</tspan></text>
  <g
     id="g65535"
     transform="translate(15.144022,-9.9999999)">
    <text
       xml:space="preserve"
       style="font-style:normal;font-variant:normal;font-weight:normal;font-stretch:normal;font-size:16px;line-height:1.9;font-family:'Open Sans';-inkscape-font-specification:'Open Sans';white-space:pre;inline-size:401.327;fill:#383838;fill-opacity:1;stroke-width:0.750946"
       x="-62.664459"
       y="257.19141"
       id="text152655"
       transform="translate(46.785665,74.741887)"><tspan
         x="-62.664459"
         y="257.19141"
         id="tspan69406"><tspan
   style="font-weight:bold;-inkscape-font-specification:'Open Sans Bold';fill:#3c8ebb"
   id="tspan69404">O - Observation :</tspan>
</tspan><tspan
         x="-62.664459"
         y="287.59141"
         id="tspan69408">
</tspan><tspan
         x="-62.664459"
         y="317.99141"
         id="tspan69412"><tspan
   style="font-weight:bold;-inkscape-font-specification:'Open Sans Bold';fill:#3c8ebb"
   id="tspan69410">S - Sentiment :</tspan>
</tspan><tspan
         x="-62.664459"
         y="348.3914"
         id="tspan69414">
</tspan><tspan
         x="-62.664459"
         y="378.7914"
         id="tspan69418"><tspan
   style="font-weight:bold;-inkscape-font-specification:'Open Sans Bold';fill:#3c8ebb"
   id="tspan69416">B - Besoin :</tspan>
</tspan><tspan
         x="-62.664459"
         y="409.19139"
         id="tspan69420">
</tspan><tspan
         x="-62.664459"
         y="439.59138"
         id="tspan69424"><tspan
           style="font-weight:bold;-inkscape-font-specification:'Open Sans Bold';fill:#3c8ebb"
           id="tspan69422">D - Demande :</tspan></tspan></text>
    <text
       xml:space="preserve"
       style="font-style:normal;font-variant:normal;font-weight:normal;font-stretch:normal;font-size:16px;line-height:1.25;font-family:'Open Sans';-inkscape-font-specification:'Open Sans';white-space:pre;inline-size:230.572;fill:#383838;fill-opacity:1;stroke:none"
       x="-44.773083"
       y="284.60123"
       id="text3565"
       transform="translate(169.78648,47.091575)"><tspan
         x="-44.773083"
         y="284.60123"
         id="tspan69426">Constater les faits sans porter </tspan><tspan
         x="-44.773083"
         y="304.60122"
         id="tspan69428">de jugement sur la personne
</tspan><tspan
         x="-44.773083"
         y="324.60122"
         id="tspan69430">
</tspan><tspan
         x="-44.773083"
         y="344.60122"
         id="tspan69432">Identifier les émotions </tspan><tspan
         x="-44.773083"
         y="364.60122"
         id="tspan69434">ressenties et les exprimer
</tspan><tspan
         x="-44.773083"
         y="384.60122"
         id="tspan69436">
</tspan><tspan
         x="-44.773083"
         y="404.60122"
         id="tspan69438">Exprimer son besoin, en quoi </tspan><tspan
         x="-44.773083"
         y="424.60122"
         id="tspan69440">cela est important pour soi
</tspan><tspan
         x="-44.773083"
         y="444.60122"
         id="tspan69442">
</tspan><tspan
         x="-44.773083"
         y="464.60122"
         id="tspan69444">Clarifier ce qui est souhaité, de </tspan><tspan
         x="-44.773083"
         y="484.60122"
         id="tspan69446">façon concrète et réalisable</tspan></text>
  </g>
</svg>
