<svg xmlns="http://www.w3.org/2000/svg" id="svg4442" preserveAspectRatio="xMidYMid meet" viewBox="0 0 753.492 368.283" zoomAndPan="magnify"><style>@import url(/static/site.min.css);</style><defs id="defs34"><clipPath id="7c289c0ff7"><path id="path4" d="M371 191.57h58.484v16.5H371Zm0 0" clip-rule="nonzero"/></clipPath><clipPath id="b0a480fc2b"><path id="path7" d="M370.227 265.168h58.5v16.5h-58.5zm0 0" clip-rule="nonzero"/></clipPath><clipPath id="84c7fada6c"><path id="path10" d="M585.605 191.57h58.5v16.5h-58.5zm0 0" clip-rule="nonzero"/></clipPath><clipPath id="a0b0a46239"><path id="path13" d="M580.844 265.168h58.5v16.5h-58.5zm0 0" clip-rule="nonzero"/></clipPath><clipPath id="2ac208d5a7"><path id="path16" d="M512.215 108.238h58.5v16.5h-58.5zm0 0" clip-rule="nonzero"/></clipPath><clipPath id="0da7fb18c2"><path id="path19" d="M450.023 350h58.5v16.5h-58.5zm0 0" clip-rule="nonzero"/></clipPath><clipPath id="389cab0a83"><path id="path22" d="M450.023 388.836h58.5v16.5h-58.5zm0 0" clip-rule="nonzero"/></clipPath><clipPath id="3e45d8a867"><path id="path25" d="M450.023 430.238h58.5v16.5h-58.5zm0 0" clip-rule="nonzero"/></clipPath><clipPath id="ff41574527"><path id="path28" d="M450.023 474.324h58.5v16.5h-58.5zm0 0" clip-rule="nonzero"/></clipPath><clipPath id="9a74d52294"><path id="path31" d="M21.117 99.238h237.809v419.16H21.117Zm0 0" clip-rule="nonzero"/></clipPath></defs><g id="g494" clip-path="url(#7c289c0ff7)" transform="translate(-17.275 -115.238)"><path id="path492" fill="#e78404" fill-opacity="1" fill-rule="nonzero" d="M410.633 207.11c.46-1.055.86-2.18 1.094-3.094.187-.72.441-2.196.441-2.532v-.246h-41.14v-2.836h41.14v-.246c0-.336-.254-1.808-.441-2.531-.235-.914-.633-2.04-1.094-3.09a20 20 0 0 1-.41-.965c.093 0 19.199 8.196 19.21 8.242.016.043-19.093 8.258-19.21 8.258-.008 0 .175-.433.41-.96m0 0"/></g><g id="g498" clip-path="url(#b0a480fc2b)" transform="translate(-16.513 -115.238)"><path id="path496" fill="#e78404" fill-opacity="1" fill-rule="nonzero" d="M409.871 280.707c.461-1.05.86-2.176 1.098-3.094.183-.718.441-2.191.441-2.531v-.246h-41.144v-2.832h41.144v-.25c0-.336-.258-1.809-.441-2.527-.239-.918-.637-2.043-1.098-3.094a20 20 0 0 1-.41-.965c.094 0 19.2 8.195 19.215 8.242.011.047-19.094 8.258-19.215 8.258-.008 0 .176-.434.41-.961m0 0"/></g><g id="g502" clip-path="url(#84c7fada6c)" transform="translate(-21.117 -115.238)"><path id="path500" fill="#e78404" fill-opacity="1" fill-rule="nonzero" d="M625.25 207.11c.465-1.055.863-2.18 1.098-3.094.183-.72.441-2.196.441-2.532v-.246h-41.144v-2.836h41.144v-.246c0-.336-.258-1.808-.441-2.531-.235-.914-.633-2.04-1.098-3.09-.23-.531-.418-.965-.41-.965.094 0 19.203 8.196 19.215 8.242.011.043-19.094 8.258-19.215 8.258-.008 0 .18-.433.41-.96m0 0"/></g><g id="g506" clip-path="url(#a0b0a46239)" transform="translate(-16.355 -115.238)"><path id="path504" fill="#e78404" fill-opacity="1" fill-rule="nonzero" d="M620.488 280.707c.465-1.05.864-2.176 1.098-3.094.184-.718.441-2.191.441-2.531v-.246h-41.144v-2.832h41.144v-.25c0-.336-.257-1.809-.441-2.527-.234-.918-.633-2.043-1.098-3.094-.23-.531-.418-.965-.41-.965.098 0 19.203 8.195 19.215 8.242s-19.094 8.258-19.211 8.258c-.008 0 .176-.434.406-.961m0 0"/></g><g id="g800" clip-path="url(#2ac208d5a7)" transform="translate(-21.117 -95.238)"><path id="path798" fill="#383838" fill-opacity="1" fill-rule="nonzero" d="M551.86 123.777c.46-1.054.859-2.18 1.097-3.093.184-.72.441-2.192.441-2.532v-.246h-41.144v-2.836h41.144v-.246c0-.336-.257-1.808-.441-2.527-.238-.918-.637-2.043-1.098-3.094a20 20 0 0 1-.41-.965c.094 0 19.2 8.196 19.215 8.242.012.047-19.094 8.258-19.215 8.258-.008 0 .176-.433.41-.96m0 0"/></g><g id="g804" clip-path="url(#0da7fb18c2)" transform="translate(-21.117 -135.238)"><path id="path802" fill="#383838" fill-opacity="1" fill-rule="nonzero" d="M489.668 365.54c.465-1.056.863-2.18 1.098-3.095.183-.718.441-2.191.441-2.53v-.247h-41.144v-2.836h41.144v-.246c0-.336-.258-1.809-.441-2.527-.235-.918-.633-2.043-1.098-3.094a20 20 0 0 1-.41-.965c.094 0 19.203 8.195 19.215 8.242.011.047-19.094 8.258-19.215 8.258-.008 0 .18-.434.41-.96m0 0"/></g><g id="g808" clip-path="url(#389cab0a83)" transform="translate(-21.117 -135.238)"><path id="path806" fill="#383838" fill-opacity="1" fill-rule="nonzero" d="M489.668 404.375c.465-1.05.863-2.176 1.098-3.094.183-.719.441-2.191.441-2.527v-.25h-41.144v-2.832h41.144v-.25c0-.336-.258-1.809-.441-2.527-.235-.918-.633-2.043-1.098-3.094-.234-.531-.418-.961-.41-.961.094 0 19.203 8.195 19.215 8.238.011.047-19.094 8.262-19.215 8.262-.008 0 .18-.434.41-.965m0 0"/></g><g id="g812" clip-path="url(#3e45d8a867)" transform="translate(-21.117 -135.238)"><path id="path810" fill="#383838" fill-opacity="1" fill-rule="nonzero" d="M489.668 445.777c.465-1.054.863-2.18 1.098-3.093.183-.72.441-2.192.441-2.532v-.246h-41.144v-2.836h41.144v-.246c0-.336-.258-1.808-.441-2.527-.235-.918-.633-2.043-1.098-3.094a20 20 0 0 1-.41-.965c.094 0 19.203 8.196 19.215 8.242.011.047-19.094 8.258-19.215 8.258-.008 0 .18-.433.41-.96m0 0"/></g><g id="g816" clip-path="url(#ff41574527)" transform="translate(-21.117 -135.238)"><path id="path814" fill="#383838" fill-opacity="1" fill-rule="nonzero" d="M489.668 489.863c.465-1.05.863-2.176 1.098-3.093.183-.72.441-2.192.441-2.528v-.25h-41.144v-2.832h41.144v-.25c0-.336-.258-1.808-.441-2.527-.235-.918-.633-2.043-1.098-3.094-.234-.531-.418-.96-.41-.96.094 0 19.203 8.194 19.215 8.237.011.047-19.094 8.262-19.215 8.262-.008 0 .18-.433.41-.965m0 0"/></g><g id="g820" clip-path="url(#9a74d52294)" transform="matrix(1.06696 0 0 .87862 -22.531 -87.193)"><path id="path818" fill="#3c8ebb" fill-opacity="1" fill-rule="nonzero" d="M21.117 99.238h237.598v419.176H21.117Zm0 0"/></g><path id="path1980" fill="#fff" fill-opacity="1" fill-rule="nonzero" d="M23.172 26.344a2.615 2.615 0 0 1-1.621 2.422q-.481.201-1.004.203-.523-.002-1.004-.203a2.61 2.61 0 0 1-1.621-2.422 2.62 2.62 0 0 1 3.629-2.426q.481.198.851.566a2.6 2.6 0 0 1 .77 1.86m0 0"/><path id="path2146" fill="#fff" fill-opacity="1" fill-rule="nonzero" d="M23.172 48.134a2.615 2.615 0 0 1-1.621 2.422q-.481.201-1.004.203-.523-.002-1.004-.203a2.61 2.61 0 0 1-1.621-2.422 2.62 2.62 0 0 1 3.629-2.426q.481.198.851.567a2.6 2.6 0 0 1 .77 1.859m0 0"/><path id="path2404" fill="#fff" fill-opacity="1" fill-rule="nonzero" d="M23.172 91.024a2.615 2.615 0 0 1-1.621 2.422q-.481.201-1.004.203-.523-.002-1.004-.203a2.61 2.61 0 0 1-1.621-2.422 2.62 2.62 0 0 1 3.629-2.426q.481.198.851.567a2.6 2.6 0 0 1 .77 1.86m0 0"/><path id="path2704" fill="#fff" fill-opacity="1" fill-rule="nonzero" d="M23.222 154.347a2.615 2.615 0 0 1-1.62 2.422q-.482.201-1.005.203-.521-.002-1.004-.203a2.61 2.61 0 0 1-1.621-2.422 2.62 2.62 0 0 1 3.63-2.426q.481.198.85.567a2.6 2.6 0 0 1 .77 1.86m0 0"/><path id="path2886" fill="#fff" fill-opacity="1" fill-rule="nonzero" d="M23.41 133.38a2.615 2.615 0 0 1-1.62 2.423q-.482.201-1.004.203-.523-.002-1.004-.203a2.61 2.61 0 0 1-1.621-2.422 2.62 2.62 0 0 1 3.629-2.426q.481.198.851.567a2.6 2.6 0 0 1 .77 1.859m0 0"/><path id="path3196" fill="#fff" fill-opacity="1" fill-rule="nonzero" d="M23.273 218.293a2.615 2.615 0 0 1-1.621 2.422c-.32.132-.657.203-1.004.203q-.523-.002-1.004-.203a2.61 2.61 0 0 1-1.621-2.422 2.62 2.62 0 0 1 3.629-2.426q.481.198.851.566a2.6 2.6 0 0 1 .77 1.86m0 0"/><path id="path3400" fill="#fff" fill-opacity="1" fill-rule="nonzero" d="M23.172 260.258a2.615 2.615 0 0 1-1.621 2.422q-.481.201-1.004.203-.523-.002-1.004-.203a2.61 2.61 0 0 1-1.621-2.422 2.62 2.62 0 0 1 3.629-2.426q.481.198.851.566a2.6 2.6 0 0 1 .77 1.86m0 0"/><path id="path3710" fill="#fff" fill-opacity="1" fill-rule="nonzero" d="M23.241 303.264a2.615 2.615 0 0 1-1.62 2.422q-.482.201-1.005.203-.521-.002-1.004-.203a2.61 2.61 0 0 1-1.621-2.422 2.62 2.62 0 0 1 3.63-2.426q.481.198.85.566a2.6 2.6 0 0 1 .77 1.86m0 0"/><path id="path4034" fill="#fff" fill-opacity="1" fill-rule="nonzero" d="M23.431 196.823a2.615 2.615 0 0 1-1.621 2.422q-.481.201-1.004.203-.523-.002-1.004-.203a2.61 2.61 0 0 1-1.621-2.422 2.62 2.62 0 0 1 3.629-2.426q.481.198.851.567a2.6 2.6 0 0 1 .77 1.86m0 0"/><text xml:space="preserve" id="text5790" x="21.074" y="20.662" style="font-style:normal;font-weight:400;font-size:14.6667px;line-height:0;font-family:sans-serif;white-space:pre;inline-size:209.25;fill:#fff;fill-opacity:1;stroke:none" transform="translate(12.816 10.136)"><tspan id="tspan1221" x="21.074" y="20.662"><tspan id="tspan1219" style="line-height:1.45">Diminution du plaisir
</tspan></tspan><tspan id="tspan1225" x="21.074" y="41.929"><tspan id="tspan1223" style="line-height:1.45">Perte ou prise de poids </tspan></tspan><tspan id="tspan1229" x="21.074" y="63.195"><tspan id="tspan1227" style="line-height:1.45">importante
</tspan></tspan><tspan id="tspan1235" x="21.074" y="84.462"><tspan id="tspan1231" style="line-height:1.45">Diminution ou</tspan><tspan id="tspan1233" style="line-height:1.45"> </tspan></tspan><tspan id="tspan1239" x="21.074" y="105.729"><tspan id="tspan1237" style="line-height:1.45">augmentation de l&apos;appétit
</tspan></tspan><tspan id="tspan1243" x="21.074" y="126.996"><tspan id="tspan1241" style="line-height:1.45">Insomnie ou hypersomnie
</tspan></tspan><tspan id="tspan1247" x="21.074" y="148.262"><tspan id="tspan1245" style="line-height:1.45">Agitation ou ralentissement </tspan></tspan><tspan id="tspan1251" x="21.074" y="169.529"><tspan id="tspan1249" style="line-height:1.45">psychomoteur
</tspan></tspan><tspan id="tspan1255" x="21.074" y="190.796"><tspan id="tspan1253" style="line-height:1.45">Fatigue et perte d&apos;énergie
</tspan></tspan><tspan id="tspan1259" x="21.074" y="212.063"><tspan id="tspan1257" style="line-height:1.45">Dévalorisation et culpabilité </tspan></tspan><tspan id="tspan1263" x="21.074" y="233.329"><tspan id="tspan1261" style="line-height:1.45">excessives
</tspan></tspan><tspan id="tspan1267" x="21.074" y="254.596"><tspan id="tspan1265" style="line-height:1.45">Difficultés de concentration </tspan></tspan><tspan id="tspan1271" x="21.074" y="275.863"><tspan id="tspan1269" style="line-height:1.45">ou indécision
</tspan></tspan><tspan id="tspan1275" x="21.074" y="297.129"><tspan id="tspan1273" style="line-height:1.45">Pensées de mort, idées </tspan></tspan><tspan id="tspan1279" x="21.074" y="318.396"><tspan id="tspan1277" style="line-height:1.45">noires ou idéations </tspan></tspan><tspan id="tspan1283" x="21.074" y="339.663"><tspan id="tspan1281" style="line-height:1.45">suicidaires</tspan></tspan></text><text xml:space="preserve" id="text30915" x="500.96" y="226.7" style="font-style:normal;font-weight:400;font-size:13.3333px;line-height:1.25;font-family:sans-serif;fill:#383838;fill-opacity:1;stroke:none"><tspan id="tspan30913" x="500.96" y="226.7">Augmentation du plaisir</tspan></text><text xml:space="preserve" id="text31941" x="499.701" y="266.202" style="font-style:normal;font-weight:400;font-size:13.3333px;line-height:1.25;font-family:sans-serif;fill:#383838;fill-opacity:1;stroke:none"><tspan id="tspan31939" x="499.701" y="266.202">Diminution de la tristesse</tspan></text><text xml:space="preserve" id="text32473" x="499.584" y="308.052" style="font-style:normal;font-weight:400;font-size:13.3333px;line-height:1.25;font-family:sans-serif;fill:#383838;fill-opacity:1;stroke:none"><tspan id="tspan32471" x="499.584" y="308.052">Diminution de l&apos;ennui</tspan></text><text xml:space="preserve" id="text33357" x="499.717" y="350.872" style="font-style:normal;font-weight:400;font-size:13.3333px;line-height:1.25;font-family:sans-serif;fill:#383838;fill-opacity:1;stroke:none"><tspan id="tspan33355" x="499.717" y="350.872">Diminution des ruminations négatives</tspan></text><text xml:space="preserve" id="text68845" x="300.551" y="349.75" style="font-style:normal;font-weight:400;font-size:13.3333px;line-height:1.25;font-family:sans-serif;text-align:center;text-anchor:middle;white-space:pre;inline-size:135.007;fill:#383838;fill-opacity:1;stroke:none" transform="translate(48.224 -71.56)"><tspan id="tspan1285" x="300.551" y="349.75">Augmentation des<tspan id="tspan1287" y="349.75"> </tspan></tspan><tspan id="tspan1289" x="300.551" y="366.417">activités plaisantes</tspan></text><text xml:space="preserve" id="text76653" x="267.386" y="162.434" style="font-style:normal;font-weight:400;font-size:13.3333px;line-height:1.25;font-family:sans-serif;fill:#e78404;fill-opacity:1;stroke:none"><tspan id="tspan76651" x="267.386" y="162.434">Dépression</tspan></text><text xml:space="preserve" id="text76653-3" x="267.386" y="88.292" style="font-style:normal;font-weight:400;font-size:13.3333px;line-height:1.25;font-family:sans-serif;fill:#e78404;fill-opacity:1;stroke:none"><tspan id="tspan76651-6" x="267.386" y="88.292">Dépression</tspan></text><text xml:space="preserve" id="text83677" x="909.65" y="141.098" style="font-style:normal;font-weight:400;font-size:13.3333px;line-height:1.25;font-family:sans-serif;text-align:center;text-anchor:middle;white-space:pre;inline-size:159.017;fill:#e78404;fill-opacity:1;stroke:none" transform="translate(-424.583 13.227)"><tspan id="tspan1291" x="909.65" y="141.098">Diminution des<tspan id="tspan1293" y="141.098"> </tspan></tspan><tspan id="tspan1295" x="909.65" y="157.764">activités agréables</tspan></text><text xml:space="preserve" id="text83677-5" x="909.65" y="141.098" style="font-style:normal;font-weight:400;font-size:13.3333px;line-height:1.25;font-family:sans-serif;text-align:center;text-anchor:middle;white-space:pre;inline-size:159.017;fill:#e78404;fill-opacity:1;stroke:none" transform="translate(-424.445 -61.097)"><tspan id="tspan1297" x="909.65" y="141.098">Diminution des<tspan id="tspan1299" y="141.098"> </tspan></tspan><tspan id="tspan1301" x="909.65" y="157.764">activités agréables</tspan></text><text xml:space="preserve" id="text83677-7" x="909.65" y="141.098" style="font-style:normal;font-weight:400;font-size:13.3333px;line-height:1.25;font-family:sans-serif;text-align:center;text-anchor:middle;white-space:pre;inline-size:125.481;fill:#e78404;fill-opacity:1;stroke:none" transform="translate(-226.031 -61.097)"><tspan id="tspan1303" x="909.65" y="141.098">Diminution du<tspan id="tspan1305" y="141.098"> </tspan></tspan><tspan id="tspan1307" x="909.65" y="157.764">plaisir</tspan></text><text xml:space="preserve" id="text85067" x="679.641" y="80.752" style="font-style:normal;font-weight:400;font-size:13.3333px;line-height:1.25;font-family:sans-serif;text-align:center;text-anchor:middle;white-space:pre;inline-size:113.078;fill:#e78404;fill-opacity:1;stroke:none" transform="translate(4.581 73.573)"><tspan id="tspan1309" x="679.641" y="80.752">Augmentation<tspan id="tspan1311" y="80.752"> </tspan></tspan><tspan id="tspan1313" x="679.641" y="97.419">de l&apos;ennui</tspan></text><text xml:space="preserve" id="text4699" x="296.095" y="25.137" style="font-style:normal;font-weight:400;font-size:13.3333px;line-height:1.25;font-family:sans-serif;fill:#383838;fill-opacity:1;stroke:none"><tspan id="tspan4697" x="296.095" y="25.137">Je fais une activité agréable</tspan></text><text xml:space="preserve" id="text5357" x="560.921" y="24.447" style="font-style:normal;font-weight:400;font-size:13.3333px;line-height:1.25;font-family:sans-serif;fill:#383838;fill-opacity:1;stroke:none"><tspan id="tspan5355" x="560.921" y="24.447">Je ressens du plaisir</tspan></text></svg>