<svg height="460.01758" viewBox="0 0 376.7566 460.01759" width="376.75659" xmlns="http://www.w3.org/2000/svg"><g transform="translate(-211.62169 -150.15313)"><g fill-rule="evenodd"><path d="m221.62169 202.24016 128.33163 17.15931v243.62579l-126.48513 29.65598z" fill="#703070"/><path d="m363.80205 160.15313 84.01568 18.62338-.92325 261.27953-83.09243 20.31149z" fill="#6cc943"/><path d="m461.66646 311.7244 49.85546.54082v113.01883l-48.93221 11.07899z" fill="#e58619"/><path d="m525.37066 248.1322 53.00763 7.38601-1.30567 154.99385-49.85546 12.00225z" fill="#004899"/><path d="m224.39142 507.45324 352.68122-83.09244-.38243 83.63327z" fill="#939393"/></g><g><g fill-rule="evenodd"><path d="m221.62169 202.24016 128.33163 17.15931v243.62579l-126.48513 29.65598z" fill="#9e449e"/><path d="m363.80205 160.15313 84.01568 18.62338-.92325 261.27953-83.09243 20.31149z" fill="#6cc943"/><path d="m461.66646 311.7244 49.85546.54082v113.01883l-48.93221 11.07899z" fill="#fc8a07"/><path d="m525.37066 248.1322 53.00763 7.38601-1.30567 154.99385-49.85546 12.00225z" fill="#0088bd"/><path d="m224.39142 507.45324 352.68122-83.09244-.38243 83.63327z" fill="#939393"/></g><text font-family="sans-serif" font-size="64" letter-spacing="0" word-spacing="0" x="313.07812" y="599.26447"><tspan x="313.07812" y="599.26447">THOP</tspan></text></g></g></svg>